#N canvas 400 154 1280 790 10;
#X obj 562 43 inlet;
#X text 27 28 PITCH;
#X obj 267 37 inlet;
#X text 613 45 controlPitch;
#X obj 268 422 outlet;
#X text 318 38 midi note;
#X obj 267 109 unpack;
#X floatatom 203 132 5 0 0 0 - - -, f 5;
#X obj 268 359 pack, f 6;
#X floatatom 213 312 5 0 0 0 - - -, f 5;
#X text 92 132 orginal value;
#X text 132 310 new value;
#X floatatom 581 75 5 0 0 0 - - -, f 5;
#X floatatom 610 132 5 0 0 0 - - -, f 5;
#X obj 562 159 i;
#X floatatom 610 190 5 0 0 0 - - -, f 5;
#X obj 267 284 +;
#X obj 285 72 r \$0-notes;
#X obj 562 107 m_scale 0 1 0 10;
#X connect 0 0 12 0;
#X connect 0 0 18 0;
#X connect 2 0 6 0;
#X connect 6 0 7 0;
#X connect 6 0 16 0;
#X connect 6 1 8 1;
#X connect 8 0 4 0;
#X connect 14 0 15 0;
#X connect 14 0 16 1;
#X connect 16 0 8 0;
#X connect 16 0 9 0;
#X connect 17 0 6 0;
#X connect 18 0 13 0;
#X connect 18 0 14 0;
