#N canvas 123 29 1280 790 10;
#X obj 281 341 *~ 1;
#X floatatom 390 266 5 0 0 0 - - -, f 5;
#X obj 240 296 rev3~ 100 90 3000 20;
#X obj 463 231 + 80;
#X obj 583 255 sig~;
#X obj 583 277 lop~ 5;
#X obj 677 306 -~ 1;
#X obj 583 400 *~;
#X obj 188 330 *~;
#X obj 677 328 abs~;
#X obj 267 212 *~ 1;
#X obj 463 209 * 15;
#X obj 586 230 hsl 100 15 0 1 0 0 empty empty empty -2 -8 0 10 -262144
-1 -1 0 1;
#X obj 299 584 outlet~;
#X text 27 28 REVERB;
#X obj 267 37 inlet~;
#X text 472 75 reverb;
#X text 276 61 audio signal;
#X obj 462 43 inlet;
#X obj 583 43 inlet;
#X text 591 70 dry/wet;
#X msg 721 100 0.5;
#X obj 721 76 loadbang;
#X connect 0 0 7 1;
#X connect 1 0 2 2;
#X connect 2 0 0 0;
#X connect 2 1 0 0;
#X connect 2 2 0 0;
#X connect 2 3 0 0;
#X connect 3 0 1 0;
#X connect 4 0 5 0;
#X connect 5 0 6 0;
#X connect 5 0 7 0;
#X connect 6 0 9 0;
#X connect 7 0 13 0;
#X connect 8 0 13 0;
#X connect 9 0 8 0;
#X connect 10 0 2 0;
#X connect 10 0 2 1;
#X connect 10 0 8 1;
#X connect 11 0 3 0;
#X connect 12 0 4 0;
#X connect 15 0 10 0;
#X connect 18 0 11 0;
#X connect 19 0 12 0;
#X connect 21 0 12 0;
#X connect 22 0 21 0;
