#N canvas 0 23 833 554 10;
#X floatatom 87 177 0 0 0 0 - - -;
#X obj 87 155 mod 2;
#X obj 48 202 spigot;
#X obj 48 223 + 1;
#X text 29 16 pair numbers;
#X obj 48 70 inlet;
#X obj 48 285 outlet;
#X text 45 50 number;
#X text 103 285 output pair number;
#X floatatom 68 255 5 0 0 0 - - -, f 5;
#X obj 48 129 t f f;
#X connect 0 0 2 1;
#X connect 1 0 0 0;
#X connect 2 0 3 0;
#X connect 3 0 9 0;
#X connect 3 0 6 0;
#X connect 5 0 10 0;
#X connect 10 0 2 0;
#X connect 10 1 1 0;
