#N canvas 214 28 1466 910 10;
#X text 673 176 ON;
#X text 608 176 OFF;
#X obj 652 175 bng 15 250 50 0 empty empty empty 17 7 0 10 -262144
-1 -1;
#X obj 587 176 bng 15 250 50 0 empty empty empty 17 7 0 10 -262144
-1 -1;
#X text 585 32 HARDWARE CONTROLS;
#X obj 30 57 inlet datas;
#X obj 113 152 s \$0-preset;
#X obj 202 152 s \$0-param0;
#X obj 30 152 s \$0-state;
#X obj 302 152 s \$0-param1;
#X obj 587 64 r \$0-state;
#X obj 587 149 route 0 1;
#X obj 587 91 valueChanged;
#X obj 587 202 s \$0-off;
#X obj 652 203 s \$0-on;
#X floatatom 1140 121 5 0 0 0 - - -, f 5;
#X obj 1118 64 r \$0-param1;
#X obj 1118 91 spigot 0;
#X obj 1187 91 r \$0-state;
#X obj 607 117 print new state;
#X obj 112 120 pipe 10;
#X obj 202 120 pipe 20;
#X obj 302 120 pipe 20;
#X obj 944 93 spigot 0;
#X obj 1013 93 r \$0-state;
#X floatatom 968 121 5 0 0 0 - - -, f 5;
#X obj 777 91 valueChanged;
#X obj 777 64 r \$0-preset;
#X obj 797 117 print new preset;
#X obj 777 202 s \$0-newPreset;
#X obj 944 67 r \$0-param0;
#X obj 944 201 s \$0-param0OK;
#X obj 1118 204 s \$0-param1OK;
#X obj 412 120 pipe 20;
#X text 210 178 joystick x;
#X text 310 178 joystick y;
#X text 420 178 barometer;
#X obj 30 87 unpack 0 0 0 0 0;
#X floatatom 1320 121 5 0 0 0 - - -, f 5;
#X obj 1298 91 spigot 0;
#X obj 1367 91 r \$0-state;
#X obj 1298 64 r \$0-param2;
#X obj 1298 204 s \$0-param2OK;
#X obj 508 1324 outlet~;
#X obj 1279 612 r \$0-state;
#X obj 1213 612 spigot 1;
#X obj 1144 579 r \$0-off;
#X obj 1252 742 bng 15 250 50 0 empty empty empty 17 7 0 10 -262144
-1 -1;
#X text 31 519 PRESET 0;
#X text 480 524 PRESET 1;
#X text 1135 522 PRESET 2;
#X msg 1159 621 1;
#X text 1291 660 sequencer;
#X text 1378 742 tempo;
#X obj 1169 664 loadbang;
#X obj 1238 664 t s s;
#X text 1287 796 wav sequencer;
#X obj 52 409 bng 15 250 50 0 empty empty empty 17 7 0 10 -262144 -1
-1;
#X obj 193 409 bng 15 250 50 0 empty empty empty 17 7 0 10 -262144
-1 -1;
#X obj 116 336 f;
#X obj 116 291 r \$0-on;
#X obj 214 315 s \$0-off;
#X obj 182 285 t f b;
#X obj 183 241 r \$0-newPreset;
#X obj 72 431 s \$0-preset0;
#X obj 212 431 s \$0-preset1;
#X msg 212 408 1;
#X obj 313 409 bng 15 250 50 0 empty empty empty 17 7 0 10 -262144
-1 -1;
#X obj 332 431 s \$0-preset2;
#X msg 332 408 2;
#X text 59 230 PRESET GESTION;
#X obj 436 409 bng 15 250 50 0 empty empty empty 17 7 0 10 -262144
-1 -1;
#X msg 455 408 3;
#X obj 455 431 s \$0-preset3;
#X obj 182 363 route 0 1 2 3 4;
#X obj 576 409 bng 15 250 50 0 empty empty empty 17 7 0 10 -262144
-1 -1;
#X msg 595 408 4;
#X obj 595 431 s \$0-preset4;
#X msg 72 408 0;
#X msg 1186 691 symbol bolstick_sounds/percu/;
#X msg 1229 712 symbol percu0;
#X obj 412 152 s \$0-param2;
#X obj 1273 741 r \$0-param2OK;
#X obj 1143 946 *~ 0.5;
#X obj 1199 945 / 100;
#X floatatom 1199 924 5 0 0 0 - - -, f 5;
#X text 1464 524 PRESET 3;
#X obj 563 827 bng 15 250 50 0 empty empty empty 17 7 0 10 -262144
-1 -1;
#X obj 508 231 s \$0-innerState;
#X obj 584 826 r \$0-param2OK;
#X obj 703 798 pack s s s;
#X msg 703 742 bolstick_sounds/zulu/hululement/hulul_start.wav bolstick_sounds/zulu/hululement/hulul_middle_loop.wav
bolstick_sounds/zulu/hululement/hulul_end.wav;
#X obj 237 285 bng 15 250 50 0 empty empty empty 17 7 0 10 -262144
-1 -1;
#X obj 483 564 r \$0-off;
#X obj 552 599 spigot 1;
#X msg 501 608 1;
#X text 1724 524 PRESET 4;
#X obj 1143 794 SEQ-wavSequence;
#X obj 619 599 r \$0-state;
#X obj 1344 768 m_scale 0 1 0.3 0.8;
#X obj 1148 1104 e_pitchshift;
#X msg 1229 1076 pitch \$1;
#X floatatom 1268 1031 5 0 0 0 - - -, f 5;
#X text 1295 1076 Pitch Shift;
#X obj 1209 1008 bng 15 250 50 0 empty empty empty 17 7 0 10 -262144
-1 -1;
#X obj 1229 1009 r \$0-param0OK;
#X obj 1229 1055 i;
#X obj 1229 1031 * 12;
#X obj 1725 607 r \$0-state;
#X obj 1658 607 spigot 1;
#X obj 1588 572 r \$0-off;
#X obj 1581 1276 *~;
#X msg 1607 616 1;
#X obj 1600 1220 loadbang;
#X obj 1588 720 VI-beating;
#X obj 1634 692 bng 15 250 50 0 empty empty empty 17 7 0 10 -262144
-1 -1;
#X obj 1655 691 r \$0-param0OK;
#X obj 1621 664 r \$0-param2OK;
#X obj 1100 1188 +~;
#X obj 1201 1154 loadbang;
#X obj 1172 1225 *~;
#X obj 1231 1210 hsl 50 15 0 1 0 0 empty empty empty -2 -8 0 10 -262144
-1 -1 0 1;
#X floatatom 1228 1231 5 0 0 0 - - -, f 5;
#X obj 518 1147 loadbang;
#X obj 489 1218 *~;
#X obj 548 1203 hsl 50 15 0 1 0 0 empty empty empty -2 -8 0 10 -262144
-1 -1 0 1;
#X floatatom 545 1224 5 0 0 0 - - -, f 5;
#X obj 1626 1271 hsl 50 15 0 1 0 0 empty empty empty -2 -8 0 10 -262144
-1 -1 0 1;
#X floatatom 1623 1292 5 0 0 0 - - -, f 5;
#X obj 1584 959 /~ 100;
#X msg 1201 1181 0.653;
#X msg 518 1174 0.285;
#X msg 1600 1243 0.795;
#X obj 1658 572 r \$0-preset3;
#X obj 552 564 r \$0-preset1;
#X obj 1213 578 r \$0-preset2;
#X obj 482 878 VI-bolstick_wavePlayer-whistle;
#X obj 209 655 spigot 1;
#X obj 133 622 r \$0-off;
#X obj 275 655 r \$0-state;
#X obj 209 621 r \$0-preset1;
#X msg 211 683 bolstick_sounds/zulu/groove.wav;
#X msg 171 687 1;
#X text 585 799 barometer;
#X text 565 932 joystick;
#X obj 473 1058 e_pitchshift;
#X obj 225 874 VI-wavePlayer-bolstick-mono;
#X msg 554 1026 pitch \$1;
#X floatatom 593 981 5 0 0 0 - - -, f 5;
#X text 620 1026 Pitch Shift;
#X obj 534 958 bng 15 250 50 0 empty empty empty 17 7 0 10 -262144
-1 -1;
#X obj 554 959 r \$0-param0OK;
#X obj 554 1005 i;
#X obj 466 951 +~;
#X obj 554 981 * 4;
#X connect 2 0 14 0;
#X connect 3 0 13 0;
#X connect 5 0 37 0;
#X connect 10 0 12 0;
#X connect 11 0 3 0;
#X connect 11 1 2 0;
#X connect 12 0 11 0;
#X connect 12 0 88 0;
#X connect 16 0 17 0;
#X connect 17 0 15 0;
#X connect 17 0 32 0;
#X connect 18 0 17 1;
#X connect 20 0 6 0;
#X connect 21 0 7 0;
#X connect 22 0 9 0;
#X connect 23 0 25 0;
#X connect 23 0 31 0;
#X connect 24 0 23 1;
#X connect 26 0 29 0;
#X connect 27 0 26 0;
#X connect 30 0 23 0;
#X connect 33 0 81 0;
#X connect 37 0 8 0;
#X connect 37 1 20 0;
#X connect 37 2 21 0;
#X connect 37 3 22 0;
#X connect 37 4 33 0;
#X connect 39 0 38 0;
#X connect 39 0 42 0;
#X connect 40 0 39 1;
#X connect 41 0 39 0;
#X connect 44 0 45 1;
#X connect 45 0 51 0;
#X connect 46 0 97 0;
#X connect 51 0 97 0;
#X connect 54 0 55 0;
#X connect 55 0 80 0;
#X connect 55 1 79 0;
#X connect 59 0 74 0;
#X connect 60 0 59 0;
#X connect 62 0 74 0;
#X connect 62 1 61 0;
#X connect 63 0 59 1;
#X connect 63 0 62 0;
#X connect 66 0 65 0;
#X connect 66 0 58 0;
#X connect 69 0 67 0;
#X connect 69 0 68 0;
#X connect 72 0 71 0;
#X connect 72 0 73 0;
#X connect 74 0 78 0;
#X connect 74 1 66 0;
#X connect 74 2 69 0;
#X connect 74 3 72 0;
#X connect 74 5 76 0;
#X connect 76 0 75 0;
#X connect 76 0 77 0;
#X connect 78 0 64 0;
#X connect 78 0 57 0;
#X connect 79 0 97 1;
#X connect 80 0 97 2;
#X connect 82 0 47 0;
#X connect 82 0 99 0;
#X connect 83 0 100 0;
#X connect 84 0 83 1;
#X connect 85 0 84 0;
#X connect 89 0 87 0;
#X connect 89 0 136 1;
#X connect 90 0 136 2;
#X connect 91 0 90 0;
#X connect 92 0 61 0;
#X connect 93 0 136 0;
#X connect 94 0 95 0;
#X connect 94 0 91 0;
#X connect 95 0 136 0;
#X connect 97 0 83 0;
#X connect 97 0 118 0;
#X connect 98 0 94 1;
#X connect 99 0 97 3;
#X connect 100 0 118 1;
#X connect 101 0 100 1;
#X connect 105 0 104 0;
#X connect 105 0 107 0;
#X connect 106 0 101 0;
#X connect 107 0 102 0;
#X connect 107 0 106 0;
#X connect 108 0 109 1;
#X connect 109 0 112 0;
#X connect 110 0 114 0;
#X connect 111 0 43 0;
#X connect 112 0 114 0;
#X connect 113 0 132 0;
#X connect 114 0 129 0;
#X connect 116 0 115 0;
#X connect 116 0 114 2;
#X connect 117 0 114 1;
#X connect 118 0 120 0;
#X connect 119 0 130 0;
#X connect 120 0 43 0;
#X connect 121 0 122 0;
#X connect 122 0 120 1;
#X connect 123 0 131 0;
#X connect 124 0 43 0;
#X connect 125 0 126 0;
#X connect 126 0 124 1;
#X connect 127 0 128 0;
#X connect 128 0 111 1;
#X connect 129 0 111 0;
#X connect 130 0 120 1;
#X connect 131 0 124 1;
#X connect 132 0 111 1;
#X connect 133 0 109 0;
#X connect 134 0 94 0;
#X connect 135 0 45 0;
#X connect 136 0 153 1;
#X connect 137 0 141 0;
#X connect 137 0 142 0;
#X connect 138 0 146 0;
#X connect 139 0 137 1;
#X connect 140 0 137 0;
#X connect 141 0 146 1;
#X connect 142 0 146 0;
#X connect 145 0 124 0;
#X connect 146 0 153 0;
#X connect 147 0 145 1;
#X connect 151 0 150 0;
#X connect 151 0 154 0;
#X connect 152 0 147 0;
#X connect 153 0 145 0;
#X connect 154 0 148 0;
#X connect 154 0 152 0;
