#N canvas 61 24 1564 960 10;
#X text 673 176 ON;
#X text 608 176 OFF;
#X obj 652 175 bng 15 250 50 0 empty empty empty 17 7 0 10 -262144
-1 -1;
#X obj 587 176 bng 15 250 50 0 empty empty empty 17 7 0 10 -262144
-1 -1;
#X text 585 32 HARDWARE CONTROLS;
#X obj 30 57 inlet datas;
#X obj 113 152 s \$0-preset;
#X obj 202 152 s \$0-param0;
#X obj 30 152 s \$0-state;
#X obj 302 152 s \$0-param1;
#X obj 587 64 r \$0-state;
#X obj 587 149 route 0 1;
#X obj 587 91 valueChanged;
#X obj 587 202 s \$0-off;
#X obj 652 203 s \$0-on;
#X floatatom 1140 121 5 0 0 0 - - -, f 5;
#X obj 1118 64 r \$0-param1;
#X obj 1118 91 spigot 0;
#X obj 1187 91 r \$0-state;
#X obj 607 117 print new state;
#X obj 112 120 pipe 10;
#X obj 202 120 pipe 20;
#X obj 302 120 pipe 20;
#X obj 944 93 spigot 0;
#X obj 1013 93 r \$0-state;
#X floatatom 968 121 5 0 0 0 - - -, f 5;
#X obj 777 91 valueChanged;
#X obj 777 64 r \$0-preset;
#X obj 797 117 print new preset;
#X obj 777 202 s \$0-newPreset;
#X obj 944 67 r \$0-param0;
#X obj 944 201 s \$0-param0OK;
#X obj 1118 204 s \$0-param1OK;
#X obj 412 152 s \$0-param1;
#X obj 412 120 pipe 20;
#X text 210 178 joystick x;
#X text 310 178 joystick y;
#X text 420 178 barometer;
#X obj 30 87 unpack 0 0 0 0 0;
#X floatatom 1320 121 5 0 0 0 - - -, f 5;
#X obj 1298 91 spigot 0;
#X obj 1367 91 r \$0-state;
#X obj 1298 64 r \$0-param2;
#X obj 1298 204 s \$0-param2OK;
#X obj 505 1324 outlet~;
#X obj 188 600 r \$0-state;
#X obj 122 600 spigot 1;
#X obj 53 567 r \$0-off;
#X obj 123 625 bng 15 250 50 0 empty empty empty 17 7 0 10 -262144
-1 -1;
#X obj 122 566 r \$0-preset0;
#X obj 1225 597 r \$0-state;
#X obj 1091 570 r \$0-off;
#X obj 1172 624 bng 15 250 50 0 empty empty empty 17 7 0 10 -262144
-1 -1;
#X obj 1159 570 r \$0-preset2;
#X obj 1159 597 spigot 1;
#X text 63 517 PRESET 0;
#X text 459 522 PRESET 1;
#X text 1153 520 PRESET 2;
#X msg 1107 608 1;
#X msg 68 609 1;
#X obj 52 732 SEQ-readWavSequence;
#X obj 506 1238 FX-reverb;
#X text 589 1240 reverb;
#X text 200 648 sequencer;
#X text 1273 644 sequencer;
#X obj 144 624 r \$0-param0OK;
#X text 249 625 tempo;
#X obj 1193 623 r \$0-param0OK;
#X text 1295 624 tempo;
#X obj 536 1215 r \$0-param1OK;
#X obj 604 594 r \$0-state;
#X obj 537 594 spigot 1;
#X obj 467 559 r \$0-off;
#X obj 571 1084 *~;
#X msg 486 603 1;
#X msg 590 1051 0.1;
#X obj 590 1028 loadbang;
#X text 627 1053 set volume;
#X obj 500 640 r \$0-param1OK;
#X obj 78 652 loadbang;
#X obj 1116 648 loadbang;
#X msg 1202 696 symbol mouth0;
#X obj 147 652 t s s;
#X obj 1182 646 t s s;
#X obj 1095 723 SEQ-readWavSequence;
#X text 204 733 wav sequencer;
#X text 1239 724 wav sequencer;
#X obj 52 409 bng 15 250 50 0 empty empty empty 17 7 0 10 -262144 -1
-1;
#X obj 193 409 bng 15 250 50 0 empty empty empty 17 7 0 10 -262144
-1 -1;
#X obj 116 336 f;
#X obj 116 291 r \$0-on;
#X obj 214 315 s \$0-off;
#X obj 182 285 t f b;
#X obj 183 241 r \$0-newPreset;
#X obj 72 431 s \$0-preset0;
#X obj 212 431 s \$0-preset1;
#X msg 212 408 1;
#X obj 313 409 bng 15 250 50 0 empty empty empty 17 7 0 10 -262144
-1 -1;
#X obj 332 431 s \$0-preset2;
#X msg 332 408 2;
#X text 59 230 PRESET GESTION;
#X obj 436 409 bng 15 250 50 0 empty empty empty 17 7 0 10 -262144
-1 -1;
#X msg 455 408 3;
#X obj 455 431 s \$0-preset3;
#X obj 182 363 route 0 1 2 3 4;
#X obj 576 409 bng 15 250 50 0 empty empty empty 17 7 0 10 -262144
-1 -1;
#X msg 595 408 4;
#X obj 595 431 s \$0-preset4;
#X msg 72 408 0;
#X msg 131 683 symbol bolstick_sounds/percu/;
#X msg 146 704 symbol percu0;
#X msg 1185 674 symbol grelot_sounds/mouth/;
#X obj 537 559 r \$0-preset1;
#X obj 1093 1172 *~;
#X obj 1112 1116 loadbang;
#X text 1149 1141 set volume;
#X msg 1112 1139 0.5;
#X obj 467 699 VI-beating;
#X obj 513 664 bng 15 250 50 0 empty empty empty 17 7 0 10 -262144
-1 -1;
#X obj 534 663 r \$0-param0OK;
#X connect 2 0 14 0;
#X connect 3 0 13 0;
#X connect 5 0 38 0;
#X connect 10 0 12 0;
#X connect 11 0 3 0;
#X connect 11 1 2 0;
#X connect 12 0 11 0;
#X connect 12 0 19 0;
#X connect 16 0 17 0;
#X connect 17 0 15 0;
#X connect 17 0 32 0;
#X connect 18 0 17 1;
#X connect 20 0 6 0;
#X connect 21 0 7 0;
#X connect 22 0 9 0;
#X connect 23 0 25 0;
#X connect 23 0 31 0;
#X connect 24 0 23 1;
#X connect 26 0 28 0;
#X connect 26 0 29 0;
#X connect 27 0 26 0;
#X connect 30 0 23 0;
#X connect 34 0 33 0;
#X connect 38 0 8 0;
#X connect 38 1 20 0;
#X connect 38 2 21 0;
#X connect 38 3 22 0;
#X connect 38 4 34 0;
#X connect 40 0 39 0;
#X connect 40 0 43 0;
#X connect 41 0 40 1;
#X connect 42 0 40 0;
#X connect 45 0 46 1;
#X connect 46 0 59 0;
#X connect 47 0 60 0;
#X connect 49 0 46 0;
#X connect 50 0 54 1;
#X connect 51 0 84 0;
#X connect 53 0 54 0;
#X connect 54 0 58 0;
#X connect 58 0 84 0;
#X connect 59 0 60 0;
#X connect 60 0 61 0;
#X connect 61 0 44 0;
#X connect 65 0 48 0;
#X connect 65 0 60 3;
#X connect 67 0 52 0;
#X connect 67 0 84 3;
#X connect 69 0 61 1;
#X connect 70 0 71 1;
#X connect 71 0 74 0;
#X connect 72 0 117 0;
#X connect 74 0 117 0;
#X connect 75 0 73 1;
#X connect 76 0 75 0;
#X connect 78 0 117 1;
#X connect 79 0 82 0;
#X connect 80 0 83 0;
#X connect 81 0 84 2;
#X connect 82 0 110 0;
#X connect 82 1 109 0;
#X connect 83 0 81 0;
#X connect 83 1 111 0;
#X connect 84 0 113 0;
#X connect 89 0 104 0;
#X connect 90 0 89 0;
#X connect 92 0 104 0;
#X connect 92 1 91 0;
#X connect 93 0 89 1;
#X connect 93 0 92 0;
#X connect 96 0 95 0;
#X connect 96 0 88 0;
#X connect 99 0 97 0;
#X connect 99 0 98 0;
#X connect 102 0 101 0;
#X connect 102 0 103 0;
#X connect 104 0 108 0;
#X connect 104 1 96 0;
#X connect 104 2 99 0;
#X connect 104 3 102 0;
#X connect 104 5 106 0;
#X connect 106 0 105 0;
#X connect 106 0 107 0;
#X connect 108 0 94 0;
#X connect 108 0 87 0;
#X connect 109 0 60 1;
#X connect 110 0 60 2;
#X connect 111 0 84 1;
#X connect 112 0 71 0;
#X connect 113 0 61 0;
#X connect 114 0 116 0;
#X connect 116 0 113 1;
#X connect 117 0 44 0;
#X connect 119 0 118 0;
#X connect 119 0 117 2;
