#N canvas 281 83 1399 772 10;
#X obj 945 475 readsf~;
#X msg 899 447 1;
#X obj 894 345 bng 15 250 50 0 empty empty empty 17 7 0 10 -262144
-1 -1;
#X obj 895 369 t b b;
#X obj 927 393 i;
#X obj 978 324 t b f;
#X obj 82 574 qlist;
#X msg 129 317 bang;
#X obj 152 605 print done;
#X text 206 382 set relative tempo;
#X text 486 519 read a file;
#X msg 125 486 clear;
#X text 202 490 empty the qlist;
#X msg 129 383 tempo \$1;
#X obj 179 659 spigot;
#X obj 287 652 tgl 15 0 empty empty empty 17 7 0 10 -262144 -1 -1 1
1;
#X text 311 654 loop;
#X obj 809 809 *~ 1;
#X floatatom 918 734 5 0 0 0 - - -, f 5;
#X obj 768 764 rev3~ 100 90 3000 20;
#X obj 991 699 + 80;
#X obj 541 685 sig~;
#X obj 541 707 lop~ 5;
#X obj 639 736 -~ 1;
#X obj 589 833 *~;
#X obj 700 798 *~;
#X obj 639 758 abs~;
#X obj 795 680 *~ 1;
#X obj 991 677 * 15;
#X text 543 637 Dry/Wet;
#X obj 544 660 hsl 100 15 0 1 0 0 empty empty empty -2 -8 0 10 -262144
-1 -1 4950 1;
#X text 947 155 ON;
#X text 882 155 OFF;
#X obj 926 154 bng 15 250 50 0 empty empty empty 17 7 0 10 -262144
-1 -1;
#X obj 860 155 bng 15 250 50 0 empty empty empty 17 7 0 10 -262144
-1 -1;
#X obj 1198 158 hsl 100 15 0.5 3 0 0 empty empty empty -2 -8 0 10 -262144
-1 -1 0 1;
#X floatatom 1306 163 5 0 0 0 - - -, f 5;
#X text 858 11 HARDWARE CONTROLS;
#X text 535 577 REVERB;
#X text 479 267 RECEIVE notes_seq from qlist (from txt file);
#X text 889 269 READ WAV;
#X obj 313 36 inlet datas;
#X obj 396 131 s \$0-preset;
#X obj 485 131 s \$0-param0;
#X obj 313 131 s \$0-state;
#X obj 395 99 pipe 1;
#X obj 485 99 pipe 10;
#X obj 585 99 pipe 10;
#X obj 585 131 s \$0-param1;
#X obj 860 43 r \$0-state;
#X obj 861 128 route 0 1;
#X text 55 284 READ MIDI FILE;
#X text 225 356 TEMPO;
#X obj 589 920 outlet~;
#X obj 860 70 valueChanged;
#X obj 880 96 print new param1;
#X obj 1482 302 s \$0-on;
#X obj 860 181 s \$0-off;
#X obj 926 182 s \$0-on;
#X obj 1195 187 s \$0-tempo;
#X obj 56 317 r \$0-loop;
#X obj 143 355 r \$0-tempo;
#X obj 146 443 r \$0-off;
#X obj 287 628 r \$0-loopOn;
#X obj 151 691 s \$0-loop;
#X obj 481 373 s \$0-sampleNum;
#X obj 537 612 r \$0-drywet;
#X obj 792 585 r~ \$0-audio;
#X obj 990 650 r \$0-reverb;
#X obj 949 519 s~ \$0-audio;
#X obj 978 299 r \$0-sampleNum;
#X obj 337 485 r \$0-on;
#X obj 687 99 pipe 10;
#X obj 687 131 s \$0-param2;
#X text 688 161 barometer;
#X text 486 157 joystick x;
#X text 584 157 joystick y;
#X msg 928 418 open bolstick_sounds/bolstick2/Slice\$1.wav;
#X msg 125 518 read bolstick_sounds/sequencebolstick2.txt;
#X obj 1195 39 r \$0-param2;
#X obj 481 306 r notes_seq_bolstick2;
#X obj 503 341 print notes_seq_bolstick2;
#X obj 1024 158 hsl 100 15 0 1 0 0 empty empty empty -2 -8 0 10 -262144
-1 -1 0 1;
#X text 1033 135 REVERB;
#X floatatom 1134 159 5 0 0 0 - - -, f 5;
#X obj 1021 40 r \$0-param1;
#X obj 1022 183 s \$0-reverb;
#X obj 313 66 unpack 0 0 0 0 0;
#X obj 1195 110 m_scale 0 1 0.5 3;
#X text 1206 139 TEMPO 0.5->3;
#X obj 1021 65 spigot 0;
#X obj 1090 65 r \$0-state;
#X obj 27 62 loadbang;
#X msg 27 139 1;
#X msg 117 139 0.5;
#X text 24 23 INIT;
#X msg 207 139 0;
#X msg 100 82 \; pd dsp 1;
#X obj 27 166 s \$0-loopOn;
#X obj 117 166 s \$0-drywet;
#X obj 207 166 s \$0-reverb;
#X obj 1195 65 spigot 0;
#X obj 1264 65 r \$0-state;
#X connect 0 0 69 0;
#X connect 1 0 0 0;
#X connect 2 0 3 0;
#X connect 3 0 1 0;
#X connect 3 1 4 0;
#X connect 4 0 77 0;
#X connect 5 0 2 0;
#X connect 5 1 4 1;
#X connect 6 1 8 0;
#X connect 6 1 14 0;
#X connect 7 0 6 0;
#X connect 11 0 6 0;
#X connect 13 0 6 0;
#X connect 14 0 64 0;
#X connect 15 0 14 1;
#X connect 17 0 24 1;
#X connect 18 0 19 2;
#X connect 19 0 17 0;
#X connect 19 1 17 0;
#X connect 19 2 17 0;
#X connect 19 3 17 0;
#X connect 20 0 18 0;
#X connect 21 0 22 0;
#X connect 22 0 23 0;
#X connect 22 0 24 0;
#X connect 23 0 26 0;
#X connect 24 0 53 0;
#X connect 25 0 53 0;
#X connect 26 0 25 0;
#X connect 27 0 19 0;
#X connect 27 0 19 1;
#X connect 27 0 25 1;
#X connect 28 0 20 0;
#X connect 30 0 21 0;
#X connect 33 0 58 0;
#X connect 34 0 57 0;
#X connect 35 0 36 0;
#X connect 35 0 59 0;
#X connect 41 0 87 0;
#X connect 45 0 42 0;
#X connect 46 0 43 0;
#X connect 47 0 48 0;
#X connect 49 0 54 0;
#X connect 50 0 34 0;
#X connect 50 1 33 0;
#X connect 54 0 55 0;
#X connect 54 0 50 0;
#X connect 60 0 7 0;
#X connect 61 0 13 0;
#X connect 62 0 11 0;
#X connect 63 0 15 0;
#X connect 66 0 30 0;
#X connect 67 0 27 0;
#X connect 68 0 28 0;
#X connect 70 0 5 0;
#X connect 71 0 78 0;
#X connect 72 0 73 0;
#X connect 77 0 0 0;
#X connect 78 0 6 0;
#X connect 78 0 7 0;
#X connect 79 0 101 0;
#X connect 80 0 65 0;
#X connect 82 0 84 0;
#X connect 82 0 86 0;
#X connect 85 0 90 0;
#X connect 87 0 44 0;
#X connect 87 1 45 0;
#X connect 87 2 46 0;
#X connect 87 3 47 0;
#X connect 87 4 72 0;
#X connect 88 0 35 0;
#X connect 90 0 82 0;
#X connect 91 0 90 1;
#X connect 92 0 93 0;
#X connect 92 0 94 0;
#X connect 93 0 98 0;
#X connect 94 0 99 0;
#X connect 96 0 100 0;
#X connect 101 0 88 0;
#X connect 102 0 101 1;
