#N canvas 180 23 1619 938 10;
#X text 908 163 ON;
#X text 843 163 OFF;
#X obj 887 162 bng 15 250 50 0 empty empty empty 17 7 0 10 -262144
-1 -1;
#X obj 821 163 bng 15 250 50 0 empty empty empty 17 7 0 10 -262144
-1 -1;
#X obj 1015 198 hsl 100 15 127 60 0 0 empty empty empty -2 -8 0 10
-262144 -1 -1 0 1;
#X floatatom 1123 199 5 0 0 0 - - -, f 5;
#X obj 1191 199 hsl 100 15 0 50 0 0 empty empty empty -2 -8 0 10 -262144
-1 -1 0 1;
#X floatatom 1301 200 5 0 0 0 - - -, f 5;
#X text 820 19 HARDWARE CONTROLS;
#X text 48 22 INIT;
#X obj 309 36 inlet datas;
#X obj 392 131 s \$0-preset;
#X obj 481 131 s \$0-param0;
#X obj 310 154 s \$0-state;
#X obj 391 99 pipe 1;
#X obj 481 99 pipe 10;
#X obj 570 99 pipe 10;
#X obj 570 131 s \$0-param1;
#X obj 1012 53 r \$0-param0;
#X obj 1188 52 r \$0-param1;
#X obj 822 51 r \$0-state;
#X obj 822 136 route 0 1;
#X obj 821 189 s \$0-off;
#X obj 887 190 s \$0-on;
#X obj 659 99 pipe 10;
#X obj 659 131 s \$0-param2;
#X text 492 157 button0;
#X text 671 157 button2;
#X text 580 157 button1;
#X obj 50 48 loadbang;
#X msg 50 79 \; corail-readfile1 corail.wav \;;
#X obj 1361 199 hsl 100 15 0 1 0 0 empty empty empty -2 -8 0 10 -262144
-1 -1 0 1;
#X floatatom 1471 160 5 0 0 0 - - -, f 5;
#X obj 1012 223 s \$0-lowpass;
#X obj 37 585 /;
#X obj 37 687 *~ 0;
#X obj 37 661 phasor~ 0;
#X obj 37 714 +~ 1;
#X msg 37 558 44100;
#X obj 37 532 t b f;
#X obj 258 333 symbol;
#X obj 257 390 soundfiler;
#X obj 37 618 f;
#X obj 177 577 bng 15 250 50 0 empty empty empty 17 7 0 10 -262144
-1 -1;
#X text 28 245 LOAD SOUNDFILE;
#X floatatom 75 626 5 0 0 0 - - -, f 5;
#X obj 257 418 s \$0-totsamps;
#X obj 37 505 r \$0-totsamps;
#X obj 178 548 r \$0-on;
#X obj 139 615 r \$0-off;
#X obj 80 691 r \$0-totsamps;
#X obj 37 814 s~ \$0-audio;
#N canvas 0 22 450 278 (subpatch) 0;
#X array corail-array1 264600 float 4;
#X coords 0 1 264599 -1 200 140 1 0 0;
#X restore 30 300 graph;
#X obj 258 303 r corail-readfile1;
#X msg 257 362 read -resize \$1 corail-array1;
#X obj 37 753 tabread4~ corail-array1;
#X text 32 474 READ ARRAY;
#X obj 788 415 noise~;
#X obj 575 515 +~;
#X text 832 301 NOISE;
#X obj 788 483 *~;
#X obj 858 397 f;
#X obj 1021 361 bng 15 250 50 0 empty empty empty 17 7 0 10 -262144
-1 -1;
#X obj 576 306 r~ \$0-audio;
#X obj 858 338 r \$0-noiseVal;
#X obj 574 860 outlet~;
#X msg 974 441 0;
#X msg 139 637 0;
#X obj 1358 52 r \$0-param2;
#X obj 309 66 unpack 0 0 0 0 0 0;
#X text 856 506 reduce noise volume;
#X obj 1359 224 s \$0-noiseVal;
#X obj 1014 441 bng 15 250 50 0 empty empty empty 17 7 0 10 -262144
-1 -1;
#X obj 978 337 r \$0-on;
#X floatatom 892 400 5 0 0 0 - - -, f 5;
#X obj 858 484 * 0.05;
#X obj 974 414 r \$0-off;
#X obj 310 101 pipe 15;
#X text 820 630 q;
#X floatatom 799 649 5 0 0 0 - - -, f 5;
#X obj 638 637 hsl 128 15 0 127 0 0 empty empty empty -2 -8 0 10 -262144
-1 -1 12700 1;
#X obj 635 658 mtof~;
#X obj 635 610 r \$0-lowpass;
#X obj 575 688 vcf~ 10;
#X obj 1012 149 m_scale 0 1 127 60;
#X obj 1164 745 pack 0 1000;
#X obj 1164 767 line~;
#X obj 574 832 delread4~ \$0-del_example;
#X obj 575 723 delwrite~ \$0-del_example 1000;
#X floatatom 1164 644 5 0 0 0 - - -, f 5;
#X obj 1301 463 osc~ 1;
#X obj 1301 440 * 0.01;
#X floatatom 1301 421 5 0 0 0 - - -, f 5;
#X obj 1301 510 *~ 1;
#X floatatom 1395 463 5 0 0 0 - - -, f 5;
#X obj 1301 535 snapshot~;
#X obj 1184 505 bng 15 250 50 0 empty empty empty 17 7 0 10 -262144
-1 -1;
#X floatatom 1377 608 5 0 0 0 - - -, f 5;
#X floatatom 1164 723 5 0 0 0 - - -, f 5;
#X obj 1184 482 metro 50;
#X obj 1164 699 +;
#X obj 1377 583 +;
#X obj 1188 149 m_scale 0 1 0 50;
#X text 1023 175 LOWPASS 127 -> 60;
#X text 1200 176 LFO;
#X obj 1189 224 s \$0-lfo;
#X obj 1395 410 r \$0-lfo;
#X text 1253 175 0 -> 50;
#X text 1442 463 depth;
#X obj 887 223 s \$0-bangMetro;
#X text 1391 362 LFO;
#X text 1305 400 speed;
#X text 1160 623 delay time (ms);
#X obj 1184 526 s \$0-bangLFO;
#X obj 1402 438 r \$0-bangLFO;
#X obj 1362 498 r \$0-bangLFO;
#X obj 1192 665 r \$0-bangLFO;
#X text 1370 176 WHITE NOISE 0 -> 1;
#X text 639 585 LOWPASS;
#X text 1095 625 DELAY;
#X obj 1210 409 r \$0-on;
#X msg 1210 432 bang;
#X obj 1140 409 r \$0-off;
#X msg 1140 432 stop;
#X obj 84 138 s \$0-off;
#X obj 1300 331 r \$0-lfo;
#X obj 1300 360 * 16;
#X obj 1012 77 spigot 0;
#X obj 1081 77 r \$0-state;
#X obj 1188 78 spigot 0;
#X obj 1257 78 r \$0-state;
#X obj 1358 77 spigot 0;
#X obj 1427 77 r \$0-state;
#X connect 2 0 23 0;
#X connect 3 0 22 0;
#X connect 4 0 5 0;
#X connect 4 0 33 0;
#X connect 6 0 7 0;
#X connect 6 0 105 0;
#X connect 10 0 69 0;
#X connect 14 0 11 0;
#X connect 15 0 12 0;
#X connect 16 0 17 0;
#X connect 18 0 127 0;
#X connect 19 0 129 0;
#X connect 20 0 21 0;
#X connect 21 0 3 0;
#X connect 21 1 2 0;
#X connect 24 0 25 0;
#X connect 29 0 30 0;
#X connect 29 0 124 0;
#X connect 31 0 32 0;
#X connect 31 0 71 0;
#X connect 34 0 42 1;
#X connect 34 0 42 0;
#X connect 35 0 37 0;
#X connect 36 0 35 0;
#X connect 37 0 55 0;
#X connect 38 0 34 0;
#X connect 39 0 38 0;
#X connect 39 1 34 1;
#X connect 40 0 54 0;
#X connect 41 0 46 0;
#X connect 42 0 36 0;
#X connect 42 0 45 0;
#X connect 43 0 42 0;
#X connect 47 0 39 0;
#X connect 48 0 43 0;
#X connect 49 0 67 0;
#X connect 50 0 35 1;
#X connect 53 0 40 0;
#X connect 54 0 41 0;
#X connect 55 0 51 0;
#X connect 57 0 60 0;
#X connect 58 0 83 0;
#X connect 60 0 58 1;
#X connect 61 0 74 0;
#X connect 61 0 75 0;
#X connect 63 0 58 0;
#X connect 64 0 61 0;
#X connect 64 0 61 1;
#X connect 66 0 75 0;
#X connect 67 0 36 0;
#X connect 68 0 131 0;
#X connect 69 0 77 0;
#X connect 69 1 14 0;
#X connect 69 2 15 0;
#X connect 69 3 16 0;
#X connect 69 4 24 0;
#X connect 73 0 62 0;
#X connect 73 0 61 0;
#X connect 75 0 60 1;
#X connect 76 0 72 0;
#X connect 76 0 66 0;
#X connect 77 0 13 0;
#X connect 79 0 83 2;
#X connect 80 0 81 0;
#X connect 81 0 83 1;
#X connect 82 0 80 0;
#X connect 83 0 88 0;
#X connect 84 0 4 0;
#X connect 85 0 86 0;
#X connect 86 0 87 0;
#X connect 87 0 65 0;
#X connect 89 0 100 0;
#X connect 90 0 93 0;
#X connect 91 0 90 0;
#X connect 92 0 91 0;
#X connect 92 0 99 0;
#X connect 93 0 95 0;
#X connect 94 0 93 1;
#X connect 94 0 101 1;
#X connect 95 0 101 0;
#X connect 96 0 113 0;
#X connect 98 0 85 0;
#X connect 99 0 96 0;
#X connect 100 0 98 0;
#X connect 101 0 97 0;
#X connect 101 0 100 1;
#X connect 102 0 6 0;
#X connect 106 0 94 0;
#X connect 114 0 94 0;
#X connect 115 0 95 0;
#X connect 116 0 100 0;
#X connect 120 0 121 0;
#X connect 121 0 99 0;
#X connect 122 0 123 0;
#X connect 123 0 99 0;
#X connect 125 0 126 0;
#X connect 126 0 92 0;
#X connect 127 0 84 0;
#X connect 128 0 127 1;
#X connect 129 0 102 0;
#X connect 130 0 129 1;
#X connect 131 0 31 0;
#X connect 132 0 131 1;
