#N canvas 59 47 1619 938 10;
#X text 822 235 ON;
#X text 757 235 OFF;
#X obj 801 234 bng 15 250 50 0 empty empty empty 17 7 0 10 -262144
-1 -1;
#X obj 735 235 bng 15 250 50 0 empty empty empty 17 7 0 10 -262144
-1 -1;
#X obj 1175 192 hsl 100 15 127 60 0 0 empty empty empty -2 -8 0 10
-262144 -1 -1 0 1;
#X floatatom 1283 193 5 0 0 0 - - -, f 5;
#X obj 1351 193 hsl 100 15 0 50 0 0 empty empty empty -2 -8 0 10 -262144
-1 -1 0 1;
#X floatatom 1461 194 5 0 0 0 - - -, f 5;
#X text 734 21 HARDWARE CONTROLS;
#X obj 187 32 inlet datas;
#X obj 270 127 s \$0-preset;
#X obj 359 127 s \$0-param0;
#X obj 188 150 s \$0-state;
#X obj 448 127 s \$0-param1;
#X obj 1172 47 r \$0-param0;
#X obj 1348 46 r \$0-param1;
#X obj 736 53 r \$0-state;
#X obj 736 208 route 0 1;
#X obj 735 261 s \$0-off;
#X obj 801 262 s \$0-on;
#X obj 537 127 s \$0-param2;
#X text 370 153 button0;
#X text 549 153 button2;
#X text 458 153 button1;
#X obj 1521 193 hsl 100 15 0 1 0 0 empty empty empty -2 -8 0 10 -262144
-1 -1 0 1;
#X floatatom 1630 193 5 0 0 0 - - -, f 5;
#X obj 1172 217 s \$0-lowpass;
#X obj 651 1000 s~ \$0-audio;
#X obj 656 1209 noise~;
#X obj 443 1309 +~;
#X text 700 1095 NOISE;
#X obj 656 1277 *~;
#X obj 726 1191 f;
#X obj 853 1152 bng 15 250 50 0 empty empty empty 17 7 0 10 -262144
-1 -1;
#X obj 444 1240 r~ \$0-audio;
#X obj 726 1132 r \$0-noiseVal;
#X obj 440 1846 outlet~;
#X msg 842 1235 0;
#X obj 1518 46 r \$0-param2;
#X text 724 1300 reduce noise volume;
#X obj 1519 218 s \$0-noiseVal;
#X obj 883 1234 bng 15 250 50 0 empty empty empty 17 7 0 10 -262144
-1 -1;
#X obj 846 1131 r \$0-on;
#X floatatom 760 1194 5 0 0 0 - - -, f 5;
#X obj 842 1208 r \$0-off;
#X text 622 1419 q;
#X floatatom 601 1438 5 0 0 0 - - -, f 5;
#X obj 441 1422 hsl 128 15 0 127 0 0 empty empty empty -2 -8 0 10 -262144
-1 -1 12700 1;
#X obj 438 1395 r \$0-lowpass;
#X obj 1172 143 m_scale 0 1 127 60;
#X obj 1032 1539 pack 0 1000;
#X obj 1032 1561 line~;
#X obj 442 1603 delread4~ \$0-del_example;
#X obj 443 1517 delwrite~ \$0-del_example 1000;
#X floatatom 1032 1438 5 0 0 0 - - -, f 5;
#X obj 1169 1257 osc~ 1;
#X obj 1169 1234 * 0.01;
#X floatatom 1169 1215 5 0 0 0 - - -, f 5;
#X obj 1169 1304 *~ 1;
#X floatatom 1263 1257 5 0 0 0 - - -, f 5;
#X obj 1169 1329 snapshot~;
#X obj 1052 1299 bng 15 250 50 0 empty empty empty 17 7 0 10 -262144
-1 -1;
#X floatatom 1245 1402 5 0 0 0 - - -, f 5;
#X floatatom 1032 1517 5 0 0 0 - - -, f 5;
#X obj 1052 1276 metro 50;
#X obj 1032 1493 +;
#X obj 1245 1377 +;
#X obj 1348 143 m_scale 0 1 0 50;
#X text 1183 169 LOWPASS 127 -> 60;
#X text 1360 170 LFO;
#X obj 1349 218 s \$0-lfo;
#X obj 1263 1204 r \$0-lfo;
#X text 1413 169 0 -> 50;
#X text 1310 1257 depth;
#X text 1259 1156 LFO;
#X text 1173 1194 speed;
#X text 1028 1417 delay time (ms);
#X obj 1052 1320 s \$0-bangLFO;
#X obj 1270 1232 r \$0-bangLFO;
#X obj 1230 1292 r \$0-bangLFO;
#X obj 1060 1459 r \$0-bangLFO;
#X text 1530 170 WHITE NOISE 0 -> 1;
#X text 442 1370 LOWPASS;
#X text 963 1419 DELAY;
#X obj 1078 1203 r \$0-on;
#X msg 1078 1226 bang;
#X obj 1008 1203 r \$0-off;
#X msg 1008 1226 stop;
#X obj 1168 1125 r \$0-lfo;
#X obj 1168 1154 * 16;
#X obj 1172 71 spigot 0;
#X obj 1241 71 r \$0-state;
#X obj 1348 72 spigot 0;
#X obj 1417 72 r \$0-state;
#X obj 1518 71 spigot 0;
#X obj 1584 71 r \$0-state;
#X obj 651 950 VI-wavePlayer-mono;
#X obj 35 456 bng 15 250 50 0 empty empty empty 17 7 0 10 -262144 -1
-1;
#X obj 176 456 bng 15 250 50 0 empty empty empty 17 7 0 10 -262144
-1 -1;
#X obj 99 383 f;
#X obj 99 338 r \$0-on;
#X obj 197 362 s \$0-off;
#X obj 165 332 t f b;
#X obj 166 288 r \$0-newPreset;
#X obj 55 478 s \$0-preset0;
#X obj 195 478 s \$0-preset1;
#X msg 195 455 1;
#X obj 296 456 bng 15 250 50 0 empty empty empty 17 7 0 10 -262144
-1 -1;
#X obj 315 478 s \$0-preset2;
#X msg 315 455 2;
#X text 42 277 PRESET GESTION;
#X text 158 584 PRESET 0;
#X text 451 580 PRESET 1;
#X text 1091 572 PRESET 3;
#X obj 419 456 bng 15 250 50 0 empty empty empty 17 7 0 10 -262144
-1 -1;
#X msg 438 455 3;
#X obj 438 478 s \$0-preset3;
#X obj 165 410 route 0 1 2 3 4;
#X obj 559 456 bng 15 250 50 0 empty empty empty 17 7 0 10 -262144
-1 -1;
#X msg 578 455 4;
#X obj 578 478 s \$0-preset4;
#X msg 55 455 0;
#X text 763 581 PRESET 2;
#X text 1489 579 PRESET 4;
#X obj 931 88 valueChanged;
#X obj 931 61 r \$0-preset;
#X obj 951 114 print new preset;
#X obj 931 199 s \$0-newPreset;
#X obj 448 661 spigot 1;
#X obj 323 628 r \$0-off;
#X msg 663 872 1;
#X text 18 25 INIT;
#X obj 18 53 loadbang;
#X obj 17 129 s \$0-lowpass;
#X msg 17 101 127;
#X obj 736 80 valueChanged;
#X obj 756 106 print new state;
#X obj 672 156 s \$0-innerState;
#X obj 187 62 unpack 0 0 0 0 0;
#X obj 269 105 pipe 2;
#X obj 359 105 pipe 5;
#X obj 448 105 pipe 5;
#X obj 537 105 pipe 5;
#X obj 747 651 spigot 1;
#X obj 1054 648 spigot 1;
#X obj 366 1476 e_lop2 1000 2;
#X obj 410 1447 mtof;
#X obj 514 661 r \$0-state;
#X obj 815 652 r \$0-state;
#X obj 1120 648 r \$0-state;
#X obj 552 1791 *~;
#X obj 673 1703 hsl 50 15 0 1 0 0 empty empty empty -2 -8 0 10 -262144
-1 -1 0 1;
#X floatatom 668 1724 5 0 0 0 - - -, f 5;
#X obj 767 1698 hsl 50 15 0 1 0 0 empty empty empty -2 -8 0 10 -262144
-1 -1 0 1;
#X floatatom 764 1719 5 0 0 0 - - -, f 5;
#X obj 864 1698 hsl 50 15 0 1 0 0 empty empty empty -2 -8 0 10 -262144
-1 -1 0 1;
#X floatatom 861 1719 5 0 0 0 - - -, f 5;
#X obj 704 1673 bng 15 250 50 0 empty empty empty 17 7 0 10 -262144
-1 -1;
#X obj 799 1673 bng 15 250 50 0 empty empty empty 17 7 0 10 -262144
-1 -1;
#X obj 899 1676 bng 15 250 50 0 empty empty empty 17 7 0 10 -262144
-1 -1;
#X msg 641 1674 0.408;
#X msg 737 1674 0.244;
#X msg 834 1674 0.489;
#X obj 974 1698 hsl 50 15 0 1 0 0 empty empty empty -2 -8 0 10 -262144
-1 -1 0 1;
#X floatatom 971 1719 5 0 0 0 - - -, f 5;
#X obj 1009 1676 bng 15 250 50 0 empty empty empty 17 7 0 10 -262144
-1 -1;
#X msg 944 1674 0;
#X obj 448 627 r \$0-preset1;
#X obj 747 617 r \$0-preset2;
#X obj 1054 614 r \$0-preset3;
#X obj 641 1647 r \$0-preset1;
#X obj 737 1647 r \$0-preset2;
#X obj 834 1647 r \$0-preset3;
#X obj 944 1647 r \$0-preset4;
#X obj 574 1698 hsl 50 15 0 1 0 0 empty empty empty -2 -8 0 10 -262144
-1 -1 0 1;
#X floatatom 571 1719 5 0 0 0 - - -, f 5;
#X msg 544 1674 0;
#X obj 544 1647 r \$0-preset0;
#X obj 726 1278 * 0.03;
#X msg 747 681 hot_tropics/temoin.wav;
#X msg 1054 674 corail.wav;
#X msg 477 688 corail_pad_1_121bpm.wav;
#X connect 2 0 19 0;
#X connect 3 0 18 0;
#X connect 4 0 5 0;
#X connect 4 0 26 0;
#X connect 6 0 7 0;
#X connect 6 0 70 0;
#X connect 9 0 138 0;
#X connect 14 0 90 0;
#X connect 15 0 92 0;
#X connect 16 0 135 0;
#X connect 17 0 3 0;
#X connect 17 1 2 0;
#X connect 24 0 25 0;
#X connect 24 0 40 0;
#X connect 28 0 31 0;
#X connect 29 0 145 0;
#X connect 31 0 29 1;
#X connect 32 0 43 0;
#X connect 32 0 178 0;
#X connect 34 0 29 0;
#X connect 35 0 32 0;
#X connect 35 0 32 1;
#X connect 37 0 178 0;
#X connect 38 0 94 0;
#X connect 42 0 33 0;
#X connect 42 0 32 0;
#X connect 44 0 41 0;
#X connect 44 0 37 0;
#X connect 46 0 145 2;
#X connect 47 0 146 0;
#X connect 48 0 47 0;
#X connect 49 0 4 0;
#X connect 50 0 51 0;
#X connect 51 0 52 0;
#X connect 52 0 150 0;
#X connect 54 0 65 0;
#X connect 55 0 58 0;
#X connect 56 0 55 0;
#X connect 57 0 56 0;
#X connect 57 0 64 0;
#X connect 58 0 60 0;
#X connect 59 0 58 1;
#X connect 59 0 66 1;
#X connect 60 0 66 0;
#X connect 61 0 77 0;
#X connect 63 0 50 0;
#X connect 64 0 61 0;
#X connect 65 0 63 0;
#X connect 66 0 62 0;
#X connect 66 0 65 1;
#X connect 67 0 6 0;
#X connect 71 0 59 0;
#X connect 78 0 59 0;
#X connect 79 0 60 0;
#X connect 80 0 65 0;
#X connect 84 0 85 0;
#X connect 85 0 64 0;
#X connect 86 0 87 0;
#X connect 87 0 64 0;
#X connect 88 0 89 0;
#X connect 89 0 57 0;
#X connect 90 0 49 0;
#X connect 91 0 90 1;
#X connect 92 0 67 0;
#X connect 93 0 92 1;
#X connect 94 0 24 0;
#X connect 95 0 94 1;
#X connect 96 0 27 0;
#X connect 99 0 117 0;
#X connect 100 0 99 0;
#X connect 102 0 117 0;
#X connect 102 1 101 0;
#X connect 103 0 99 1;
#X connect 103 0 102 0;
#X connect 106 0 105 0;
#X connect 106 0 98 0;
#X connect 109 0 107 0;
#X connect 109 0 108 0;
#X connect 115 0 114 0;
#X connect 115 0 116 0;
#X connect 117 0 121 0;
#X connect 117 1 106 0;
#X connect 117 2 109 0;
#X connect 117 3 115 0;
#X connect 117 5 119 0;
#X connect 119 0 118 0;
#X connect 119 0 120 0;
#X connect 121 0 104 0;
#X connect 121 0 97 0;
#X connect 124 0 127 0;
#X connect 125 0 124 0;
#X connect 128 0 130 0;
#X connect 128 0 181 0;
#X connect 129 0 96 0;
#X connect 130 0 96 0;
#X connect 132 0 134 0;
#X connect 134 0 133 0;
#X connect 135 0 137 0;
#X connect 135 0 17 0;
#X connect 138 0 12 0;
#X connect 138 1 139 0;
#X connect 138 2 140 0;
#X connect 138 3 141 0;
#X connect 138 4 142 0;
#X connect 139 0 10 0;
#X connect 140 0 11 0;
#X connect 141 0 13 0;
#X connect 142 0 20 0;
#X connect 143 0 130 0;
#X connect 143 0 179 0;
#X connect 144 0 130 0;
#X connect 144 0 180 0;
#X connect 145 0 53 0;
#X connect 146 0 145 1;
#X connect 147 0 128 1;
#X connect 148 0 143 1;
#X connect 149 0 144 1;
#X connect 150 0 36 0;
#X connect 151 0 152 0;
#X connect 153 0 154 0;
#X connect 155 0 156 0;
#X connect 157 0 151 0;
#X connect 158 0 153 0;
#X connect 159 0 155 0;
#X connect 160 0 150 1;
#X connect 161 0 150 1;
#X connect 162 0 150 1;
#X connect 163 0 164 0;
#X connect 165 0 163 0;
#X connect 166 0 150 1;
#X connect 167 0 128 0;
#X connect 168 0 143 0;
#X connect 169 0 144 0;
#X connect 170 0 160 0;
#X connect 170 0 157 0;
#X connect 171 0 161 0;
#X connect 171 0 158 0;
#X connect 172 0 162 0;
#X connect 172 0 159 0;
#X connect 173 0 166 0;
#X connect 173 0 165 0;
#X connect 174 0 175 0;
#X connect 176 0 150 1;
#X connect 177 0 176 0;
#X connect 178 0 31 1;
#X connect 179 0 96 1;
#X connect 180 0 96 1;
#X connect 181 0 96 1;
