#N canvas 147 70 1532 921 10;
#X text 706 155 ON;
#X text 641 155 OFF;
#X obj 685 154 bng 15 250 50 0 empty empty empty 17 7 0 10 -262144
-1 -1;
#X obj 620 155 bng 15 250 50 0 empty empty empty 17 7 0 10 -262144
-1 -1;
#X text 618 11 HARDWARE CONTROLS;
#X obj 53 25 inlet datas;
#X obj 136 131 s \$0-preset;
#X obj 225 136 s \$0-param0;
#X obj 53 131 s \$0-state;
#X obj 325 136 s \$0-param1;
#X text 233 162 x position;
#X text 333 162 y position;
#X obj 620 43 r \$0-state;
#X obj 620 128 route 0 1;
#X obj 507 1285 outlet~;
#X obj 620 70 valueChanged;
#X obj 620 181 s \$0-off;
#X obj 685 182 s \$0-on;
#X floatatom 1191 100 5 0 0 0 - - -, f 5;
#X obj 1169 43 r \$0-param1;
#X obj 52 409 bng 15 250 50 0 empty empty empty 17 7 0 10 -262144 -1
-1;
#X obj 193 409 bng 15 250 50 0 empty empty empty 17 7 0 10 -262144
-1 -1;
#X obj 1169 70 spigot 0;
#X obj 1238 70 r \$0-state;
#X obj 640 96 print new state;
#X obj 116 336 f;
#X obj 116 291 r \$0-on;
#X obj 604 576 r \$0-state;
#X obj 538 576 spigot 1;
#X obj 469 543 r \$0-off;
#X obj 214 315 s \$0-off;
#X obj 549 731 bng 15 250 50 0 empty empty empty 17 7 0 10 -262144
-1 -1;
#X obj 987 72 spigot 0;
#X obj 1056 72 r \$0-state;
#X floatatom 1011 100 5 0 0 0 - - -, f 5;
#X obj 182 285 t f b;
#X obj 810 70 valueChanged;
#X obj 810 43 r \$0-preset;
#X obj 830 96 print new preset;
#X obj 810 181 s \$0-newPreset;
#X obj 183 241 r \$0-newPreset;
#X obj 72 431 s \$0-preset0;
#X obj 212 431 s \$0-preset1;
#X msg 212 408 1;
#X obj 313 409 bng 15 250 50 0 empty empty empty 17 7 0 10 -262144
-1 -1;
#X obj 332 431 s \$0-preset2;
#X msg 332 408 2;
#X text 59 230 PRESET GESTION;
#X text 74 493 PRESET 0;
#X text 470 498 PRESET 1;
#X msg 484 585 1;
#X obj 468 926 FX-reverb;
#X text 551 928 reverb;
#X text 616 624 sequencer;
#X text 1293 501 PRESET 3;
#X obj 436 409 bng 15 250 50 0 empty empty empty 17 7 0 10 -262144
-1 -1;
#X msg 455 408 3;
#X obj 455 431 s \$0-preset3;
#X obj 987 46 r \$0-param0;
#X obj 987 180 s \$0-param0OK;
#X text 673 731 tempo;
#X obj 1169 183 s \$0-param1OK;
#X obj 1843 562 r \$0-state;
#X obj 1776 562 spigot 1;
#X obj 1702 536 r \$0-off;
#X msg 1731 582 1;
#X obj 1827 701 bng 15 250 50 0 empty empty empty 17 7 0 10 -262144
-1 -1;
#X text 1944 702 tempo;
#X text 1768 949 pitch;
#X obj 1702 951 FX-pitch;
#X obj 494 628 loadbang;
#X msg 512 659 symbol grelot_sounds/tabla/;
#X msg 554 680 symbol tabla0;
#X obj 563 628 t s s;
#X obj 1729 610 loadbang;
#X obj 1798 610 t s s;
#X msg 1756 641 symbol grelot_sounds/;
#X msg 1797 662 symbol grelot1;
#X text 593 842 wav sequencer;
#X text 1862 764 notes sequencer;
#X obj 182 363 route 0 1 2 3 4;
#X obj 576 409 bng 15 250 50 0 empty empty empty 17 7 0 10 -262144
-1 -1;
#X msg 595 408 4;
#X obj 595 431 s \$0-preset4;
#X msg 72 408 0;
#X obj 1702 1066 u_makepoly 8 1 s_rhodey \$0-piano;
#X text 882 496 PRESET 2;
#X obj 1731 1100 loadbang;
#X obj 1702 1171 *~;
#X text 103 49 number;
#X text 1688 492 PRESET 4;
#X obj 484 123 s \$0-innerState;
#X obj 1702 767 SEQ-midiNotesSequence;
#X obj 570 800 -;
#X floatatom 602 802 5 0 0 0 - - -, f 5;
#X msg 570 779 1;
#X obj 135 99 pipe 5;
#X obj 225 104 pipe 10;
#X obj 325 104 pipe 10;
#X obj 1846 735 * 2;
#X obj 570 730 r \$0-param1OK;
#X obj 498 903 r \$0-param0OK;
#X obj 1846 700 r \$0-param1OK;
#X obj 1755 848 r \$0-param0OK;
#X obj 1420 560 r \$0-state;
#X obj 1287 533 r \$0-off;
#X obj 1371 738 bng 15 250 50 0 empty empty empty 17 7 0 10 -262144
-1 -1;
#X obj 1354 560 spigot 1;
#X msg 1302 571 1;
#X text 1468 607 sequencer;
#X text 1494 738 tempo;
#X obj 1311 611 loadbang;
#X msg 1376 658 symbol mouth0;
#X obj 1377 609 t s s;
#X text 1434 686 wav sequencer;
#X obj 1290 1008 *~;
#X obj 1309 952 loadbang;
#X text 1405 971 set volume;
#X obj 1290 785 SEQ-wavSequence;
#X msg 1333 636 symbol grelot_sounds/mouth/;
#X obj 1392 737 r \$0-param1OK;
#X obj 1755 894 i;
#X obj 1755 871 * 10;
#X obj 1755 917 / 10;
#X obj 468 839 SEQ-wavSequence;
#X obj 1290 900 e_pitchshift;
#X msg 1457 857 pitch \$1;
#X floatatom 1496 812 5 0 0 0 - - -, f 5;
#X obj 1397 920 *~ 0.5;
#X text 1523 857 Pitch Shift;
#X obj 1437 789 bng 15 250 50 0 empty empty empty 17 7 0 10 -262144
-1 -1;
#X obj 1457 790 r \$0-param0OK;
#X obj 1457 836 i;
#X obj 1457 812 * 12;
#X obj 53 66 unpack 0 0 0 0 0;
#X obj 570 756 t b f;
#X obj 1761 1156 hsl 50 15 0 1 0 0 empty empty empty -2 -8 0 10 -262144
-1 -1 98 1;
#X floatatom 1758 1177 5 0 0 0 - - -, f 5;
#X obj 1350 996 hsl 50 15 0 1 0 0 empty empty empty -2 -8 0 10 -262144
-1 -1 1398 1;
#X floatatom 1347 1017 5 0 0 0 - - -, f 5;
#X obj 498 983 loadbang;
#X obj 469 1054 *~;
#X obj 528 1039 hsl 50 15 0 1 0 0 empty empty empty -2 -8 0 10 -262144
-1 -1 4900 1;
#X floatatom 525 1060 5 0 0 0 - - -, f 5;
#X msg 498 1010 1;
#X msg 1731 1127 0.02;
#X obj 1004 576 r \$0-state;
#X obj 938 576 spigot 1;
#X obj 869 543 r \$0-off;
#X msg 884 585 1;
#X obj 868 839 VI-drumelectro;
#X obj 894 764 bng 15 250 50 0 empty empty empty 17 7 0 10 -262144
-1 -1;
#X obj 915 763 r \$0-param1OK;
#X text 1017 764 seq repeat;
#X obj 942 804 bng 15 250 50 0 empty empty empty 17 7 0 10 -262144
-1 -1;
#X obj 963 803 r \$0-param0OK;
#X text 1065 804 pitch;
#X obj 899 1005 loadbang;
#X obj 870 1076 *~;
#X obj 929 1061 hsl 50 15 0 1 0 0 empty empty empty -2 -8 0 10 -262144
-1 -1 1000 1;
#X floatatom 926 1082 5 0 0 0 - - -, f 5;
#X obj 538 542 r \$0-preset1;
#X obj 938 542 r \$0-preset2;
#X obj 1354 533 r \$0-preset3;
#X obj 1776 537 r \$0-preset4;
#X obj 1290 1097 FX-reverb;
#X text 1362 1098 reverb;
#X obj 1300 1064 bng 15 250 50 0 empty empty empty 17 7 0 10 -262144
-1 -1;
#X obj 1320 1065 r \$0-param0OK;
#X obj 870 956 /~ 2;
#X msg 1309 975 0.285;
#X msg 899 1032 0.204;
#X connect 2 0 17 0;
#X connect 3 0 16 0;
#X connect 5 0 134 0;
#X connect 12 0 15 0;
#X connect 13 0 3 0;
#X connect 13 1 2 0;
#X connect 15 0 13 0;
#X connect 15 0 91 0;
#X connect 19 0 22 0;
#X connect 22 0 18 0;
#X connect 22 0 61 0;
#X connect 23 0 22 1;
#X connect 25 0 80 0;
#X connect 26 0 25 0;
#X connect 27 0 28 1;
#X connect 28 0 50 0;
#X connect 29 0 124 0;
#X connect 32 0 34 0;
#X connect 32 0 59 0;
#X connect 33 0 32 1;
#X connect 35 0 80 0;
#X connect 35 1 30 0;
#X connect 36 0 39 0;
#X connect 37 0 36 0;
#X connect 40 0 25 1;
#X connect 40 0 35 0;
#X connect 43 0 42 0;
#X connect 43 0 21 0;
#X connect 46 0 44 0;
#X connect 46 0 45 0;
#X connect 50 0 124 0;
#X connect 51 0 141 0;
#X connect 56 0 55 0;
#X connect 56 0 57 0;
#X connect 58 0 32 0;
#X connect 62 0 63 1;
#X connect 63 0 65 0;
#X connect 65 0 92 0;
#X connect 69 0 85 0;
#X connect 70 0 73 0;
#X connect 71 0 124 1;
#X connect 72 0 124 2;
#X connect 73 0 72 0;
#X connect 73 1 71 0;
#X connect 74 0 75 0;
#X connect 75 0 77 0;
#X connect 75 1 76 0;
#X connect 80 0 84 0;
#X connect 80 1 43 0;
#X connect 80 2 46 0;
#X connect 80 3 56 0;
#X connect 80 5 82 0;
#X connect 82 0 81 0;
#X connect 82 0 83 0;
#X connect 84 0 41 0;
#X connect 84 0 20 0;
#X connect 85 0 88 0;
#X connect 87 0 145 0;
#X connect 92 0 69 0;
#X connect 93 0 94 0;
#X connect 93 0 124 3;
#X connect 95 0 93 0;
#X connect 96 0 6 0;
#X connect 97 0 7 0;
#X connect 98 0 9 0;
#X connect 99 0 92 3;
#X connect 100 0 31 0;
#X connect 100 0 135 0;
#X connect 101 0 51 1;
#X connect 102 0 66 0;
#X connect 103 0 122 0;
#X connect 104 0 107 1;
#X connect 105 0 118 0;
#X connect 107 0 108 0;
#X connect 108 0 118 0;
#X connect 111 0 113 0;
#X connect 112 0 118 2;
#X connect 113 0 112 0;
#X connect 113 1 119 0;
#X connect 115 0 14 0;
#X connect 116 0 170 0;
#X connect 118 0 125 0;
#X connect 119 0 118 1;
#X connect 120 0 106 0;
#X connect 120 0 118 3;
#X connect 121 0 123 0;
#X connect 122 0 121 0;
#X connect 123 0 69 1;
#X connect 124 0 51 0;
#X connect 125 0 115 0;
#X connect 126 0 125 1;
#X connect 131 0 130 0;
#X connect 131 0 133 0;
#X connect 132 0 126 0;
#X connect 133 0 127 0;
#X connect 133 0 132 0;
#X connect 134 0 8 0;
#X connect 134 1 96 0;
#X connect 134 2 97 0;
#X connect 134 3 98 0;
#X connect 135 0 95 0;
#X connect 135 1 93 1;
#X connect 136 0 137 0;
#X connect 137 0 88 1;
#X connect 138 0 139 0;
#X connect 139 0 115 1;
#X connect 140 0 144 0;
#X connect 141 0 14 0;
#X connect 142 0 143 0;
#X connect 143 0 141 1;
#X connect 144 0 141 1;
#X connect 144 0 142 0;
#X connect 145 0 88 1;
#X connect 145 0 136 0;
#X connect 146 0 147 1;
#X connect 147 0 149 0;
#X connect 148 0 150 0;
#X connect 149 0 150 0;
#X connect 150 0 169 0;
#X connect 152 0 151 0;
#X connect 152 0 150 1;
#X connect 155 0 154 0;
#X connect 155 0 150 2;
#X connect 157 0 171 0;
#X connect 158 0 14 0;
#X connect 159 0 160 0;
#X connect 160 0 158 1;
#X connect 161 0 28 0;
#X connect 162 0 147 0;
#X connect 163 0 107 0;
#X connect 168 0 167 0;
#X connect 169 0 158 0;
#X connect 170 0 115 1;
#X connect 170 0 138 0;
#X connect 171 0 158 1;
#X connect 171 0 159 0;
