#N canvas 416 23 1264 836 10;
#X text 666 155 ON;
#X text 601 155 OFF;
#X obj 645 154 bng 15 250 50 0 empty empty empty 17 7 0 10 -262144
-1 -1;
#X obj 580 155 bng 15 250 50 0 empty empty empty 17 7 0 10 -262144
-1 -1;
#X text 578 11 HARDWARE CONTROLS;
#X obj 53 36 inlet datas;
#X obj 136 131 s \$0-preset;
#X obj 225 131 s \$0-param0;
#X obj 53 131 s \$0-state;
#X obj 325 131 s \$0-param1;
#X text 233 157 x position;
#X text 333 157 y position;
#X obj 580 43 r \$0-state;
#X obj 580 128 route 0 1;
#X obj 351 774 outlet~;
#X obj 580 70 valueChanged;
#X obj 580 181 s \$0-off;
#X obj 645 182 s \$0-on;
#X obj 53 66 unpack 0 0 0 0;
#X obj 207 561 r \$0-reverb;
#X floatatom 1114 118 5 0 0 0 - - -, f 5;
#X obj 816 65 r \$0-param0;
#X obj 1092 44 r \$0-param1;
#X obj 1092 144 s \$0-reverb;
#X text 329 212 preset;
#X obj 322 343 route 0 1;
#X obj 708 645 ChordsRoll_main2;
#X obj 282 354 bng 15 250 50 0 empty empty empty 17 7 0 10 -262144
-1 -1;
#X obj 403 371 bng 15 250 50 0 empty empty empty 17 7 0 10 -262144
-1 -1;
#X obj 322 236 r \$0-preset;
#X obj 1004 529 pack 0.5 0.5 0.5 0.5 0;
#X obj 64 585 VI-readWavSequence;
#X obj 413 581 VI-readMidiSequence;
#X obj 1092 71 spigot 0;
#X obj 1161 71 r \$0-state;
#X obj 600 96 print new state;
#X obj 384 260 print preset;
#X msg 486 505 1;
#X msg 448 506 0;
#X obj 556 526 r \$0-state;
#X obj 487 526 spigot 1;
#X obj 251 286 f;
#X obj 203 260 bng 15 250 50 0 empty empty empty 17 7 0 10 -262144
-1 -1;
#X obj 203 237 r \$0-on;
#X msg 142 496 1;
#X msg 104 497 0;
#X obj 208 518 r \$0-state;
#X obj 142 518 spigot 1;
#X obj 879 472 r \$0-reverb;
#X obj 879 567 spigot;
#X obj 918 546 tgl 15 0 empty empty empty 17 7 0 10 -262144 -1 -1 1
1;
#X msg 961 525 0;
#X msg 680 497 1;
#X msg 713 497 0;
#X obj 658 539 spigot 0;
#X obj 710 518 tgl 15 0 empty empty empty 17 7 0 10 -262144 -1 -1 1
1;
#X obj 66 467 r \$0-off;
#X obj 413 472 r \$0-off;
#X obj 434 300 s \$0-off;
#X obj 135 99 pipe 10;
#X obj 225 99 pipe 20;
#X obj 325 99 pipe 20;
#X obj 105 562 bng 15 250 50 0 empty empty empty 17 7 0 10 -262144
-1 -1;
#X obj 126 561 r \$0-tempo;
#X obj 658 474 r \$0-tempo;
#X obj 816 143 s \$0-tempo;
#X obj 816 91 spigot 0;
#X obj 885 91 r \$0-state;
#X floatatom 840 119 5 0 0 0 - - -, f 5;
#X msg 901 525 1;
#X obj 865 695 makenote;
#X obj 865 721 mtof;
#X obj 865 744 osc~;
#X obj 865 768 *~;
#X obj 921 751 tgl 15 0 empty empty empty 17 7 0 10 -262144 -1 -1 0
1;
#X text 874 673 test;
#X text 920 732 on/off;
#X connect 2 0 17 0;
#X connect 3 0 16 0;
#X connect 5 0 18 0;
#X connect 12 0 15 0;
#X connect 13 0 3 0;
#X connect 13 1 2 0;
#X connect 15 0 13 0;
#X connect 15 0 35 0;
#X connect 18 0 8 0;
#X connect 18 1 59 0;
#X connect 18 2 60 0;
#X connect 18 3 61 0;
#X connect 19 0 31 2;
#X connect 21 0 66 0;
#X connect 22 0 33 0;
#X connect 25 0 27 0;
#X connect 25 0 38 0;
#X connect 25 0 44 0;
#X connect 25 0 53 0;
#X connect 25 0 51 0;
#X connect 25 1 28 0;
#X connect 25 1 37 0;
#X connect 25 1 45 0;
#X connect 25 1 52 0;
#X connect 25 1 69 0;
#X connect 26 0 14 0;
#X connect 28 0 30 0;
#X connect 29 0 36 0;
#X connect 29 0 41 1;
#X connect 29 0 25 0;
#X connect 30 0 26 1;
#X connect 31 0 14 0;
#X connect 32 0 26 0;
#X connect 33 0 23 0;
#X connect 33 0 20 0;
#X connect 34 0 33 1;
#X connect 37 0 40 0;
#X connect 38 0 32 0;
#X connect 39 0 40 1;
#X connect 40 0 32 0;
#X connect 41 0 25 0;
#X connect 42 0 41 0;
#X connect 43 0 42 0;
#X connect 44 0 47 0;
#X connect 45 0 31 0;
#X connect 46 0 47 1;
#X connect 47 0 31 0;
#X connect 48 0 49 0;
#X connect 49 0 32 2;
#X connect 50 0 49 1;
#X connect 51 0 50 0;
#X connect 52 0 55 0;
#X connect 53 0 55 0;
#X connect 54 0 32 1;
#X connect 55 0 54 1;
#X connect 56 0 31 0;
#X connect 57 0 32 0;
#X connect 59 0 6 0;
#X connect 60 0 7 0;
#X connect 61 0 9 0;
#X connect 63 0 31 1;
#X connect 63 0 62 0;
#X connect 64 0 54 0;
#X connect 66 0 65 0;
#X connect 66 0 68 0;
#X connect 67 0 66 1;
#X connect 69 0 50 0;
#X connect 70 0 71 0;
#X connect 70 1 71 0;
#X connect 71 0 72 0;
#X connect 72 0 73 0;
#X connect 73 0 14 0;
#X connect 74 0 73 1;
