#N canvas 103 23 1532 921 10;
#X text 556 155 ON;
#X text 491 155 OFF;
#X obj 535 154 bng 15 250 50 0 empty empty empty 17 7 0 10 -262144
-1 -1;
#X obj 470 155 bng 15 250 50 0 empty empty empty 17 7 0 10 -262144
-1 -1;
#X text 468 11 HARDWARE CONTROLS;
#X obj 53 36 inlet datas;
#X obj 136 131 s \$0-preset;
#X obj 225 131 s \$0-param0;
#X obj 53 131 s \$0-state;
#X obj 325 131 s \$0-param1;
#X text 233 157 x position;
#X text 333 157 y position;
#X obj 470 43 r \$0-state;
#X obj 470 128 route 0 1;
#X obj 516 1249 outlet~;
#X obj 470 70 valueChanged;
#X obj 470 181 s \$0-off;
#X obj 535 182 s \$0-on;
#X obj 53 66 unpack 0 0 0 0;
#X floatatom 1121 100 5 0 0 0 - - -, f 5;
#X obj 1099 43 r \$0-param1;
#X obj 1578 565 ChordsRoll_main2;
#X obj 52 409 bng 15 250 50 0 empty empty empty 17 7 0 10 -262144 -1
-1;
#X obj 193 409 bng 15 250 50 0 empty empty empty 17 7 0 10 -262144
-1 -1;
#X obj 1099 70 spigot 0;
#X obj 1168 70 r \$0-state;
#X obj 490 96 print new state;
#X obj 604 582 r \$0-state;
#X obj 537 582 spigot 1;
#X obj 116 336 f;
#X obj 116 291 r \$0-on;
#X obj 199 576 r \$0-state;
#X obj 133 576 spigot 1;
#X obj 64 543 r \$0-off;
#X obj 463 546 r \$0-off;
#X obj 214 315 s \$0-off;
#X obj 135 99 pipe 10;
#X obj 225 99 pipe 20;
#X obj 325 99 pipe 20;
#X obj 134 601 bng 15 250 50 0 empty empty empty 17 7 0 10 -262144
-1 -1;
#X obj 887 72 spigot 0;
#X obj 956 72 r \$0-state;
#X floatatom 911 100 5 0 0 0 - - -, f 5;
#X obj 463 928 *~;
#X obj 1579 534 pack 0.5 0.5 0.2 0.5 0;
#X obj 182 285 t f b;
#X obj 660 70 valueChanged;
#X obj 660 43 r \$0-preset;
#X obj 680 96 print new preset;
#X obj 660 181 s \$0-newPreset;
#X obj 183 241 r \$0-newPreset;
#X obj 133 542 r \$0-preset0;
#X obj 72 431 s \$0-preset0;
#X obj 212 431 s \$0-preset1;
#X obj 537 547 r \$0-preset1;
#X msg 212 408 1;
#X obj 935 574 r \$0-state;
#X obj 801 547 r \$0-off;
#X obj 882 601 bng 15 250 50 0 empty empty empty 17 7 0 10 -262144
-1 -1;
#X obj 869 547 r \$0-preset2;
#X obj 869 574 spigot 1;
#X obj 313 409 bng 15 250 50 0 empty empty empty 17 7 0 10 -262144
-1 -1;
#X obj 332 431 s \$0-preset2;
#X msg 332 408 2;
#X text 59 230 PRESET GESTION;
#X text 74 493 PRESET 0;
#X text 470 498 PRESET 1;
#X text 863 497 PRESET 2;
#X msg 817 585 1;
#X msg 79 585 1;
#X msg 492 602 1;
#X obj 463 823 VI-simpleOsc;
#X obj 533 605 bng 15 250 50 0 empty empty empty 17 7 0 10 -262144
-1 -1;
#X obj 63 708 SEQ-readWavSequence;
#X obj 517 1123 FX-reverb;
#X obj 503 754 r \$0-preset1;
#X obj 570 778 r \$0-state;
#X obj 503 778 spigot 1;
#X msg 482 895 0.1;
#X obj 482 872 loadbang;
#X text 519 897 set volume;
#X obj 544 801 r \$0-off;
#X text 600 1125 reverb;
#X text 560 824 instrument;
#X text 211 624 sequencer;
#X text 983 621 sequencer;
#X text 1207 497 PRESET 3;
#X obj 436 409 bng 15 250 50 0 empty empty empty 17 7 0 10 -262144
-1 -1;
#X msg 455 408 3;
#X obj 455 431 s \$0-preset3;
#X obj 887 46 r \$0-param0;
#X obj 887 180 s \$0-param0OK;
#X obj 155 600 r \$0-param0OK;
#X text 260 601 tempo;
#X obj 562 604 r \$0-param0OK;
#X text 660 606 tempo;
#X obj 903 600 r \$0-param0OK;
#X text 1005 601 tempo;
#X obj 1099 183 s \$0-param1OK;
#X obj 547 1100 r \$0-param1OK;
#X obj 1347 576 r \$0-state;
#X obj 1280 576 spigot 1;
#X obj 1206 540 r \$0-off;
#X obj 1206 1162 *~;
#X msg 1235 596 1;
#X obj 1206 920 VI-simpleOsc;
#X obj 1276 599 bng 15 250 50 0 empty empty empty 17 7 0 10 -262144
-1 -1;
#X obj 1313 875 r \$0-state;
#X obj 1246 875 spigot 1;
#X msg 1225 1129 0.1;
#X obj 1225 1106 loadbang;
#X text 1262 1131 set volume;
#X obj 1287 898 r \$0-off;
#X text 1303 921 instrument;
#X obj 1313 598 r \$0-param0OK;
#X text 1411 600 tempo;
#X obj 1579 511 r \$0-preset4;
#X obj 1280 541 r \$0-preset3;
#X obj 1260 760 r \$0-param1OK;
#X text 1278 793 pitch;
#X obj 1207 792 FX-pitch;
#X obj 463 709 SEQ-readMidiSequence;
#X obj 1246 851 r \$0-preset3;
#X obj 1206 1027 FX-reverb;
#X text 1289 1029 reverb;
#X obj 1244 975 loadbang;
#X obj 89 628 loadbang;
#X obj 826 625 loadbang;
#X msg 142 659 symbol grelot_sounds/tabla/;
#X msg 912 673 symbol mouth0;
#X msg 895 651 symbol grelot_sounds/mouth/;
#X msg 157 680 symbol tabla0;
#X obj 158 628 t s s;
#X obj 892 623 t s s;
#X obj 489 629 loadbang;
#X obj 558 629 t s s;
#X msg 542 660 symbol grelot_sounds/;
#X msg 557 681 symbol grelot0;
#X obj 805 700 SEQ-readWavSequence;
#X obj 1206 701 SEQ-readMidiSequence;
#X obj 1233 624 loadbang;
#X obj 1302 624 t s s;
#X msg 1286 655 symbol grelot_sounds/;
#X msg 1301 676 symbol grelot1;
#X text 215 709 wav sequencer;
#X text 619 710 notes sequencer;
#X text 949 701 wav sequencer;
#X text 1353 702 notes sequencer;
#X obj 182 363 route 0 1 2 3 4;
#X obj 576 409 bng 15 250 50 0 empty empty empty 17 7 0 10 -262144
-1 -1;
#X msg 595 408 4;
#X obj 595 431 s \$0-preset4;
#X msg 72 408 0;
#X msg 1244 998 0.7;
#X connect 2 0 17 0;
#X connect 3 0 16 0;
#X connect 5 0 18 0;
#X connect 12 0 15 0;
#X connect 13 0 3 0;
#X connect 13 1 2 0;
#X connect 15 0 13 0;
#X connect 15 0 26 0;
#X connect 18 0 8 0;
#X connect 18 1 36 0;
#X connect 18 2 37 0;
#X connect 18 3 38 0;
#X connect 20 0 24 0;
#X connect 24 0 19 0;
#X connect 24 0 98 0;
#X connect 25 0 24 1;
#X connect 27 0 28 1;
#X connect 28 0 70 0;
#X connect 29 0 148 0;
#X connect 30 0 29 0;
#X connect 31 0 32 1;
#X connect 32 0 69 0;
#X connect 33 0 73 0;
#X connect 34 0 121 0;
#X connect 36 0 6 0;
#X connect 37 0 7 0;
#X connect 38 0 9 0;
#X connect 40 0 42 0;
#X connect 40 0 91 0;
#X connect 41 0 40 1;
#X connect 43 0 74 0;
#X connect 45 0 148 0;
#X connect 45 1 35 0;
#X connect 46 0 48 0;
#X connect 46 0 49 0;
#X connect 47 0 46 0;
#X connect 50 0 29 1;
#X connect 50 0 45 0;
#X connect 51 0 32 0;
#X connect 54 0 28 0;
#X connect 55 0 53 0;
#X connect 55 0 23 0;
#X connect 56 0 60 1;
#X connect 57 0 138 0;
#X connect 59 0 60 0;
#X connect 60 0 68 0;
#X connect 63 0 61 0;
#X connect 63 0 62 0;
#X connect 68 0 138 0;
#X connect 69 0 73 0;
#X connect 70 0 121 0;
#X connect 71 0 43 0;
#X connect 73 0 74 0;
#X connect 74 0 14 0;
#X connect 75 0 77 0;
#X connect 76 0 77 1;
#X connect 77 0 71 1;
#X connect 78 0 43 1;
#X connect 79 0 78 0;
#X connect 81 0 71 2;
#X connect 88 0 87 0;
#X connect 88 0 89 0;
#X connect 90 0 40 0;
#X connect 92 0 39 0;
#X connect 92 0 73 3;
#X connect 94 0 72 0;
#X connect 94 0 121 3;
#X connect 96 0 58 0;
#X connect 96 0 138 3;
#X connect 99 0 74 1;
#X connect 100 0 101 1;
#X connect 101 0 104 0;
#X connect 102 0 139 0;
#X connect 103 0 14 0;
#X connect 104 0 139 0;
#X connect 105 0 123 0;
#X connect 107 0 108 1;
#X connect 108 0 105 1;
#X connect 109 0 103 1;
#X connect 110 0 109 0;
#X connect 112 0 105 2;
#X connect 114 0 106 0;
#X connect 114 0 139 3;
#X connect 116 0 44 0;
#X connect 117 0 101 0;
#X connect 118 0 120 1;
#X connect 120 0 105 0;
#X connect 121 0 71 0;
#X connect 122 0 108 0;
#X connect 123 0 103 0;
#X connect 125 0 153 0;
#X connect 126 0 132 0;
#X connect 127 0 133 0;
#X connect 128 0 73 1;
#X connect 129 0 138 2;
#X connect 130 0 138 1;
#X connect 131 0 73 2;
#X connect 132 0 131 0;
#X connect 132 1 128 0;
#X connect 133 0 129 0;
#X connect 133 1 130 0;
#X connect 134 0 135 0;
#X connect 135 0 137 0;
#X connect 135 1 136 0;
#X connect 136 0 121 1;
#X connect 137 0 121 2;
#X connect 138 0 74 0;
#X connect 139 0 120 0;
#X connect 140 0 141 0;
#X connect 141 0 143 0;
#X connect 141 1 142 0;
#X connect 142 0 139 1;
#X connect 143 0 139 2;
#X connect 148 0 152 0;
#X connect 148 1 55 0;
#X connect 148 2 63 0;
#X connect 148 3 88 0;
#X connect 148 5 150 0;
#X connect 150 0 149 0;
#X connect 150 0 151 0;
#X connect 152 0 52 0;
#X connect 152 0 22 0;
#X connect 153 0 123 1;
#X connect 153 0 123 2;
