#N canvas 102 23 1532 921 10;
#X text 706 155 ON;
#X text 641 155 OFF;
#X obj 685 154 bng 15 250 50 0 empty empty empty 17 7 0 10 -262144
-1 -1;
#X obj 620 155 bng 15 250 50 0 empty empty empty 17 7 0 10 -262144
-1 -1;
#X text 618 11 HARDWARE CONTROLS;
#X obj 53 25 inlet datas;
#X obj 136 131 s \$0-preset;
#X obj 225 131 s \$0-param0;
#X obj 53 131 s \$0-state;
#X obj 325 131 s \$0-param1;
#X text 233 157 x position;
#X text 333 157 y position;
#X obj 620 43 r \$0-state;
#X obj 620 128 route 0 1;
#X obj 507 1285 outlet~;
#X obj 620 70 valueChanged;
#X obj 620 181 s \$0-off;
#X obj 685 182 s \$0-on;
#X obj 53 66 unpack 0 0 0 0;
#X floatatom 1271 100 5 0 0 0 - - -, f 5;
#X obj 1249 43 r \$0-param1;
#X obj 52 409 bng 15 250 50 0 empty empty empty 17 7 0 10 -262144 -1
-1;
#X obj 193 409 bng 15 250 50 0 empty empty empty 17 7 0 10 -262144
-1 -1;
#X obj 1249 70 spigot 0;
#X obj 1318 70 r \$0-state;
#X obj 640 96 print new state;
#X obj 116 336 f;
#X obj 116 291 r \$0-on;
#X obj 199 576 r \$0-state;
#X obj 133 576 spigot 1;
#X obj 64 543 r \$0-off;
#X obj 214 315 s \$0-off;
#X obj 135 99 pipe 10;
#X obj 225 99 pipe 20;
#X obj 325 99 pipe 20;
#X obj 172 731 bng 15 250 50 0 empty empty empty 17 7 0 10 -262144
-1 -1;
#X obj 1037 72 spigot 0;
#X obj 1106 72 r \$0-state;
#X floatatom 1061 100 5 0 0 0 - - -, f 5;
#X obj 182 285 t f b;
#X obj 810 70 valueChanged;
#X obj 810 43 r \$0-preset;
#X obj 830 96 print new preset;
#X obj 810 181 s \$0-newPreset;
#X obj 183 241 r \$0-newPreset;
#X obj 133 542 r \$0-preset0;
#X obj 72 431 s \$0-preset0;
#X obj 212 431 s \$0-preset1;
#X msg 212 408 1;
#X obj 313 409 bng 15 250 50 0 empty empty empty 17 7 0 10 -262144
-1 -1;
#X obj 332 431 s \$0-preset2;
#X msg 332 408 2;
#X text 59 230 PRESET GESTION;
#X text 74 493 PRESET 0;
#X text 470 498 PRESET 1;
#X msg 79 585 1;
#X obj 62 826 FX-reverb;
#X text 145 828 reverb;
#X text 211 624 sequencer;
#X text 1207 497 PRESET 3;
#X obj 436 409 bng 15 250 50 0 empty empty empty 17 7 0 10 -262144
-1 -1;
#X msg 455 408 3;
#X obj 455 431 s \$0-preset3;
#X obj 1037 46 r \$0-param0;
#X obj 1037 180 s \$0-param0OK;
#X obj 193 730 r \$0-param0OK;
#X text 298 731 tempo;
#X obj 1249 183 s \$0-param1OK;
#X obj 92 803 r \$0-param1OK;
#X obj 613 572 r \$0-state;
#X obj 546 572 spigot 1;
#X obj 472 546 r \$0-off;
#X msg 501 592 1;
#X obj 542 595 bng 15 250 50 0 empty empty empty 17 7 0 10 -262144
-1 -1;
#X obj 579 594 r \$0-param0OK;
#X text 677 596 tempo;
#X obj 525 756 r \$0-param1OK;
#X text 543 959 pitch;
#X obj 472 958 FX-pitch;
#X obj 89 628 loadbang;
#X msg 107 659 symbol grelot_sounds/tabla/;
#X msg 149 680 symbol tabla0;
#X obj 158 628 t s s;
#X obj 499 620 loadbang;
#X obj 568 620 t s s;
#X msg 552 651 symbol grelot_sounds/;
#X msg 567 672 symbol grelot1;
#X text 188 767 wav sequencer;
#X text 639 698 notes sequencer;
#X obj 182 363 route 0 1 2 3 4;
#X obj 576 409 bng 15 250 50 0 empty empty empty 17 7 0 10 -262144
-1 -1;
#X msg 595 408 4;
#X obj 595 431 s \$0-preset4;
#X msg 72 408 0;
#X obj 472 1026 u_makepoly 8 1 s_rhodey \$0-piano;
#X text 882 496 PRESET 2;
#X obj 546 547 r \$0-preset1;
#X obj 501 1087 loadbang;
#X msg 501 1109 0.3;
#X obj 472 1131 *~;
#X obj 525 807 * 100;
#X obj 525 829 i;
#X obj 525 875 / 100;
#X floatatom 543 901 5 0 0 0 - - -, f 5;
#X floatatom 575 779 5 0 0 0 - - -, f 5;
#X text 103 49 number;
#X obj 525 851 M-pair;
#X text 1508 497 PRESET 4;
#X obj 484 123 s \$0-innerState;
#X obj 63 764 SEQ-wavSequence;
#X obj 472 697 SEQ-midiNotesSequence;
#X connect 2 0 17 0;
#X connect 3 0 16 0;
#X connect 5 0 18 0;
#X connect 12 0 15 0;
#X connect 13 0 3 0;
#X connect 13 1 2 0;
#X connect 15 0 13 0;
#X connect 15 0 25 0;
#X connect 15 0 108 0;
#X connect 18 0 8 0;
#X connect 18 1 32 0;
#X connect 18 2 33 0;
#X connect 18 3 34 0;
#X connect 20 0 23 0;
#X connect 23 0 19 0;
#X connect 23 0 67 0;
#X connect 24 0 23 1;
#X connect 26 0 89 0;
#X connect 27 0 26 0;
#X connect 28 0 29 1;
#X connect 29 0 55 0;
#X connect 30 0 109 0;
#X connect 32 0 6 0;
#X connect 33 0 7 0;
#X connect 34 0 9 0;
#X connect 36 0 38 0;
#X connect 36 0 64 0;
#X connect 37 0 36 1;
#X connect 39 0 89 0;
#X connect 39 1 31 0;
#X connect 40 0 42 0;
#X connect 40 0 43 0;
#X connect 41 0 40 0;
#X connect 44 0 26 1;
#X connect 44 0 39 0;
#X connect 45 0 29 0;
#X connect 48 0 47 0;
#X connect 48 0 22 0;
#X connect 51 0 49 0;
#X connect 51 0 50 0;
#X connect 55 0 109 0;
#X connect 56 0 14 0;
#X connect 61 0 60 0;
#X connect 61 0 62 0;
#X connect 63 0 36 0;
#X connect 65 0 35 0;
#X connect 65 0 109 3;
#X connect 68 0 56 1;
#X connect 69 0 70 1;
#X connect 70 0 72 0;
#X connect 71 0 110 0;
#X connect 72 0 110 0;
#X connect 74 0 73 0;
#X connect 74 0 110 3;
#X connect 76 0 100 0;
#X connect 76 0 104 0;
#X connect 78 0 94 0;
#X connect 79 0 82 0;
#X connect 80 0 109 1;
#X connect 81 0 109 2;
#X connect 82 0 81 0;
#X connect 82 1 80 0;
#X connect 83 0 84 0;
#X connect 84 0 86 0;
#X connect 84 1 85 0;
#X connect 85 0 110 1;
#X connect 86 0 110 2;
#X connect 89 0 93 0;
#X connect 89 1 48 0;
#X connect 89 2 51 0;
#X connect 89 3 61 0;
#X connect 89 5 91 0;
#X connect 91 0 90 0;
#X connect 91 0 92 0;
#X connect 93 0 46 0;
#X connect 93 0 21 0;
#X connect 94 0 99 0;
#X connect 96 0 70 0;
#X connect 97 0 98 0;
#X connect 98 0 99 1;
#X connect 99 0 14 0;
#X connect 100 0 101 0;
#X connect 101 0 106 0;
#X connect 102 0 103 0;
#X connect 102 0 78 1;
#X connect 106 0 102 0;
#X connect 109 0 56 0;
#X connect 110 0 78 0;
