#N canvas 358 23 1390 905 10;
#X text 556 155 ON;
#X text 491 155 OFF;
#X obj 535 154 bng 15 250 50 0 empty empty empty 17 7 0 10 -262144
-1 -1;
#X obj 470 155 bng 15 250 50 0 empty empty empty 17 7 0 10 -262144
-1 -1;
#X text 468 11 HARDWARE CONTROLS;
#X obj 53 36 inlet datas;
#X obj 136 131 s \$0-preset;
#X obj 225 131 s \$0-param0;
#X obj 53 131 s \$0-state;
#X obj 325 131 s \$0-param1;
#X text 233 157 x position;
#X text 333 157 y position;
#X obj 470 43 r \$0-state;
#X obj 470 128 route 0 1;
#X obj 553 1249 outlet~;
#X obj 470 70 valueChanged;
#X obj 470 181 s \$0-off;
#X obj 535 182 s \$0-on;
#X obj 53 66 unpack 0 0 0 0;
#X obj 561 1074 r \$0-reverb;
#X floatatom 1121 117 5 0 0 0 - - -, f 5;
#X obj 887 46 r \$0-param0;
#X obj 1099 43 r \$0-param1;
#X obj 1099 143 s \$0-reverb;
#X obj 1038 627 ChordsRoll_main2;
#X obj 202 369 bng 15 250 50 0 empty empty empty 17 7 0 10 -262144
-1 -1;
#X obj 323 379 bng 15 250 50 0 empty empty empty 17 7 0 10 -262144
-1 -1;
#X obj 64 585 VI-readWavSequence;
#X obj 851 561 VI-readMidiSequence;
#X obj 1099 70 spigot 0;
#X obj 1168 70 r \$0-state;
#X obj 490 96 print new state;
#X obj 992 506 r \$0-state;
#X obj 925 506 spigot 1;
#X obj 156 316 f;
#X obj 156 271 r \$0-on;
#X obj 208 518 r \$0-state;
#X obj 142 518 spigot 1;
#X obj 1277 432 r \$0-reverb;
#X msg 1190 498 0;
#X obj 64 519 r \$0-off;
#X obj 851 506 r \$0-off;
#X obj 254 295 s \$0-off;
#X obj 135 99 pipe 10;
#X obj 225 99 pipe 20;
#X obj 325 99 pipe 20;
#X obj 111 566 bng 15 250 50 0 empty empty empty 17 7 0 10 -262144
-1 -1;
#X obj 132 565 r \$0-tempo;
#X obj 1096 424 r \$0-tempo;
#X obj 887 124 s \$0-tempo;
#X obj 887 72 spigot 0;
#X obj 956 72 r \$0-state;
#X floatatom 911 100 5 0 0 0 - - -, f 5;
#X obj 849 718 makenote;
#X obj 849 744 mtof;
#X obj 849 767 osc~;
#X obj 849 791 *~;
#X obj 935 774 tgl 15 0 empty empty empty 17 7 0 10 -262144 -1 -1 0
1;
#X text 858 696 test;
#X text 934 755 on/off;
#X obj 657 561 *~;
#X obj 709 493 loadbang;
#X obj 1039 596 pack 0.5 0.5 0.2 0.5 0;
#X obj 222 265 t f b;
#X obj 660 70 valueChanged;
#X obj 660 43 r \$0-preset;
#X obj 680 96 print new preset;
#X obj 660 181 s \$0-newPreset;
#X obj 223 234 r \$0-newPreset;
#X obj 1101 686 r \$0-off;
#X msg 1101 710 0;
#X obj 142 487 r \$0-preset0;
#X obj 222 391 s \$0-preset0;
#X obj 342 401 s \$0-preset1;
#X obj 925 475 r \$0-preset1;
#X obj 1135 451 r \$0-preset1;
#X obj 935 679 r \$0-preset1;
#X msg 222 368 1;
#X msg 342 378 1;
#X obj 1039 573 r \$0-preset1;
#X obj 1190 476 r \$0-off;
#X obj 1277 527 spigot 0;
#X obj 1135 498 tgl 15 0 empty empty empty 17 7 0 10 -262144 -1 -1
0 1;
#X obj 1096 519 spigot;
#X msg 1400 435 0;
#X obj 1330 457 r \$0-preset1;
#X obj 1400 413 r \$0-off;
#X obj 1330 504 tgl 15 0 empty empty empty 17 7 0 10 -262144 -1 -1
0 1;
#X obj 1002 705 r \$0-state;
#X obj 935 705 spigot 1;
#X obj 517 1123 effect_reverb;
#X msg 709 537 0.1;
#X obj 1020 948 r \$0-state;
#X obj 876 949 r \$0-off;
#X obj 957 984 bng 15 250 50 0 empty empty empty 17 7 0 10 -262144
-1 -1;
#X obj 978 983 r \$0-tempo;
#X obj 954 917 r \$0-preset2;
#X obj 954 948 spigot 1;
#X obj 222 343 route 0 1 2;
#X obj 443 389 bng 15 250 50 0 empty empty empty 17 7 0 10 -262144
-1 -1;
#X obj 462 411 s \$0-preset2;
#X msg 462 388 2;
#X obj 876 1015 VI-readWavSequenceMouth;
#X text 219 210 PRESET GESTION;
#X text 74 458 PRESET 0;
#X text 1003 384 PRESET 1;
#X text 938 875 PRESET 2;
#X obj 40 40 bng 15 250 50 0 empty empty empty 17 7 0 10 -262144 -1
-1;
#X msg 892 980 1;
#X msg 79 546 1;
#X msg 880 534 1;
#X connect 2 0 17 0;
#X connect 3 0 16 0;
#X connect 5 0 18 0;
#X connect 12 0 15 0;
#X connect 13 0 3 0;
#X connect 13 1 2 0;
#X connect 15 0 13 0;
#X connect 15 0 31 0;
#X connect 18 0 8 0;
#X connect 18 1 43 0;
#X connect 18 2 44 0;
#X connect 18 3 45 0;
#X connect 19 0 90 1;
#X connect 21 0 50 0;
#X connect 22 0 29 0;
#X connect 27 0 90 0;
#X connect 28 0 53 0;
#X connect 29 0 23 0;
#X connect 29 0 20 0;
#X connect 30 0 29 1;
#X connect 32 0 33 1;
#X connect 33 0 110 0;
#X connect 34 0 98 0;
#X connect 35 0 34 0;
#X connect 36 0 37 1;
#X connect 37 0 109 0;
#X connect 38 0 81 0;
#X connect 39 0 82 0;
#X connect 40 0 27 0;
#X connect 41 0 28 0;
#X connect 43 0 6 0;
#X connect 44 0 7 0;
#X connect 45 0 9 0;
#X connect 47 0 27 1;
#X connect 47 0 46 0;
#X connect 48 0 83 0;
#X connect 50 0 49 0;
#X connect 50 0 52 0;
#X connect 51 0 50 1;
#X connect 53 0 54 0;
#X connect 53 1 54 0;
#X connect 54 0 55 0;
#X connect 55 0 56 0;
#X connect 56 0 60 0;
#X connect 57 0 56 1;
#X connect 60 0 90 0;
#X connect 61 0 91 0;
#X connect 63 0 98 0;
#X connect 63 1 42 0;
#X connect 64 0 66 0;
#X connect 64 0 67 0;
#X connect 65 0 64 0;
#X connect 68 0 34 1;
#X connect 68 0 63 0;
#X connect 69 0 70 0;
#X connect 70 0 57 0;
#X connect 71 0 37 0;
#X connect 74 0 33 0;
#X connect 75 0 82 0;
#X connect 76 0 89 0;
#X connect 77 0 72 0;
#X connect 77 0 25 0;
#X connect 78 0 73 0;
#X connect 78 0 26 0;
#X connect 79 0 62 0;
#X connect 80 0 39 0;
#X connect 81 0 28 2;
#X connect 82 0 83 1;
#X connect 83 0 28 1;
#X connect 84 0 87 0;
#X connect 85 0 87 0;
#X connect 86 0 84 0;
#X connect 87 0 81 1;
#X connect 88 0 89 1;
#X connect 89 0 57 0;
#X connect 90 0 14 0;
#X connect 91 0 60 1;
#X connect 92 0 97 1;
#X connect 93 0 102 0;
#X connect 95 0 94 0;
#X connect 95 0 102 1;
#X connect 96 0 97 0;
#X connect 97 0 108 0;
#X connect 98 0 77 0;
#X connect 98 1 78 0;
#X connect 98 2 101 0;
#X connect 101 0 99 0;
#X connect 101 0 100 0;
#X connect 102 0 90 0;
#X connect 108 0 102 0;
#X connect 109 0 27 0;
#X connect 110 0 28 0;
