#N canvas 407 90 1135 552 10;
#X text 667 155 ON;
#X text 602 155 OFF;
#X obj 646 154 bng 15 250 50 0 empty empty empty 17 7 0 10 -262144
-1 -1;
#X obj 580 155 bng 15 250 50 0 empty empty empty 17 7 0 10 -262144
-1 -1;
#X text 578 11 HARDWARE CONTROLS;
#X obj 53 36 inlet datas;
#X obj 136 131 s \$0-preset;
#X obj 225 131 s \$0-param0;
#X obj 53 131 s \$0-state;
#X obj 135 99 pipe 1;
#X obj 225 99 pipe 10;
#X obj 325 99 pipe 10;
#X obj 325 131 s \$0-param1;
#X text 233 157 x position;
#X text 333 157 y position;
#X obj 580 43 r \$0-state;
#X obj 581 128 route 0 1;
#X obj 431 504 outlet~;
#X obj 580 70 valueChanged;
#X obj 600 96 print new param1;
#X obj 580 181 s \$0-off;
#X obj 646 182 s \$0-on;
#X obj 53 66 unpack 0 0 0 0;
#X obj 481 310 r \$0-state;
#X obj 647 310 r \$0-reverb;
#X obj 564 310 r \$0-tempo;
#X obj 759 122 hsl 100 15 0.1 2 0 0 empty empty empty -2 -8 0 10 -262144
-1 -1 3064 1;
#X floatatom 867 123 5 0 0 0 - - -, f 5;
#X obj 975 123 hsl 100 15 0 1 0 0 empty empty empty -2 -8 0 10 -262144
-1 -1 0 1;
#X text 984 100 REVERB;
#X floatatom 1085 124 5 0 0 0 - - -, f 5;
#X obj 756 45 r \$0-param0;
#X obj 972 44 r \$0-param1;
#X obj 756 147 s \$0-tempo;
#X obj 973 148 s \$0-reverb;
#X obj 756 70 m_scale 0 1 0.2 2;
#X text 767 99 TEMPO 0.2->2;
#X obj 144 385 VI-readSequence;
#X text 402 256 preset;
#X obj 402 283 route 0 1;
#X obj 431 411 ChordsRoll_main2;
#X connect 2 0 21 0;
#X connect 3 0 20 0;
#X connect 5 0 22 0;
#X connect 9 0 6 0;
#X connect 10 0 7 0;
#X connect 11 0 12 0;
#X connect 15 0 18 0;
#X connect 16 0 3 0;
#X connect 16 1 2 0;
#X connect 18 0 19 0;
#X connect 18 0 16 0;
#X connect 22 0 8 0;
#X connect 22 1 9 0;
#X connect 22 2 10 0;
#X connect 22 3 11 0;
#X connect 23 0 37 0;
#X connect 24 0 37 2;
#X connect 25 0 37 1;
#X connect 26 0 27 0;
#X connect 26 0 33 0;
#X connect 28 0 30 0;
#X connect 28 0 34 0;
#X connect 31 0 35 0;
#X connect 32 0 28 0;
#X connect 35 0 26 0;
#X connect 37 0 17 0;
#X connect 39 0 37 0;
#X connect 39 1 40 0;
#X connect 40 0 17 0;
