#N canvas 290 23 1390 905 10;
#X text 556 155 ON;
#X text 491 155 OFF;
#X obj 535 154 bng 15 250 50 0 empty empty empty 17 7 0 10 -262144
-1 -1;
#X obj 470 155 bng 15 250 50 0 empty empty empty 17 7 0 10 -262144
-1 -1;
#X text 468 11 HARDWARE CONTROLS;
#X obj 53 36 inlet datas;
#X obj 136 131 s \$0-preset;
#X obj 225 131 s \$0-param0;
#X obj 53 131 s \$0-state;
#X obj 325 131 s \$0-param1;
#X text 233 157 x position;
#X text 333 157 y position;
#X obj 470 43 r \$0-state;
#X obj 470 128 route 0 1;
#X obj 348 793 outlet~;
#X obj 470 70 valueChanged;
#X obj 470 181 s \$0-off;
#X obj 535 182 s \$0-on;
#X obj 53 66 unpack 0 0 0 0;
#X obj 207 561 r \$0-reverb;
#X floatatom 1121 117 5 0 0 0 - - -, f 5;
#X obj 887 46 r \$0-param0;
#X obj 1099 43 r \$0-param1;
#X obj 1099 143 s \$0-reverb;
#X obj 222 343 route 0 1;
#X obj 1053 560 ChordsRoll_main2;
#X obj 202 369 bng 15 250 50 0 empty empty empty 17 7 0 10 -262144
-1 -1;
#X obj 323 369 bng 15 250 50 0 empty empty empty 17 7 0 10 -262144
-1 -1;
#X obj 64 585 VI-readWavSequence;
#X obj 413 581 VI-readMidiSequence;
#X obj 1099 70 spigot 0;
#X obj 1168 70 r \$0-state;
#X obj 490 96 print new state;
#X obj 554 526 r \$0-state;
#X obj 487 526 spigot 1;
#X obj 156 316 f;
#X obj 156 271 r \$0-on;
#X obj 208 518 r \$0-state;
#X obj 142 518 spigot 1;
#X obj 839 452 r \$0-reverb;
#X msg 752 518 0;
#X obj 64 519 r \$0-off;
#X obj 413 526 r \$0-off;
#X obj 254 295 s \$0-off;
#X obj 135 99 pipe 10;
#X obj 225 99 pipe 20;
#X obj 325 99 pipe 20;
#X obj 105 562 bng 15 250 50 0 empty empty empty 17 7 0 10 -262144
-1 -1;
#X obj 126 561 r \$0-tempo;
#X obj 658 444 r \$0-tempo;
#X obj 887 124 s \$0-tempo;
#X obj 887 72 spigot 0;
#X obj 956 72 r \$0-state;
#X floatatom 911 100 5 0 0 0 - - -, f 5;
#X obj 865 695 makenote;
#X obj 865 721 mtof;
#X obj 865 744 osc~;
#X obj 865 768 *~;
#X obj 951 751 tgl 15 0 empty empty empty 17 7 0 10 -262144 -1 -1 1
1;
#X text 874 673 test;
#X text 950 732 on/off;
#X obj 519 705 *~;
#X obj 611 657 loadbang;
#X obj 611 679 bng 15 250 50 0 empty empty empty 17 7 0 10 -262144
-1 -1;
#X obj 1054 529 pack 0.5 0.5 0.2 0.5 0;
#X obj 222 265 t f b;
#X obj 660 70 valueChanged;
#X obj 660 43 r \$0-preset;
#X obj 680 96 print new preset;
#X obj 660 181 s \$0-newPreset;
#X obj 222 236 r \$0-newPreset;
#X obj 1117 663 r \$0-off;
#X msg 1117 687 0;
#X obj 612 697 0.05;
#X obj 142 482 r \$0-preset0;
#X obj 222 391 s \$0-preset0;
#X obj 342 391 s \$0-preset1;
#X obj 487 495 r \$0-preset1;
#X obj 697 471 r \$0-preset1;
#X obj 951 656 r \$0-preset1;
#X msg 222 368 1;
#X msg 342 368 1;
#X obj 1054 506 r \$0-preset1;
#X text 219 210 PRESET;
#X obj 752 496 r \$0-off;
#X obj 839 547 spigot 0;
#X obj 697 518 tgl 15 0 empty empty empty 17 7 0 10 -262144 -1 -1 1
1;
#X obj 658 539 spigot;
#X msg 947 524 0;
#X obj 892 477 r \$0-preset1;
#X obj 947 502 r \$0-off;
#X obj 892 524 tgl 15 0 empty empty empty 17 7 0 10 -262144 -1 -1 1
1;
#X obj 1018 682 r \$0-state;
#X obj 951 682 spigot 1;
#X connect 2 0 17 0;
#X connect 3 0 16 0;
#X connect 5 0 18 0;
#X connect 12 0 15 0;
#X connect 13 0 3 0;
#X connect 13 1 2 0;
#X connect 15 0 13 0;
#X connect 15 0 32 0;
#X connect 18 0 8 0;
#X connect 18 1 44 0;
#X connect 18 2 45 0;
#X connect 18 3 46 0;
#X connect 19 0 28 2;
#X connect 21 0 51 0;
#X connect 22 0 30 0;
#X connect 24 0 80 0;
#X connect 24 1 81 0;
#X connect 28 0 14 0;
#X connect 29 0 54 0;
#X connect 30 0 23 0;
#X connect 30 0 20 0;
#X connect 31 0 30 1;
#X connect 33 0 34 1;
#X connect 34 0 29 0;
#X connect 35 0 24 0;
#X connect 36 0 35 0;
#X connect 37 0 38 1;
#X connect 38 0 28 0;
#X connect 39 0 85 0;
#X connect 40 0 86 0;
#X connect 41 0 28 0;
#X connect 42 0 29 0;
#X connect 44 0 6 0;
#X connect 45 0 7 0;
#X connect 46 0 9 0;
#X connect 48 0 28 1;
#X connect 48 0 47 0;
#X connect 49 0 87 0;
#X connect 51 0 50 0;
#X connect 51 0 53 0;
#X connect 52 0 51 1;
#X connect 54 0 55 0;
#X connect 54 1 55 0;
#X connect 55 0 56 0;
#X connect 56 0 57 0;
#X connect 57 0 61 0;
#X connect 58 0 57 1;
#X connect 61 0 14 0;
#X connect 62 0 63 0;
#X connect 63 0 73 0;
#X connect 65 0 24 0;
#X connect 65 1 43 0;
#X connect 66 0 68 0;
#X connect 66 0 69 0;
#X connect 67 0 66 0;
#X connect 70 0 35 1;
#X connect 70 0 65 0;
#X connect 71 0 72 0;
#X connect 72 0 58 0;
#X connect 73 0 61 1;
#X connect 74 0 38 0;
#X connect 77 0 34 0;
#X connect 78 0 86 0;
#X connect 79 0 93 0;
#X connect 80 0 75 0;
#X connect 80 0 26 0;
#X connect 81 0 76 0;
#X connect 81 0 27 0;
#X connect 82 0 64 0;
#X connect 84 0 40 0;
#X connect 85 0 29 2;
#X connect 86 0 87 1;
#X connect 87 0 29 1;
#X connect 88 0 91 0;
#X connect 89 0 91 0;
#X connect 90 0 88 0;
#X connect 91 0 85 1;
#X connect 92 0 93 1;
#X connect 93 0 58 0;
