#N canvas 27 24 1653 961 10;
#X obj 897 1164 outlet~;
#X obj 35 446 bng 15 250 50 0 empty empty empty 17 7 0 10 -262144 -1
-1;
#X obj 176 446 bng 15 250 50 0 empty empty empty 17 7 0 10 -262144
-1 -1;
#X obj 99 373 f;
#X obj 99 328 r \$0-on;
#X obj 197 352 s \$0-off;
#X obj 165 322 t f b;
#X obj 166 278 r \$0-newPreset;
#X obj 55 468 s \$0-preset0;
#X obj 195 468 s \$0-preset1;
#X msg 195 445 1;
#X obj 296 446 bng 15 250 50 0 empty empty empty 17 7 0 10 -262144
-1 -1;
#X obj 315 468 s \$0-preset2;
#X msg 315 445 2;
#X text 42 267 PRESET GESTION;
#X text 63 570 PRESET 0;
#X text 373 574 PRESET 1;
#X text 1092 564 PRESET 3;
#X obj 419 446 bng 15 250 50 0 empty empty empty 17 7 0 10 -262144
-1 -1;
#X msg 438 445 3;
#X obj 438 468 s \$0-preset3;
#X obj 165 400 route 0 1 2 3 4;
#X obj 559 446 bng 15 250 50 0 empty empty empty 17 7 0 10 -262144
-1 -1;
#X msg 578 445 4;
#X obj 578 468 s \$0-preset4;
#X msg 55 445 0;
#X text 701 571 PRESET 2;
#X text 1552 567 PRESET 4;
#X obj 21 25 inlet datas;
#X obj 21 120 s \$0-state;
#X obj 104 120 s \$0-preset;
#X text 102 148 preset;
#X text 20 148 state;
#X text 192 148 cratere 1;
#X text 281 148 cratere 2;
#X text 371 148 cratere 3;
#X text 460 148 cratere 4;
#X obj 103 85 pipe 2;
#X obj 192 85 pipe 10;
#X obj 281 85 pipe 10;
#X obj 371 85 pipe 10;
#X obj 460 85 pipe 10;
#X obj 21 55 unpack 0 0 0 0 0 0, f 69;
#X obj 193 120 s \$0-param0;
#X obj 282 120 s \$0-param1;
#X obj 372 120 s \$0-param2;
#X obj 461 120 s \$0-param3;
#X obj 1062 96 spigot 0;
#X obj 1131 96 r \$0-state;
#X obj 1212 96 spigot 0;
#X obj 1272 96 r \$0-state;
#X obj 1371 96 spigot 0;
#X obj 1431 96 r \$0-state;
#X obj 1522 96 spigot 0;
#X obj 1586 96 r \$0-state;
#X text 753 168 ON;
#X text 688 168 OFF;
#X obj 732 167 bng 15 250 50 0 empty empty empty 17 7 0 10 -262144
-1 -1;
#X obj 666 168 bng 15 250 50 0 empty empty empty 17 7 0 10 -262144
-1 -1;
#X text 664 24 HARDWARE CONTROLS;
#X obj 666 56 r \$0-state;
#X obj 667 141 route 0 1;
#X obj 666 194 s \$0-off;
#X obj 732 195 s \$0-on;
#X text 1056 46 Press buttons;
#X obj 1062 75 r \$0-param0;
#X obj 1212 75 r \$0-param1;
#X obj 1371 75 r \$0-param2;
#X obj 1522 75 r \$0-param3;
#X obj 1083 140 print new param0;
#X obj 1233 140 print new param1;
#X obj 1392 140 print new param2;
#X obj 1547 140 print new param3;
#X obj 1062 170 tgl 15 0 empty empty empty 17 7 0 10 -262144 -1 -1
0 1;
#X obj 1212 170 tgl 15 0 empty empty empty 17 7 0 10 -262144 -1 -1
0 1;
#X obj 1371 170 tgl 15 0 empty empty empty 17 7 0 10 -262144 -1 -1
0 1;
#X obj 1522 170 tgl 15 0 empty empty empty 17 7 0 10 -262144 -1 -1
0 1;
#X obj 1062 231 s \$0-press0;
#X obj 686 109 print new state;
#X obj 1062 211 line;
#X obj 1212 211 line;
#X obj 1371 211 line;
#X obj 1522 211 line;
#X obj 1212 231 s \$0-press1;
#X obj 1371 231 s \$0-press2;
#X obj 1522 231 s \$0-press3;
#X msg 1062 190 \$1 150;
#X msg 1212 190 \$1 150;
#X msg 1371 190 \$1 150;
#X msg 1522 190 \$1 150;
#X obj 584 219 s \$0-innerState;
#X obj 325 901 r \$0-press0;
#X obj 354 924 r \$0-press1;
#X obj 384 948 r \$0-press2;
#X obj 414 973 r \$0-press3;
#X obj 857 91 valueChanged;
#X obj 857 64 r \$0-preset;
#X obj 877 117 print new preset;
#X obj 857 202 s \$0-newPreset;
#X obj 1062 119 valueChanged;
#X obj 1212 119 valueChanged;
#X obj 1371 119 valueChanged;
#X obj 1522 119 valueChanged;
#X obj 666 83 valueChanged;
#X obj 62 740 pack s s s s s;
#X msg 62 664 ocarina_sounds/swedish/voxpitch0.wav ocarina_sounds/swedish/voxpitchMinus12.wav
ocarina_sounds/swedish/voxpitchMinus7.wav ocarina_sounds/swedish/voxpitchPlus5.wav
ocarina_sounds/swedish/voxpitchPlus7.wav;
#X obj 387 735 pack s s s s s;
#X obj 786 735 pack s s s s s;
#X msg 786 659 ocarina_sounds/doubidoo/doubidou35-Vibes1Soft.wav ocarina_sounds/doubidoo/doubidou36-KontaktPortablex64.wav
ocarina_sounds/doubidoo/doubidou38-KontaktPortablex64.wav ocarina_sounds/doubidoo/doubidou39-KontaktPortablex64.wav
ocarina_sounds/doubidoo/doubidou40-KontaktPortablex64.wav;
#X msg 387 659 ocarina_sounds/marimbarp/marimbarp2.wav ocarina_sounds/marimbarp/marimbarp1.wav
ocarina_sounds/marimbarp/marimbarp3.wav ocarina_sounds/marimbarp/marimbarp4.wav
ocarina_sounds/marimbarp/marimbarp5.wav;
#X obj 294 1032 VI-ocarina_wavePlayer-poly;
#X obj 295 827 r \$0-off;
#X obj 112 634 spigot 1;
#X msg 55 637 1;
#X obj 179 634 r \$0-state;
#X obj 477 635 spigot 1;
#X msg 384 637 1;
#X obj 544 635 r \$0-state;
#X obj 848 628 spigot 1;
#X msg 786 631 1;
#X obj 915 628 r \$0-state;
#X obj 612 1146 *~;
#X obj 643 1058 hsl 50 15 0 1 0 0 empty empty empty -2 -8 0 10 -262144
-1 -1 0 1;
#X floatatom 638 1079 5 0 0 0 - - -, f 5;
#X obj 737 1053 hsl 50 15 0 1 0 0 empty empty empty -2 -8 0 10 -262144
-1 -1 0 1;
#X floatatom 734 1074 5 0 0 0 - - -, f 5;
#X obj 834 1053 hsl 50 15 0 1 0 0 empty empty empty -2 -8 0 10 -262144
-1 -1 0 1;
#X floatatom 831 1074 5 0 0 0 - - -, f 5;
#X obj 674 1028 bng 15 250 50 0 empty empty empty 17 7 0 10 -262144
-1 -1;
#X obj 769 1028 bng 15 250 50 0 empty empty empty 17 7 0 10 -262144
-1 -1;
#X obj 541 1025 bng 15 250 50 0 empty empty empty 17 7 0 10 -262144
-1 -1;
#X msg 611 1029 0.244;
#X msg 707 1029 0.183;
#X msg 804 1029 0.265;
#X obj 61 610 r \$0-preset0;
#X obj 387 614 r \$0-preset1;
#X obj 785 606 r \$0-preset2;
#X obj 611 1002 r \$0-preset0;
#X obj 707 1002 r \$0-preset1;
#X obj 804 1002 r \$0-preset2;
#X connect 3 0 21 0;
#X connect 4 0 3 0;
#X connect 6 0 21 0;
#X connect 6 1 5 0;
#X connect 7 0 3 1;
#X connect 7 0 6 0;
#X connect 10 0 9 0;
#X connect 10 0 2 0;
#X connect 13 0 11 0;
#X connect 13 0 12 0;
#X connect 19 0 18 0;
#X connect 19 0 20 0;
#X connect 21 0 25 0;
#X connect 21 1 10 0;
#X connect 21 2 13 0;
#X connect 21 3 19 0;
#X connect 21 5 23 0;
#X connect 23 0 22 0;
#X connect 23 0 24 0;
#X connect 25 0 8 0;
#X connect 25 0 1 0;
#X connect 28 0 42 0;
#X connect 37 0 30 0;
#X connect 38 0 43 0;
#X connect 39 0 44 0;
#X connect 40 0 45 0;
#X connect 41 0 46 0;
#X connect 42 0 29 0;
#X connect 42 1 37 0;
#X connect 42 2 38 0;
#X connect 42 3 39 0;
#X connect 42 4 40 0;
#X connect 42 5 41 0;
#X connect 47 0 99 0;
#X connect 48 0 47 1;
#X connect 49 0 100 0;
#X connect 50 0 49 1;
#X connect 51 0 101 0;
#X connect 52 0 51 1;
#X connect 53 0 102 0;
#X connect 54 0 53 1;
#X connect 57 0 63 0;
#X connect 58 0 62 0;
#X connect 60 0 103 0;
#X connect 61 0 58 0;
#X connect 61 1 57 0;
#X connect 65 0 47 0;
#X connect 66 0 49 0;
#X connect 67 0 51 0;
#X connect 68 0 53 0;
#X connect 73 0 86 0;
#X connect 74 0 87 0;
#X connect 75 0 88 0;
#X connect 76 0 89 0;
#X connect 79 0 77 0;
#X connect 80 0 83 0;
#X connect 81 0 84 0;
#X connect 82 0 85 0;
#X connect 86 0 79 0;
#X connect 87 0 80 0;
#X connect 88 0 81 0;
#X connect 89 0 82 0;
#X connect 91 0 110 1;
#X connect 92 0 110 2;
#X connect 93 0 110 3;
#X connect 94 0 110 4;
#X connect 95 0 98 0;
#X connect 96 0 95 0;
#X connect 99 0 69 0;
#X connect 99 0 73 0;
#X connect 100 0 70 0;
#X connect 100 0 74 0;
#X connect 101 0 71 0;
#X connect 101 0 75 0;
#X connect 102 0 72 0;
#X connect 102 0 76 0;
#X connect 103 0 61 0;
#X connect 103 0 90 0;
#X connect 104 0 110 5;
#X connect 105 0 104 0;
#X connect 106 0 110 5;
#X connect 107 0 110 5;
#X connect 108 0 107 0;
#X connect 109 0 106 0;
#X connect 110 0 121 0;
#X connect 111 0 110 0;
#X connect 112 0 113 0;
#X connect 112 0 105 0;
#X connect 113 0 110 0;
#X connect 114 0 112 1;
#X connect 115 0 116 0;
#X connect 115 0 109 0;
#X connect 116 0 110 0;
#X connect 117 0 115 1;
#X connect 118 0 119 0;
#X connect 118 0 108 0;
#X connect 119 0 110 0;
#X connect 120 0 118 1;
#X connect 121 0 0 0;
#X connect 122 0 123 0;
#X connect 124 0 125 0;
#X connect 126 0 127 0;
#X connect 128 0 122 0;
#X connect 129 0 124 0;
#X connect 130 0 126 0;
#X connect 131 0 121 1;
#X connect 132 0 121 1;
#X connect 133 0 121 1;
#X connect 134 0 112 0;
#X connect 135 0 115 0;
#X connect 136 0 118 0;
#X connect 137 0 131 0;
#X connect 137 0 128 0;
#X connect 138 0 132 0;
#X connect 138 0 129 0;
#X connect 139 0 133 0;
#X connect 139 0 130 0;
#X coords 0 961 1 960 85 60 0;
