#N canvas 27 23 1653 961 10;
#X obj 472 26 inlet datas;
#X obj 245 490 valueChanged;
#X obj 245 467 spigot 0;
#X obj 314 467 r \$0-state;
#X obj 395 490 valueChanged;
#X obj 395 467 spigot 0;
#X obj 455 467 r \$0-state;
#X obj 554 490 valueChanged;
#X obj 554 467 spigot 0;
#X obj 614 467 r \$0-state;
#X obj 705 490 valueChanged;
#X obj 705 467 spigot 0;
#X obj 765 467 r \$0-state;
#X obj 472 121 s \$0-state;
#X obj 555 121 s \$0-preset;
#X text 553 149 preset;
#X text 471 149 state;
#X text 643 149 cratere 1;
#X text 732 149 cratere 2;
#X text 822 149 cratere 3;
#X text 911 149 cratere 4;
#X obj 554 86 pipe 2;
#X obj 643 86 pipe 10;
#X obj 732 86 pipe 10;
#X obj 822 86 pipe 10;
#X obj 911 86 pipe 10;
#X obj 472 56 unpack 0 0 0 0 0 0, f 69;
#X obj 1023 1020 outlet~;
#X text 147 538 ON;
#X text 82 538 OFF;
#X obj 126 537 bng 15 250 50 0 empty empty empty 17 7 0 10 -262144
-1 -1;
#X obj 60 538 bng 15 250 50 0 empty empty empty 17 7 0 10 -262144 -1
-1;
#X text 58 394 HARDWARE CONTROLS;
#X obj 60 426 r \$0-state;
#X obj 61 511 route 0 1;
#X obj 60 453 valueChanged;
#X obj 60 564 s \$0-off;
#X obj 126 565 s \$0-on;
#X obj 120 1057 s \$0-pressNothing;
#X obj 81 899 +;
#X floatatom 120 949 5 0 0 0 - - -, f 5;
#X obj 81 856 f;
#X text 239 417 Press buttons;
#X text 64 735 If nothing pressed \, play default loop;
#X obj 66 763 r \$0-press0;
#X obj 66 790 t b f;
#X obj 66 826 bng 15 250 50 0 empty empty empty 17 7 0 10 -262144 -1
-1;
#X obj 209 852 f;
#X obj 172 790 t b f;
#X obj 172 763 r \$0-press1;
#X obj 309 852 f;
#X obj 272 790 t b f;
#X obj 272 763 r \$0-press2;
#X obj 81 924 +;
#X obj 409 852 f;
#X obj 372 790 t b f;
#X obj 372 763 r \$0-press3;
#X obj 81 948 +;
#X obj 120 973 moses 1;
#X obj 131 1006 bng 15 250 50 0 empty empty empty 17 7 0 10 -262144
-1 -1;
#X obj 192 1005 bng 15 250 50 0 empty empty empty 17 7 0 10 -262144
-1 -1;
#X obj 644 121 s \$0-param0;
#X obj 733 121 s \$0-param1;
#X obj 823 121 s \$0-param2;
#X obj 912 121 s \$0-param3;
#X obj 245 446 r \$0-param0;
#X obj 395 446 r \$0-param1;
#X obj 554 446 r \$0-param2;
#X obj 705 446 r \$0-param3;
#X obj 266 511 print new param0;
#X obj 416 511 print new param1;
#X obj 575 511 print new param2;
#X obj 726 511 print new param3;
#X obj 245 541 tgl 15 0 empty empty empty 17 7 0 10 -262144 -1 -1 0
1;
#X obj 395 541 tgl 15 0 empty empty empty 17 7 0 10 -262144 -1 -1 0
1;
#X obj 554 541 tgl 15 0 empty empty empty 17 7 0 10 -262144 -1 -1 0
1;
#X obj 705 541 tgl 15 0 empty empty empty 17 7 0 10 -262144 -1 -1 0
1;
#X obj 245 602 s \$0-press0;
#X obj 943 568 /;
#X obj 943 670 *~ 0;
#X obj 943 697 +~ 1;
#X msg 943 541 44100;
#X obj 943 515 t b f;
#X obj 943 642 phasor~ 0;
#X obj 943 599 f;
#X obj 1083 558 bng 15 250 50 0 empty empty empty 17 7 0 10 -262144
-1 -1;
#X floatatom 981 607 5 0 0 0 - - -, f 5;
#X obj 1023 932 +~;
#X text 940 459 PLAYER;
#X obj 569 790 r \$0-pressNothing;
#X obj 777 807 r \$0-press0;
#X obj 969 807 r \$0-press1;
#X obj 1160 807 r \$0-press2;
#X obj 748 835 *~;
#X obj 940 835 *~;
#X obj 1131 835 *~;
#X obj 1321 835 *~;
#X obj 1350 807 r \$0-press3;
#X obj 943 488 r \$0-totsamps;
#X obj 986 674 r \$0-totsamps;
#X obj 1045 594 r \$0-off;
#X obj 1083 529 r \$0-on;
#X obj 50 18 loadbang;
#X obj 261 250 symbol;
#X obj 261 307 soundfiler;
#X obj 701 254 symbol;
#X obj 701 311 soundfiler;
#X obj 1142 251 symbol;
#X obj 1142 308 soundfiler;
#X obj 1585 256 symbol;
#X obj 1584 313 soundfiler;
#X obj 2033 260 symbol;
#X obj 2032 317 soundfiler;
#X obj 261 335 s \$0-totsamps;
#X text 51 172 LOAD SOUNDS;
#X obj 538 835 *~;
#X msg 1045 617 0;
#N canvas 0 22 450 278 (subpatch) 0;
#X array ocarina-array1 1.0584e+06 float 4;
#X coords 0 1 1.0584e+06 -1 200 140 1;
#X restore 52 210 graph;
#X msg 261 279 read -resize \$1 ocarina-array1;
#X obj 261 220 r ocarina-readfile1;
#X obj 701 224 r ocarina-readfile2;
#X msg 701 283 read -resize \$1 ocarina-array2;
#X obj 1142 221 r ocarina-readfile3;
#X msg 1142 280 read -resize \$1 ocarina-array3;
#X obj 1585 229 r ocarina-readfile4;
#X msg 1584 285 read -resize \$1 ocarina-array4;
#X obj 2033 230 r ocarina-readfile5;
#X msg 2032 289 read -resize \$1 ocarina-array5;
#X obj 562 761 tabread4~ ocarina-array1;
#X obj 748 761 tabread4~ ocarina-array2;
#X obj 939 761 tabread4~ ocarina-array3;
#X obj 1129 761 tabread4~ ocarina-array4;
#X obj 1319 760 tabread4~ ocarina-array5;
#N canvas 0 22 450 278 (subpatch) 0;
#X array ocarina-array2 1.0584e+06 float 2;
#X coords 0 1 1.0584e+06 -1 200 140 1;
#X restore 494 215 graph;
#N canvas 0 22 450 278 (subpatch) 0;
#X array ocarina-array3 1.0584e+06 float 2;
#X coords 0 1 1.0584e+06 -1 200 140 1 0 0;
#X restore 933 220 graph;
#N canvas 0 22 450 278 (subpatch) 0;
#X array ocarina-array4 1.0584e+06 float 2;
#X coords 0 1 1.0584e+06 -1 200 140 1 0 0;
#X restore 1372 223 graph;
#N canvas 0 22 450 278 (subpatch) 0;
#X array ocarina-array5 1.0584e+06 float 2;
#X coords 0 1 1.0584e+06 -1 200 140 1 0 0;
#X restore 1819 228 graph;
#X msg 120 1027 1;
#X msg 180 1027 0;
#X msg 50 49 \; ocarina-readfile1 ocarina_sounds/voxpitch0.wav \; ocarina-readfile2
ocarina_sounds/voxpitchMinus12.wav \; ocarina-readfile3 ocarina_sounds/voxpitchMinus7.wav
\; ocarina-readfile4 ocarina_sounds/voxpitchPlus5.wav \; ocarina-readfile5
ocarina_sounds/voxpitchPlus7.wav \;;
#X obj 80 479 print new state;
#X obj -19 764 r \$0-on;
#X obj 245 582 line;
#X obj 395 582 line;
#X obj 554 582 line;
#X obj 705 582 line;
#X obj 395 602 s \$0-press1;
#X obj 554 602 s \$0-press2;
#X obj 705 602 s \$0-press3;
#X msg 245 561 \$1 150;
#X msg 395 561 \$1 150;
#X msg 554 561 \$1 150;
#X msg 705 561 \$1 150;
#X obj 602 812 loadbang;
#X msg 602 834 1;
#X connect 0 0 26 0;
#X connect 1 0 69 0;
#X connect 1 0 73 0;
#X connect 2 0 1 0;
#X connect 3 0 2 1;
#X connect 4 0 70 0;
#X connect 4 0 74 0;
#X connect 5 0 4 0;
#X connect 6 0 5 1;
#X connect 7 0 71 0;
#X connect 7 0 75 0;
#X connect 8 0 7 0;
#X connect 9 0 8 1;
#X connect 10 0 72 0;
#X connect 10 0 76 0;
#X connect 11 0 10 0;
#X connect 12 0 11 1;
#X connect 21 0 14 0;
#X connect 22 0 61 0;
#X connect 23 0 62 0;
#X connect 24 0 63 0;
#X connect 25 0 64 0;
#X connect 26 0 13 0;
#X connect 26 1 21 0;
#X connect 26 2 22 0;
#X connect 26 3 23 0;
#X connect 26 4 24 0;
#X connect 26 5 25 0;
#X connect 30 0 37 0;
#X connect 31 0 36 0;
#X connect 33 0 35 0;
#X connect 34 0 31 0;
#X connect 34 1 30 0;
#X connect 35 0 34 0;
#X connect 35 0 140 0;
#X connect 39 0 53 0;
#X connect 40 0 58 0;
#X connect 41 0 39 0;
#X connect 44 0 45 0;
#X connect 45 0 46 0;
#X connect 45 1 41 1;
#X connect 46 0 41 0;
#X connect 47 0 39 1;
#X connect 48 0 46 0;
#X connect 48 1 47 0;
#X connect 49 0 48 0;
#X connect 50 0 39 1;
#X connect 50 0 53 1;
#X connect 51 0 46 0;
#X connect 51 1 50 0;
#X connect 52 0 51 0;
#X connect 53 0 57 0;
#X connect 54 0 57 1;
#X connect 55 0 46 0;
#X connect 55 1 54 0;
#X connect 56 0 55 0;
#X connect 57 0 40 0;
#X connect 58 0 59 0;
#X connect 58 0 137 0;
#X connect 58 1 60 0;
#X connect 58 1 138 0;
#X connect 65 0 2 0;
#X connect 66 0 5 0;
#X connect 67 0 8 0;
#X connect 68 0 11 0;
#X connect 73 0 149 0;
#X connect 74 0 150 0;
#X connect 75 0 151 0;
#X connect 76 0 152 0;
#X connect 78 0 84 0;
#X connect 78 0 84 1;
#X connect 79 0 80 0;
#X connect 80 0 128 0;
#X connect 80 0 129 0;
#X connect 80 0 130 0;
#X connect 80 0 131 0;
#X connect 80 0 132 0;
#X connect 81 0 78 0;
#X connect 82 0 81 0;
#X connect 82 1 78 1;
#X connect 83 0 79 0;
#X connect 84 0 83 0;
#X connect 84 0 86 0;
#X connect 85 0 84 0;
#X connect 87 0 27 0;
#X connect 90 0 93 1;
#X connect 91 0 94 1;
#X connect 92 0 95 1;
#X connect 93 0 87 0;
#X connect 94 0 87 0;
#X connect 95 0 87 0;
#X connect 96 0 87 0;
#X connect 97 0 96 1;
#X connect 98 0 82 0;
#X connect 99 0 79 1;
#X connect 100 0 116 0;
#X connect 101 0 85 0;
#X connect 102 0 139 0;
#X connect 103 0 118 0;
#X connect 104 0 113 0;
#X connect 105 0 121 0;
#X connect 107 0 123 0;
#X connect 109 0 125 0;
#X connect 111 0 127 0;
#X connect 115 0 87 0;
#X connect 116 0 83 0;
#X connect 118 0 104 0;
#X connect 119 0 103 0;
#X connect 120 0 105 0;
#X connect 121 0 106 0;
#X connect 122 0 107 0;
#X connect 123 0 108 0;
#X connect 124 0 109 0;
#X connect 125 0 110 0;
#X connect 126 0 111 0;
#X connect 127 0 112 0;
#X connect 128 0 115 0;
#X connect 129 0 93 0;
#X connect 130 0 94 0;
#X connect 131 0 95 0;
#X connect 132 0 96 0;
#X connect 137 0 38 0;
#X connect 138 0 38 0;
#X connect 141 0 46 0;
#X connect 142 0 77 0;
#X connect 143 0 146 0;
#X connect 144 0 147 0;
#X connect 145 0 148 0;
#X connect 149 0 142 0;
#X connect 150 0 143 0;
#X connect 151 0 144 0;
#X connect 152 0 145 0;
#X connect 153 0 154 0;
#X connect 154 0 115 1;
#X coords 0 961 1 960 85 60 0;
