#N canvas 334 23 1346 885 10;
#X obj 73 555 qlist;
#X msg 120 298 bang;
#X text 197 363 set relative tempo;
#X text 120 520 read a file;
#X msg 116 467 clear;
#X text 193 471 empty the qlist;
#X msg 120 364 tempo \$1;
#X obj 170 640 spigot;
#X obj 278 633 tgl 15 0 empty empty empty 17 7 0 10 -262144 -1 -1 1
1;
#X text 298 634 loop;
#X text 623 273 RECEIVE notes_seq from qlist (from txt file);
#X text 39 265 READ MIDI FILE (QLIST);
#X obj 30 46 loadbang;
#X msg 30 78 1;
#X msg 130 78 0.5;
#X text 27 19 INIT;
#X obj 30 105 s \$0-loopOn;
#X obj 130 105 s \$0-drywet;
#X obj 134 336 r \$0-tempo;
#X obj 137 424 r \$0-off;
#X obj 328 466 r \$0-on;
#X obj 170 667 s \$0-loop;
#X obj 278 609 r \$0-loopOn;
#X obj 624 302 r notes_midi_seq;
#X obj 651 337 print notes_midi_seq;
#X msg 116 499 read grelot_sounds/sequenceMidiNotes.txt;
#X obj 42 298 r \$0-loop;
#X text 477 149 ON;
#X text 411 149 OFF;
#X obj 456 148 bng 15 250 50 0 empty empty empty 17 7 0 10 -262144
-1 -1;
#X obj 389 149 bng 15 250 50 0 empty empty empty 17 7 0 10 -262144
-1 -1;
#X obj 389 122 route 0 1;
#X obj 389 77 valueChanged;
#X obj 389 170 s \$0-off;
#X obj 456 170 s \$0-on;
#X obj 389 54 inlet;
#X text 385 30 on / off;
#X obj 624 679 outlet;
#X obj 408 98 print new state;
#X obj 143 586 print qlistdone;
#X obj 625 365 pack \$1 100;
#X obj 652 147 hsl 100 15 0.2 2 0 0 empty empty empty -2 -8 0 10 -262144
-1 -1 3524 1;
#X floatatom 760 148 5 0 0 0 - - -, f 5;
#X obj 649 172 s \$0-tempo;
#X obj 649 90 m_scale 0 1 0.2 2;
#X text 660 124 TEMPO 0.2->2;
#X obj 649 60 spigot 0;
#X obj 649 34 inlet;
#X obj 718 60 r \$0-innerState;
#X obj 270 109 s \$0-innerState;
#X obj 526 428 bng 15 250 50 0 empty empty empty 17 7 0 10 -262144
-1 -1;
#X connect 0 1 7 0;
#X connect 1 0 0 0;
#X connect 4 0 0 0;
#X connect 6 0 0 0;
#X connect 7 0 21 0;
#X connect 8 0 7 1;
#X connect 12 0 13 0;
#X connect 12 0 14 0;
#X connect 13 0 16 0;
#X connect 14 0 17 0;
#X connect 18 0 6 0;
#X connect 19 0 4 0;
#X connect 20 0 25 0;
#X connect 22 0 8 0;
#X connect 23 0 40 0;
#X connect 23 0 50 0;
#X connect 25 0 0 0;
#X connect 25 0 1 0;
#X connect 26 0 1 0;
#X connect 29 0 34 0;
#X connect 30 0 33 0;
#X connect 31 0 30 0;
#X connect 31 1 29 0;
#X connect 32 0 31 0;
#X connect 32 0 38 0;
#X connect 32 0 49 0;
#X connect 35 0 32 0;
#X connect 40 0 37 0;
#X connect 41 0 42 0;
#X connect 41 0 43 0;
#X connect 44 0 41 0;
#X connect 46 0 44 0;
#X connect 47 0 46 0;
#X connect 48 0 46 1;
