#N canvas 190 78 1346 885 10;
#X obj 73 805 qlist;
#X msg 120 548 bang;
#X text 197 613 set relative tempo;
#X text 125 790 read a file;
#X msg 116 717 clear;
#X text 193 721 empty the qlist;
#X msg 120 614 tempo \$1;
#X obj 170 890 spigot;
#X obj 278 883 tgl 15 0 empty empty empty 17 7 0 10 -262144 -1 -1 1
1;
#X text 298 884 loop;
#X text 39 515 READ MIDI FILE (QLIST);
#X obj 30 46 loadbang;
#X msg 30 78 1;
#X msg 130 78 0.5;
#X text 27 19 INIT;
#X obj 30 105 s \$0-loopOn;
#X obj 130 105 s \$0-drywet;
#X obj 134 586 r \$0-tempo;
#X obj 137 674 r \$0-off;
#X obj 170 917 s \$0-loop;
#X obj 278 859 r \$0-loopOn;
#X obj 42 548 r \$0-loop;
#X text 477 149 ON;
#X text 411 149 OFF;
#X obj 456 148 bng 15 250 50 0 empty empty empty 17 7 0 10 -262144
-1 -1;
#X obj 389 149 bng 15 250 50 0 empty empty empty 17 7 0 10 -262144
-1 -1;
#X obj 389 122 route 0 1;
#X obj 389 170 s \$0-off;
#X obj 456 170 s \$0-on;
#X obj 389 54 inlet;
#X text 385 30 on / off;
#X obj 624 929 outlet;
#X obj 408 98 print new state;
#X obj 143 836 print qlistdone;
#X obj 270 118 s \$0-innerState;
#X obj 610 54 inlet;
#X obj 815 54 inlet;
#X text 809 23 prefix;
#X obj 815 136 s \$0-prefix;
#X text 608 26 repo url;
#X obj 610 139 s \$0-inletUrl;
#X obj 58 426 symbol;
#X obj 58 274 r \$0-on;
#X text 54 250 sequence file;
#X obj 58 454 s \$0-sequenceUrl;
#X msg 197 327 set \$1;
#X obj 196 270 r \$0-inletUrl;
#X obj 172 358 r \$0-prefix;
#X obj 193 419 print sequenceURL;
#X obj 179 306 bng 15 250 50 0 empty empty empty 17 7 0 10 -262144
-1 -1;
#X obj 172 382 makefilename symbol;
#X text 54 230 GET SEQUENCE FILE URL;
#X msg 123 769 read \$1;
#X obj 131 742 r \$0-sequenceUrl;
#X text 621 502 RECEIVE notes_seq from qlist (from txt file);
#X text 793 576 global var : route if good prefix;
#X obj 622 597 route symbol;
#X obj 703 575 r \$0-prefix;
#X obj 597 541 bng 15 250 50 0 empty empty empty 17 7 0 10 -262144
-1 -1;
#X obj 196 305 makefilename %ssequence_midiNotes_%%s.txt;
#X obj 622 541 r notes_midi;
#X obj 669 622 print notes_midi;
#X obj 389 77 valueChanged;
#X obj 610 77 valueChangedSymbol;
#X obj 629 98 print new url;
#X obj 815 77 valueChangedSymbol;
#X obj 834 98 print new prefix;
#X obj 1019 340 s \$0-tempo;
#X obj 1019 72 spigot 0;
#X obj 1019 46 inlet;
#X obj 1088 72 r \$0-innerState;
#X obj 1019 159 M-pair;
#X obj 1019 115 * 100;
#X obj 1019 137 i;
#X text 1017 23 tempo;
#X obj 1019 198 / 100;
#X obj 1019 220 * 2;
#X floatatom 1034 246 5 0 0 0 - - -, f 5;
#X text 1075 216 mapping 0.2->2;
#X text 1064 136 scale on multiples of 2;
#X obj 1019 286 max 0.2;
#X connect 0 1 7 0;
#X connect 1 0 0 0;
#X connect 4 0 0 0;
#X connect 6 0 0 0;
#X connect 7 0 19 0;
#X connect 8 0 7 1;
#X connect 11 0 12 0;
#X connect 11 0 13 0;
#X connect 12 0 15 0;
#X connect 13 0 16 0;
#X connect 17 0 6 0;
#X connect 18 0 4 0;
#X connect 20 0 8 0;
#X connect 21 0 1 0;
#X connect 24 0 28 0;
#X connect 25 0 27 0;
#X connect 26 0 25 0;
#X connect 26 1 24 0;
#X connect 29 0 62 0;
#X connect 35 0 63 0;
#X connect 36 0 65 0;
#X connect 41 0 44 0;
#X connect 42 0 41 0;
#X connect 45 0 50 0;
#X connect 46 0 49 0;
#X connect 46 0 59 0;
#X connect 47 0 50 0;
#X connect 50 0 48 0;
#X connect 50 0 41 1;
#X connect 52 0 0 0;
#X connect 52 0 1 0;
#X connect 53 0 52 0;
#X connect 56 0 31 0;
#X connect 57 0 56 1;
#X connect 59 0 45 0;
#X connect 60 0 56 0;
#X connect 60 0 58 0;
#X connect 62 0 26 0;
#X connect 62 0 34 0;
#X connect 63 0 64 0;
#X connect 63 0 40 0;
#X connect 65 0 38 0;
#X connect 65 0 66 0;
#X connect 68 0 72 0;
#X connect 69 0 68 0;
#X connect 70 0 68 1;
#X connect 71 0 75 0;
#X connect 72 0 73 0;
#X connect 73 0 71 0;
#X connect 75 0 76 0;
#X connect 76 0 77 0;
#X connect 76 0 80 0;
#X connect 80 0 67 0;
