#N canvas 0 102 1568 890 10;
#X obj 566 938 readsf~;
#X msg 533 910 1;
#X obj 532 758 bng 15 250 50 0 empty empty empty 17 7 0 10 -262144
-1 -1;
#X obj 533 782 t b b;
#X obj 565 806 i;
#X obj 616 737 t b f;
#X obj 81 770 qlist;
#X msg 128 513 bang;
#X text 205 578 set relative tempo;
#X text 418 938 read a file;
#X msg 124 682 clear;
#X text 175 683 empty the qlist;
#X msg 128 579 tempo \$1;
#X obj 159 855 spigot;
#X obj 267 848 tgl 15 0 empty empty empty 17 7 0 10 -262144 -1 -1 1
1;
#X text 291 850 loop;
#X obj 64 54 loadbang;
#X msg 64 131 1;
#X msg 154 131 0.5;
#X text 61 15 INIT;
#X text 527 476 RECEIVE notes_seq from qlist (from txt file);
#X text 528 690 READ WAV;
#X text 224 552 TEMPO;
#X obj 64 158 s \$0-loopOn;
#X obj 154 158 s \$0-drywet;
#X obj 55 513 r \$0-loop;
#X obj 142 551 r \$0-tempo;
#X obj 145 639 r \$0-off;
#X obj 267 824 r \$0-loopOn;
#X obj 159 878 s \$0-loop;
#X obj 528 619 s \$0-sampleNum;
#X obj 616 712 r \$0-sampleNum;
#X text 54 480 READ MIDI FILE TEMPO;
#X text 521 150 ON;
#X text 455 150 OFF;
#X obj 500 149 bng 15 250 50 0 empty empty empty 17 7 0 10 -262144
-1 -1;
#X obj 433 150 bng 15 250 50 0 empty empty empty 17 7 0 10 -262144
-1 -1;
#X obj 433 123 route 0 1;
#X obj 433 78 valueChanged;
#X obj 433 171 s \$0-off;
#X obj 500 171 s \$0-on;
#X obj 433 55 inlet;
#X text 429 31 on / off;
#X obj 452 99 print new state;
#X obj 151 801 print qlistdone;
#X obj 295 131 s \$0-innerState;
#X obj 566 1034 outlet~;
#X msg 153 743 read \$1;
#X obj 58 363 symbol;
#X obj 58 274 r \$0-on;
#X obj 887 289 loadbang;
#X obj 487 292 loadbang;
#X text 54 230 STORE WAV DATAS;
#X text 54 250 sequence file;
#X obj 487 385 s \$0-wavUrl;
#X obj 58 391 s \$0-sequenceUrl;
#X obj 169 713 r \$0-sequenceUrl;
#X msg 745 787 set \$1;
#X obj 565 854 makefilename not-set-yet;
#X text 749 854 ... and then the number fills in "%d".;
#X obj 745 714 r \$0-wavUrl;
#X msg 566 880 open \$1;
#X text 445 247 wav location & prefix;
#X msg 487 346 symbol grelot_sounds/tabla/Slice;
#X obj 745 760 makefilename %s%%d.wav;
#X text 802 787 ... so this becomes "set xx/Slice%d.wav";
#X text 843 713 create file name;
#X obj 528 515 r notes_seq;
#X obj 575 586 print notes_seq;
#X text 872 250 prefix;
#X text 699 540 global var : route if good prefix;
#X msg 134 351 symbol grelot_sounds/tabla/sequence_tabla0.txt;
#X obj 528 561 route symbol;
#X msg 887 333 symbol tabla0;
#X obj 97 309 r \$0-inletSequenceUrl;
#X obj 888 380 s \$0-prefix;
#X obj 609 539 r \$0-prefix;
#X obj 630 54 inlet;
#X obj 860 54 inlet;
#X obj 1095 54 inlet;
#X text 628 26 sequence file;
#X obj 630 115 symbol;
#X obj 630 139 s \$0-inletSequenceUrl;
#X obj 860 138 s \$0-wavUrl;
#X text 858 25 wav location & prefix;
#X text 1089 23 prefix;
#X obj 1094 136 s \$0-prefix;
#X obj 1284 150 hsl 100 15 0.2 2 0 0 empty empty empty -2 -8 0 10 -262144
-1 -1 0 1;
#X floatatom 1392 151 5 0 0 0 - - -, f 5;
#X obj 1281 175 s \$0-tempo;
#X obj 1281 93 m_scale 0 1 0.2 2;
#X text 1292 127 TEMPO 0.2->2;
#X obj 1281 63 spigot 0;
#X obj 1281 37 inlet;
#X obj 1350 63 r \$0-innerState;
#X connect 0 0 46 0;
#X connect 1 0 0 0;
#X connect 2 0 3 0;
#X connect 3 0 1 0;
#X connect 3 1 4 0;
#X connect 4 0 58 0;
#X connect 5 0 2 0;
#X connect 5 1 4 1;
#X connect 6 1 13 0;
#X connect 7 0 6 0;
#X connect 10 0 6 0;
#X connect 12 0 6 0;
#X connect 13 0 29 0;
#X connect 14 0 13 1;
#X connect 16 0 17 0;
#X connect 16 0 18 0;
#X connect 17 0 23 0;
#X connect 18 0 24 0;
#X connect 25 0 7 0;
#X connect 26 0 12 0;
#X connect 27 0 10 0;
#X connect 28 0 14 0;
#X connect 31 0 5 0;
#X connect 35 0 40 0;
#X connect 36 0 39 0;
#X connect 37 0 36 0;
#X connect 37 1 35 0;
#X connect 38 0 37 0;
#X connect 38 0 43 0;
#X connect 38 0 45 0;
#X connect 41 0 38 0;
#X connect 47 0 6 0;
#X connect 47 0 7 0;
#X connect 48 0 55 0;
#X connect 49 0 48 0;
#X connect 56 0 47 0;
#X connect 57 0 58 0;
#X connect 58 0 61 0;
#X connect 60 0 64 0;
#X connect 61 0 0 0;
#X connect 63 0 54 0;
#X connect 64 0 57 0;
#X connect 67 0 72 0;
#X connect 72 0 30 0;
#X connect 73 0 75 0;
#X connect 74 0 48 1;
#X connect 76 0 72 1;
#X connect 77 0 81 0;
#X connect 78 0 83 0;
#X connect 79 0 86 0;
#X connect 81 0 82 0;
#X connect 87 0 88 0;
#X connect 87 0 89 0;
#X connect 90 0 87 0;
#X connect 92 0 90 0;
#X connect 93 0 92 0;
#X connect 94 0 92 1;
