#N canvas 148 79 1568 890 10;
#X obj 566 1008 readsf~;
#X msg 533 980 1;
#X obj 532 828 bng 15 250 50 0 empty empty empty 17 7 0 10 -262144
-1 -1;
#X obj 533 852 t b b;
#X obj 565 876 i;
#X obj 616 807 t b f;
#X obj 81 840 qlist;
#X msg 128 583 bang;
#X text 205 648 set relative tempo;
#X text 418 1008 read a file;
#X msg 124 752 clear;
#X text 175 753 empty the qlist;
#X msg 128 649 tempo \$1;
#X obj 159 925 spigot;
#X obj 267 918 tgl 15 0 empty empty empty 17 7 0 10 -262144 -1 -1 1
1;
#X text 291 920 loop;
#X obj 64 54 loadbang;
#X msg 64 131 1;
#X msg 154 131 0.5;
#X text 61 15 INIT;
#X text 527 546 RECEIVE notes_seq from qlist (from txt file);
#X text 528 760 READ WAV;
#X text 224 622 TEMPO;
#X obj 64 158 s \$0-loopOn;
#X obj 154 158 s \$0-drywet;
#X obj 55 583 r \$0-loop;
#X obj 142 621 r \$0-tempo;
#X obj 145 709 r \$0-off;
#X obj 267 894 r \$0-loopOn;
#X obj 159 948 s \$0-loop;
#X obj 528 689 s \$0-sampleNum;
#X obj 616 782 r \$0-sampleNum;
#X text 54 550 READ MIDI FILE TEMPO;
#X text 521 150 ON;
#X text 455 150 OFF;
#X obj 500 149 bng 15 250 50 0 empty empty empty 17 7 0 10 -262144
-1 -1;
#X obj 433 150 bng 15 250 50 0 empty empty empty 17 7 0 10 -262144
-1 -1;
#X obj 433 123 route 0 1;
#X obj 433 78 valueChanged;
#X obj 433 171 s \$0-off;
#X obj 500 171 s \$0-on;
#X obj 433 55 inlet;
#X text 429 31 on / off;
#X obj 452 99 print new state;
#X obj 157 855 print qlistdone;
#X obj 295 131 s \$0-innerState;
#X obj 566 1104 outlet~;
#X msg 153 813 read \$1;
#X obj 58 426 symbol;
#X obj 58 274 r \$0-on;
#X text 54 250 sequence file;
#X obj 58 454 s \$0-sequenceUrl;
#X obj 169 783 r \$0-sequenceUrl;
#X msg 745 857 set \$1;
#X obj 565 924 makefilename not-set-yet;
#X text 749 924 ... and then the number fills in "%d".;
#X msg 566 950 open \$1;
#X text 802 857 ... so this becomes "set xx/Slice%d.wav";
#X text 843 783 create file name;
#X obj 528 585 r notes_seq;
#X obj 575 656 print notes_seq;
#X text 699 610 global var : route if good prefix;
#X obj 528 631 route symbol;
#X obj 609 609 r \$0-prefix;
#X obj 1019 176 s \$0-tempo;
#X obj 1019 72 spigot 0;
#X obj 1019 46 inlet;
#X obj 1088 72 r \$0-innerState;
#X obj 745 830 makefilename %sSlice%%d.wav;
#X obj 196 305 makefilename %ssequence_%%s.txt;
#X msg 197 327 set \$1;
#X obj 196 270 r \$0-inletUrl;
#X obj 172 358 r \$0-prefix;
#X obj 193 419 print sequenceURL;
#X obj 179 306 bng 15 250 50 0 empty empty empty 17 7 0 10 -262144
-1 -1;
#X obj 172 382 makefilename symbol;
#X obj 667 953 print wavURL;
#X obj 745 784 r \$0-inletUrl;
#X text 54 230 GET SEQUENCE FILE URL;
#X obj 610 54 inlet;
#X obj 815 54 inlet;
#X text 809 23 prefix;
#X obj 815 166 s \$0-prefix;
#X text 608 26 repo url;
#X obj 610 169 s \$0-inletUrl;
#X obj 610 77 valueChangedSymbol;
#X obj 629 98 print new url;
#X obj 834 98 print new prefix;
#X obj 815 77 valueChangedSymbol;
#X floatatom 1236 568 0 0 0 0 - - -;
#X floatatom 1196 567 0 0 0 0 - - -;
#X floatatom 1196 468 0 0 0 0 - - -;
#X floatatom 1238 470 0 0 0 0 - - -;
#X obj 1238 500 t b f;
#X obj 1196 499 f;
#X obj 1196 541 div;
#X obj 1236 542 mod;
#X floatatom 1247 681 0 0 0 0 - - -;
#X obj 1247 659 mod 2;
#X floatatom 1208 610 0 0 0 0 - - -;
#X obj 1208 706 spigot;
#X floatatom 1208 748 5 0 0 0 - - -, f 5;
#X obj 1208 633 t i i;
#X obj 1208 727 + 1;
#X text 1017 23 tempo;
#X connect 0 0 46 0;
#X connect 1 0 0 0;
#X connect 2 0 3 0;
#X connect 3 0 1 0;
#X connect 3 1 4 0;
#X connect 4 0 54 0;
#X connect 5 0 2 0;
#X connect 5 1 4 1;
#X connect 6 1 13 0;
#X connect 7 0 6 0;
#X connect 10 0 6 0;
#X connect 12 0 6 0;
#X connect 13 0 29 0;
#X connect 14 0 13 1;
#X connect 16 0 17 0;
#X connect 16 0 18 0;
#X connect 17 0 23 0;
#X connect 18 0 24 0;
#X connect 25 0 7 0;
#X connect 26 0 12 0;
#X connect 27 0 10 0;
#X connect 28 0 14 0;
#X connect 31 0 5 0;
#X connect 35 0 40 0;
#X connect 36 0 39 0;
#X connect 37 0 36 0;
#X connect 37 1 35 0;
#X connect 38 0 37 0;
#X connect 38 0 43 0;
#X connect 38 0 45 0;
#X connect 41 0 38 0;
#X connect 47 0 6 0;
#X connect 47 0 7 0;
#X connect 48 0 51 0;
#X connect 49 0 48 0;
#X connect 52 0 47 0;
#X connect 53 0 54 0;
#X connect 54 0 56 0;
#X connect 56 0 0 0;
#X connect 59 0 62 0;
#X connect 62 0 30 0;
#X connect 63 0 62 1;
#X connect 65 0 64 0;
#X connect 66 0 65 0;
#X connect 67 0 65 1;
#X connect 68 0 53 0;
#X connect 69 0 70 0;
#X connect 70 0 75 0;
#X connect 71 0 69 0;
#X connect 71 0 74 0;
#X connect 72 0 75 0;
#X connect 75 0 48 1;
#X connect 75 0 73 0;
#X connect 77 0 68 0;
#X connect 79 0 85 0;
#X connect 80 0 88 0;
#X connect 85 0 86 0;
#X connect 85 0 84 0;
#X connect 88 0 82 0;
#X connect 88 0 87 0;
#X connect 91 0 94 0;
#X connect 92 0 93 0;
#X connect 93 0 94 0;
#X connect 93 1 95 1;
#X connect 93 1 96 1;
#X connect 94 0 95 0;
#X connect 94 0 96 0;
#X connect 95 0 90 0;
#X connect 96 0 89 0;
#X connect 97 0 100 1;
#X connect 98 0 97 0;
#X connect 99 0 102 0;
#X connect 100 0 103 0;
#X connect 102 0 100 0;
#X connect 102 1 98 0;
#X connect 103 0 101 0;
