#N canvas 259 169 1277 734 10;
#X obj 123 20 loadbang;
#X obj 191 21 bng 15 250 50 0 empty empty empty 17 7 0 10 -262144 -1
-1;
#X obj 66 83 !=, f 4;
#X obj 33 146 spigot 0;
#X floatatom 124 66 5 0 0 0 - - -, f 5;
#X obj 34 56 t f f;
#X text 165 67 record new value;
#X obj 35 21 inlet;
#X obj 33 171 outlet;
#X msg 124 44 0;
#X connect 0 0 9 0;
#X connect 1 0 9 0;
#X connect 2 0 3 1;
#X connect 3 0 4 0;
#X connect 3 0 8 0;
#X connect 4 0 2 1;
#X connect 5 0 3 0;
#X connect 5 1 2 0;
#X connect 7 0 5 0;
#X connect 9 0 4 0;
