#N canvas 400 147 1277 734 10;
#X obj 147 26 loadbang;
#X obj 27 26 inlet;
#X obj 27 172 outlet;
#X msg 147 50 symbol default;
#X obj 59 97 select symbol;
#X msg 147 122 1;
#X obj 27 145 spigot 0;
#X obj 27 49 t s s;
#X text 164 96 test / record new value;
#X msg 59 119 0;
#X connect 0 0 3 0;
#X connect 1 0 7 0;
#X connect 3 0 4 1;
#X connect 4 0 9 0;
#X connect 4 1 5 0;
#X connect 5 0 6 1;
#X connect 6 0 4 1;
#X connect 6 0 2 0;
#X connect 7 0 6 0;
#X connect 7 1 4 0;
#X connect 9 0 6 1;
