#N canvas 127 23 1457 866 10;
#X obj 241 1328 outlet~;
#X text 45 311 LOAD SOUNDS;
#X text 130 31 on/off;
#X text 217 186 ON;
#X text 152 186 OFF;
#X obj 196 185 bng 15 250 50 0 empty empty empty 17 7 0 10 -262144
-1 -1;
#X obj 130 186 bng 15 250 50 0 empty empty empty 17 7 0 10 -262144
-1 -1;
#X obj 131 159 route 0 1;
#X obj 130 101 valueChanged;
#X obj 130 212 s \$0-off;
#X obj 196 213 s \$0-on;
#X obj 150 127 print new state;
#X obj 48 237 s \$0-innerState;
#X obj 130 67 inlet;
#X text 364 642 WHISTLE;
#X text 43 349 WHISTLE SOUNDS;
#X obj 255 431 symbol;
#X obj 255 488 soundfiler;
#X obj 695 435 symbol;
#X obj 695 492 soundfiler;
#X obj 1136 432 symbol;
#X obj 1136 489 soundfiler;
#N canvas 0 22 450 278 (subpatch) 0;
#X array whistle-array1 36001 float 4;
#X coords 0 1 36000 -1 200 140 1;
#X restore 46 391 graph;
#X msg 255 460 read -resize \$1 whistle-array1;
#X obj 255 401 r whistle-readfile1;
#X obj 695 405 r whistle-readfile2;
#X msg 695 464 read -resize \$1 whistle-array2;
#X obj 1136 402 r whistle-readfile3;
#X msg 1136 461 read -resize \$1 whistle-array3;
#N canvas 0 22 450 278 (subpatch) 0;
#X array whistle-array2 18002 float 2;
#X coords 0 1 18002 -1 200 140 1;
#X restore 488 402 graph;
#N canvas 0 22 450 278 (subpatch) 0;
#X array whistle-array3 207149 float 2;
#X coords 0 1 207149 -1 200 140 1 0 0;
#X restore 927 401 graph;
#X obj 543 76 inlet;
#X text 538 40 wav files whistle;
#X obj 543 141 unpack s s s;
#X obj 570 113 print filesToLoad Whistle;
#X obj 543 250 s whistle-readfile1 \$1;
#X obj 583 230 s whistle-readfile2 \$2;
#X obj 624 210 s whistle-readfile3 \$3;
#X msg 185 999 bang;
#X text 227 999 repeat last instruction;
#X msg 203 1097 sr 44100;
#X obj 129 1127 s_playtable;
#X msg 282 1032 stop;
#X text 325 1032 stop playing;
#X obj 203 1073 loadbang;
#X text 181 949 play wav start;
#X obj 370 748 sig~;
#X floatatom 249 729 5 0 0 0 - - -, f 5;
#X obj 370 666 r \$0-param2;
#X msg 495 981 bang;
#X text 537 981 repeat last instruction;
#X obj 547 1150 spigot;
#X obj 602 1151 tgl 15 0 empty empty empty 17 7 0 10 -262144 -1 -1
1 1;
#X obj 547 1178 bng 15 250 50 0 empty empty empty 17 7 0 10 -262144
-1 -1;
#X text 544 1134 last outlet: bang at end of duration;
#X msg 513 1079 sr 44100;
#X obj 439 1109 s_playtable;
#X msg 592 1014 stop;
#X text 635 1014 stop playing;
#X obj 513 1055 loadbang;
#X msg 494 954 whistle-array2 1 1 0 370;
#X msg 184 972 whistle-array1 1 1 0 80;
#X msg 894 992 bang;
#X text 936 992 repeat last instruction;
#X msg 926 1180 sr 44100;
#X obj 852 1210 s_playtable;
#X msg 1005 1115 stop;
#X text 1034 1025 stop playing;
#X obj 926 1156 loadbang;
#X text 890 942 play wav end;
#X msg 893 965 whistle-array3 1 1 0 4000;
#X obj 249 748 / 100;
#X obj 363 811 bng 15 250 50 0 empty empty empty 17 7 0 10 -262144
-1 -1;
#X obj 544 809 bng 15 250 50 0 empty empty empty 17 7 0 10 -262144
-1 -1;
#X text 208 738 test;
#X text 624 1150 loop;
#X msg 601 1119 1;
#X obj 370 690 spigot 1;
#X obj 436 690 r \$0-innerState;
#X obj 299 666 r \$0-off;
#X msg 299 689 0;
#X text 491 931 play wav middle loop;
#X obj 370 786 threshold~ 0.2 100 0.6 100;
#X obj 257 1202 r \$0-param2;
#X obj 239 1257 *~;
#X obj 257 1225 m_scale 0 1 0.3 1;
#X obj 374 50 inlet;
#X text 382 112 barometer;
#X obj 374 86 s \$0-param2;
#X connect 5 0 10 0;
#X connect 6 0 9 0;
#X connect 7 0 6 0;
#X connect 7 1 5 0;
#X connect 8 0 7 0;
#X connect 8 0 11 0;
#X connect 8 0 12 0;
#X connect 13 0 8 0;
#X connect 16 0 23 0;
#X connect 18 0 26 0;
#X connect 20 0 28 0;
#X connect 23 0 17 0;
#X connect 24 0 16 0;
#X connect 25 0 18 0;
#X connect 26 0 19 0;
#X connect 27 0 20 0;
#X connect 28 0 21 0;
#X connect 31 0 33 0;
#X connect 33 0 35 0;
#X connect 33 1 36 0;
#X connect 33 2 37 0;
#X connect 38 0 41 0;
#X connect 40 0 41 1;
#X connect 41 0 84 0;
#X connect 41 1 60 0;
#X connect 42 0 41 1;
#X connect 44 0 40 0;
#X connect 46 0 82 0;
#X connect 47 0 71 0;
#X connect 48 0 77 0;
#X connect 49 0 56 0;
#X connect 51 0 53 0;
#X connect 51 0 56 0;
#X connect 52 0 51 1;
#X connect 55 0 56 1;
#X connect 56 0 84 0;
#X connect 56 1 51 0;
#X connect 57 0 56 1;
#X connect 59 0 55 0;
#X connect 59 0 76 0;
#X connect 60 0 56 0;
#X connect 61 0 41 0;
#X connect 62 0 65 0;
#X connect 64 0 65 1;
#X connect 65 0 84 0;
#X connect 66 0 65 1;
#X connect 68 0 64 0;
#X connect 70 0 65 0;
#X connect 71 0 46 0;
#X connect 76 0 52 0;
#X connect 77 0 46 0;
#X connect 78 0 77 1;
#X connect 79 0 80 0;
#X connect 80 0 46 0;
#X connect 82 0 72 0;
#X connect 82 0 66 0;
#X connect 82 0 61 0;
#X connect 82 1 70 0;
#X connect 82 1 57 0;
#X connect 82 1 73 0;
#X connect 83 0 85 0;
#X connect 84 0 0 0;
#X connect 85 0 84 1;
#X connect 86 0 88 0;
#X coords 0 866 1 865 85 60 0;
