#N canvas 931 41 1388 785 10;
#X obj 37 734 outlet~;
#X obj 39 384 osc~;
#X obj 110 578 osc~;
#X obj 110 518 +;
#X floatatom 118 542 10 0 0 0 - - -, f 10;
#X text 31 18 BEATING;
#X obj 37 695 *~;
#X text 473 183 ON;
#X text 407 183 OFF;
#X obj 452 182 bng 15 250 50 0 empty empty empty 17 7 0 10 -262144
-1 -1;
#X obj 385 183 bng 15 250 50 0 empty empty empty 17 7 0 10 -262144
-1 -1;
#X obj 385 156 route 0 1;
#X obj 385 204 s \$0-off;
#X obj 452 204 s \$0-on;
#X obj 385 48 inlet;
#X text 381 24 on / off;
#X obj 404 132 print new state;
#X obj 260 204 s \$0-innerState;
#X obj 385 111 valueChanged;
#X obj 111 407 r \$0-baseFreq;
#X obj 39 353 r \$0-baseFreq;
#X obj 141 433 r \$0-gap;
#X obj 117 485 bng 15 250 50 0 empty empty empty 17 7 0 10 -262144
-1 -1;
#X obj 143 634 r \$0-innerState;
#X obj 588 98 hsl 150 15 60 400 0 0 empty empty empty -2 -8 0 10 -262144
-1 -1 5556 1;
#X floatatom 668 119 10 0 0 0 - - -, f 10;
#X obj 585 52 inlet;
#X text 582 28 base frequence;
#X obj 585 149 s \$0-baseFreq;
#X floatatom 921 119 10 0 0 0 - - -, f 10;
#X obj 841 99 hsl 150 15 0.3 20 0 0 empty empty empty -2 -8 0 10 -262144
-1 -1 6061 1;
#X obj 839 53 inlet;
#X text 833 29 gap frequence 2;
#X obj 838 146 s \$0-gap;
#X obj 838 76 m_scale 0 1 0.3 20;
#X obj 585 76 m_scale 0 1 60 400;
#X connect 1 0 6 0;
#X connect 2 0 6 0;
#X connect 3 0 4 0;
#X connect 3 0 2 0;
#X connect 6 0 0 0;
#X connect 9 0 13 0;
#X connect 10 0 12 0;
#X connect 11 0 10 0;
#X connect 11 1 9 0;
#X connect 14 0 18 0;
#X connect 18 0 11 0;
#X connect 18 0 17 0;
#X connect 19 0 3 0;
#X connect 20 0 1 0;
#X connect 21 0 3 1;
#X connect 21 0 22 0;
#X connect 22 0 3 0;
#X connect 23 0 6 1;
#X connect 24 0 25 0;
#X connect 24 0 28 0;
#X connect 26 0 35 0;
#X connect 30 0 29 0;
#X connect 30 0 33 0;
#X connect 31 0 34 0;
#X connect 34 0 30 0;
#X connect 35 0 24 0;
