#N canvas 223 23 1457 866 10;
#X obj 813 1638 outlet~;
#X obj 356 1024 /;
#X obj 356 1126 *~ 0;
#X obj 356 1153 +~ 1;
#X msg 356 997 44100;
#X obj 356 971 t b f;
#X obj 356 1098 phasor~ 0;
#X obj 356 1055 f;
#X obj 496 1014 bng 15 250 50 0 empty empty empty 17 7 0 10 -262144
-1 -1;
#X floatatom 394 1063 5 0 0 0 - - -, f 5;
#X obj 55 1259 r \$0-pressNothing;
#X obj 234 1305 *~;
#X obj 426 1305 *~;
#X obj 617 1305 *~;
#X obj 356 944 r \$0-totsamps;
#X obj 399 1130 r \$0-totsamps;
#X obj 458 1050 r \$0-off;
#X obj 496 985 r \$0-on;
#X obj 257 442 symbol;
#X obj 257 499 soundfiler;
#X obj 697 446 symbol;
#X obj 697 503 soundfiler;
#X obj 1138 443 symbol;
#X obj 1138 500 soundfiler;
#X obj 1581 448 symbol;
#X obj 1580 505 soundfiler;
#X obj 257 527 s \$0-totsamps;
#X text 45 311 LOAD SOUNDS;
#X obj 35 1306 *~;
#X msg 458 1073 0;
#N canvas 0 22 450 278 (subpatch) 0;
#X array bolstick-array1 423360 float 4;
#X coords 0 1 423359 -1 200 140 1;
#X restore 48 402 graph;
#X msg 257 471 read -resize \$1 bolstick-array1;
#X obj 257 412 r bolstick-readfile1;
#X obj 697 416 r bolstick-readfile2;
#X msg 697 475 read -resize \$1 bolstick-array2;
#X obj 1138 413 r bolstick-readfile3;
#X msg 1138 472 read -resize \$1 bolstick-array3;
#X obj 1581 421 r bolstick-readfile4;
#X msg 1580 477 read -resize \$1 bolstick-array4;
#X obj 48 1231 tabread4~ bolstick-array1;
#X obj 234 1231 tabread4~ bolstick-array2;
#X obj 425 1231 tabread4~ bolstick-array3;
#X obj 615 1231 tabread4~ bolstick-array4;
#N canvas 0 22 450 278 (subpatch) 0;
#X array bolstick-array2 423360 float 2;
#X coords 0 1 423360 -1 200 140 1;
#X restore 490 413 graph;
#N canvas 0 22 450 278 (subpatch) 0;
#X array bolstick-array3 423360 float 2;
#X coords 0 1 423360 -1 200 140 1 0 0;
#X restore 929 412 graph;
#N canvas 0 22 450 278 (subpatch) 0;
#X array bolstick-array4 423360 float 2;
#X coords 0 1 423360 -1 200 140 1 0 0;
#X restore 1368 415 graph;
#X obj 58 1281 r \$0-innerState;
#X text 130 31 on/off;
#X obj 293 67 inlet;
#X obj 393 67 inlet;
#X obj 503 67 inlet;
#X obj 644 67 inlet;
#X text 217 186 ON;
#X text 152 186 OFF;
#X obj 196 185 bng 15 250 50 0 empty empty empty 17 7 0 10 -262144
-1 -1;
#X obj 130 186 bng 15 250 50 0 empty empty empty 17 7 0 10 -262144
-1 -1;
#X obj 131 159 route 0 1;
#X obj 130 101 valueChanged;
#X obj 130 212 s \$0-off;
#X obj 196 213 s \$0-on;
#X obj 150 127 print new state;
#X obj 48 237 s \$0-innerState;
#X obj 130 67 inlet;
#X obj 644 241 s bolstick-readfile1 \$1;
#X obj 675 221 s bolstick-readfile2 \$2;
#X obj 707 201 s bolstick-readfile3 \$3;
#X obj 739 180 s bolstick-readfile4 \$4;
#X obj 176 1401 pack 0 10;
#X obj 293 103 s \$0-param0;
#X obj 393 103 s \$0-param1;
#X text 301 129 joystick x;
#X text 401 129 joystick y;
#X text 511 129 barometer;
#X obj 503 103 s \$0-param2;
#X obj 176 1377 r \$0-param0;
#X obj 263 1277 r \$0-innerState;
#X obj 556 1401 pack 0 10;
#X obj 455 1277 r \$0-innerState;
#X obj 646 1277 r \$0-innerState;
#X obj 556 1377 r \$0-param1;
#X text 355 922 PLAYER;
#X text 225 1428 Crossfade 1;
#X text 580 1428 Crossfade 2;
#X text 1251 912 WHISTLE;
#X text 45 341 JOYSTICK SOUNDS;
#X text 45 621 WHISTLE SOUNDS;
#X obj 257 703 symbol;
#X obj 257 760 soundfiler;
#X obj 697 707 symbol;
#X obj 697 764 soundfiler;
#X obj 1138 704 symbol;
#X obj 1138 761 soundfiler;
#N canvas 0 22 450 278 (subpatch) 0;
#X array whistle-array1 36001 float 4;
#X coords 0 1 36000 -1 200 140 1;
#X restore 48 663 graph;
#X msg 257 732 read -resize \$1 whistle-array1;
#X obj 257 673 r whistle-readfile1;
#X obj 697 677 r whistle-readfile2;
#X msg 697 736 read -resize \$1 whistle-array2;
#X obj 1138 674 r whistle-readfile3;
#X msg 1138 733 read -resize \$1 whistle-array3;
#N canvas 0 22 450 278 (subpatch) 0;
#X array whistle-array2 18002 float 2;
#X coords 0 1 18002 -1 200 140 1;
#X restore 490 674 graph;
#N canvas 0 22 450 278 (subpatch) 0;
#X array whistle-array3 207149 float 2;
#X coords 0 1 207149 -1 200 140 1 0 0;
#X restore 929 673 graph;
#X obj 944 67 inlet;
#X text 639 31 wav files joystick;
#X text 939 31 wav files whistle;
#X obj 944 132 unpack s s s;
#X obj 644 132 unpack s s s s;
#X obj 971 104 print filesToLoad Whistle;
#X obj 671 104 print filesToLoad Joystick;
#X obj 944 241 s whistle-readfile1 \$1;
#X obj 984 221 s whistle-readfile2 \$2;
#X obj 1025 201 s whistle-readfile3 \$3;
#X msg 1072 1269 bang;
#X text 1114 1269 repeat last instruction;
#X msg 1090 1367 sr 44100;
#X obj 1016 1397 s_playtable;
#X msg 1169 1302 stop;
#X text 1212 1302 stop playing;
#X obj 1090 1343 loadbang;
#X text 1068 1219 play wav start;
#X obj 1257 1018 sig~;
#X floatatom 1130 1018 5 0 0 0 - - -, f 5;
#X obj 1257 936 r \$0-param2;
#X msg 1382 1251 bang;
#X text 1424 1251 repeat last instruction;
#X obj 1434 1420 spigot;
#X obj 1489 1421 tgl 15 0 empty empty empty 17 7 0 10 -262144 -1 -1
1 1;
#X obj 1434 1448 bng 15 250 50 0 empty empty empty 17 7 0 10 -262144
-1 -1;
#X text 1431 1404 last outlet: bang at end of duration;
#X msg 1400 1349 sr 44100;
#X obj 1326 1379 s_playtable;
#X msg 1479 1284 stop;
#X text 1522 1284 stop playing;
#X obj 1400 1325 loadbang;
#X msg 1381 1224 whistle-array2 1 1 0 370;
#X msg 1071 1242 whistle-array1 1 1 0 80;
#X msg 1781 1262 bang;
#X text 1823 1262 repeat last instruction;
#X msg 1799 1360 sr 44100;
#X obj 1725 1390 s_playtable;
#X msg 1878 1295 stop;
#X text 1921 1295 stop playing;
#X obj 1799 1336 loadbang;
#X text 1777 1212 play wav end;
#X msg 1780 1235 whistle-array3 1 1 0 4000;
#X obj 1130 1037 / 100;
#X obj 1250 1081 bng 15 250 50 0 empty empty empty 17 7 0 10 -262144
-1 -1;
#X obj 1431 1079 bng 15 250 50 0 empty empty empty 17 7 0 10 -262144
-1 -1;
#X text 1089 1027 test;
#X text 1511 1420 loop;
#X msg 1488 1389 1;
#X obj 1257 960 spigot 1;
#X obj 1323 960 r \$0-innerState;
#X obj 1186 936 r \$0-off;
#X msg 1186 959 0;
#X text 1378 1201 play wav middle loop;
#X obj 1257 1056 threshold~ 0.2 100 0.6 100;
#X obj 130 1427 c_cpfade;
#X obj 510 1427 c_cpfade;
#X connect 1 0 7 0;
#X connect 1 0 7 1;
#X connect 2 0 3 0;
#X connect 3 0 39 0;
#X connect 3 0 40 0;
#X connect 3 0 41 0;
#X connect 3 0 42 0;
#X connect 4 0 1 0;
#X connect 5 0 4 0;
#X connect 5 1 1 1;
#X connect 6 0 2 0;
#X connect 7 0 6 0;
#X connect 7 0 9 0;
#X connect 8 0 7 0;
#X connect 11 0 156 1;
#X connect 12 0 157 0;
#X connect 13 0 157 1;
#X connect 14 0 5 0;
#X connect 15 0 2 1;
#X connect 16 0 29 0;
#X connect 17 0 8 0;
#X connect 18 0 31 0;
#X connect 19 0 26 0;
#X connect 20 0 34 0;
#X connect 22 0 36 0;
#X connect 24 0 38 0;
#X connect 28 0 156 0;
#X connect 29 0 6 0;
#X connect 31 0 19 0;
#X connect 32 0 18 0;
#X connect 33 0 20 0;
#X connect 34 0 21 0;
#X connect 35 0 22 0;
#X connect 36 0 23 0;
#X connect 37 0 24 0;
#X connect 38 0 25 0;
#X connect 39 0 28 0;
#X connect 40 0 11 0;
#X connect 41 0 12 0;
#X connect 42 0 13 0;
#X connect 46 0 28 1;
#X connect 48 0 68 0;
#X connect 49 0 69 0;
#X connect 50 0 73 0;
#X connect 51 0 105 0;
#X connect 54 0 59 0;
#X connect 55 0 58 0;
#X connect 56 0 55 0;
#X connect 56 1 54 0;
#X connect 57 0 56 0;
#X connect 57 0 60 0;
#X connect 57 0 61 0;
#X connect 62 0 57 0;
#X connect 67 0 156 2;
#X connect 74 0 67 0;
#X connect 75 0 11 1;
#X connect 76 0 157 2;
#X connect 77 0 12 1;
#X connect 78 0 13 1;
#X connect 79 0 76 0;
#X connect 86 0 93 0;
#X connect 88 0 96 0;
#X connect 90 0 98 0;
#X connect 93 0 87 0;
#X connect 94 0 86 0;
#X connect 95 0 88 0;
#X connect 96 0 89 0;
#X connect 97 0 90 0;
#X connect 98 0 91 0;
#X connect 101 0 104 0;
#X connect 104 0 108 0;
#X connect 104 1 109 0;
#X connect 104 2 110 0;
#X connect 105 0 63 0;
#X connect 105 1 64 0;
#X connect 105 2 65 0;
#X connect 105 3 66 0;
#X connect 111 0 114 0;
#X connect 113 0 114 1;
#X connect 114 0 0 0;
#X connect 114 1 133 0;
#X connect 115 0 114 1;
#X connect 117 0 113 0;
#X connect 119 0 155 0;
#X connect 120 0 144 0;
#X connect 121 0 150 0;
#X connect 122 0 129 0;
#X connect 124 0 126 0;
#X connect 124 0 129 0;
#X connect 125 0 124 1;
#X connect 128 0 129 1;
#X connect 129 0 0 0;
#X connect 129 1 124 0;
#X connect 130 0 129 1;
#X connect 132 0 128 0;
#X connect 132 0 149 0;
#X connect 133 0 129 0;
#X connect 134 0 114 0;
#X connect 135 0 138 0;
#X connect 137 0 138 1;
#X connect 138 0 0 0;
#X connect 139 0 138 1;
#X connect 141 0 137 0;
#X connect 143 0 138 0;
#X connect 144 0 119 0;
#X connect 149 0 125 0;
#X connect 150 0 119 0;
#X connect 151 0 150 1;
#X connect 152 0 153 0;
#X connect 153 0 119 0;
#X connect 155 0 145 0;
#X connect 155 0 139 0;
#X connect 155 0 134 0;
#X connect 155 1 143 0;
#X connect 155 1 130 0;
#X connect 155 1 146 0;
#X connect 156 0 0 0;
#X connect 157 0 0 0;
#X coords 0 866 1 865 85 60 0;
