#N canvas 510 23 1568 890 10;
#X obj 583 658 readsf~;
#X msg 537 630 1;
#X obj 532 528 bng 15 250 50 0 empty empty empty 17 7 0 10 -262144
-1 -1;
#X obj 533 552 t b b;
#X obj 565 576 i;
#X obj 616 507 t b f;
#X obj 81 570 qlist;
#X msg 128 313 bang;
#X text 205 378 set relative tempo;
#X text 197 555 read a file;
#X msg 124 482 clear;
#X text 201 486 empty the qlist;
#X msg 128 379 tempo \$1;
#X obj 159 655 spigot;
#X obj 267 648 tgl 15 0 empty empty empty 17 7 0 10 -262144 -1 -1 1
1;
#X text 291 650 loop;
#X obj 64 54 loadbang;
#X msg 64 131 1;
#X msg 154 131 0.5;
#X text 61 15 INIT;
#X text 526 276 RECEIVE notes_seq from qlist (from txt file);
#X text 528 460 READ WAV;
#X text 224 352 TEMPO;
#X obj 64 158 s \$0-loopOn;
#X obj 154 158 s \$0-drywet;
#X obj 55 313 r \$0-loop;
#X obj 142 351 r \$0-tempo;
#X obj 145 439 r \$0-off;
#X obj 267 624 r \$0-loopOn;
#X obj 159 678 s \$0-loop;
#X obj 528 382 s \$0-sampleNum;
#X obj 616 482 r \$0-sampleNum;
#X obj 336 481 r \$0-on;
#X text 54 280 READ MIDI FILE TEMPO;
#X text 525 156 ON;
#X text 459 156 OFF;
#X obj 504 155 bng 15 250 50 0 empty empty empty 17 7 0 10 -262144
-1 -1;
#X obj 437 156 bng 15 250 50 0 empty empty empty 17 7 0 10 -262144
-1 -1;
#X obj 437 129 route 0 1;
#X obj 437 84 valueChanged;
#X obj 437 177 s \$0-off;
#X obj 504 177 s \$0-on;
#X obj 437 61 inlet;
#X text 433 37 on / off;
#X obj 456 105 print new state;
#X obj 151 601 print qlistdone;
#X obj 665 171 hsl 100 15 0.2 2 0 0 empty empty empty -2 -8 0 10 -262144
-1 -1 4531 1;
#X floatatom 773 172 5 0 0 0 - - -, f 5;
#X obj 662 196 s \$0-tempo;
#X obj 662 114 m_scale 0 1 0.2 2;
#X text 673 148 TEMPO 0.2->2;
#X obj 662 84 spigot 0;
#X obj 662 58 inlet;
#X obj 299 137 s \$0-innerState;
#X obj 731 84 r \$0-innerState;
#X obj 581 804 outlet~;
#X msg 121 534 read grelot_sounds/sequenceMouth1.txt;
#X msg 566 601 open grelot_sounds/mouth/Slice\$1.wav;
#X obj 528 315 r notes_seq_mouth1;
#X obj 550 350 print notes_seq_mouth1;
#X connect 0 0 55 0;
#X connect 1 0 0 0;
#X connect 2 0 3 0;
#X connect 3 0 1 0;
#X connect 3 1 4 0;
#X connect 4 0 57 0;
#X connect 5 0 2 0;
#X connect 5 1 4 1;
#X connect 6 1 13 0;
#X connect 7 0 6 0;
#X connect 10 0 6 0;
#X connect 12 0 6 0;
#X connect 13 0 29 0;
#X connect 14 0 13 1;
#X connect 16 0 17 0;
#X connect 16 0 18 0;
#X connect 17 0 23 0;
#X connect 18 0 24 0;
#X connect 25 0 7 0;
#X connect 26 0 12 0;
#X connect 27 0 10 0;
#X connect 28 0 14 0;
#X connect 31 0 5 0;
#X connect 32 0 56 0;
#X connect 36 0 41 0;
#X connect 37 0 40 0;
#X connect 38 0 37 0;
#X connect 38 1 36 0;
#X connect 39 0 38 0;
#X connect 39 0 44 0;
#X connect 39 0 53 0;
#X connect 42 0 39 0;
#X connect 46 0 47 0;
#X connect 46 0 48 0;
#X connect 49 0 46 0;
#X connect 51 0 49 0;
#X connect 52 0 51 0;
#X connect 54 0 51 1;
#X connect 56 0 6 0;
#X connect 56 0 7 0;
#X connect 57 0 0 0;
#X connect 58 0 30 0;
#X connect 58 0 59 0;
