#N canvas 297 23 1568 890 10;
#X obj 613 678 readsf~;
#X msg 567 650 1;
#X obj 562 548 bng 15 250 50 0 empty empty empty 17 7 0 10 -262144
-1 -1;
#X obj 563 572 t b b;
#X obj 595 596 i;
#X obj 646 527 t b f;
#X obj 113 765 qlist;
#X msg 160 508 bang;
#X obj 183 796 print done;
#X text 237 573 set relative tempo;
#X text 417 730 read a file;
#X msg 156 677 clear;
#X text 233 681 empty the qlist;
#X msg 160 574 tempo \$1;
#X obj 210 850 spigot;
#X obj 318 843 tgl 15 0 empty empty empty 17 7 0 10 -262144 -1 -1 1
1;
#X text 342 845 loop;
#X obj 1219 700 *~ 1;
#X floatatom 1328 625 5 0 0 0 - - -, f 5;
#X obj 1178 655 rev3~ 100 90 3000 20;
#X obj 1401 590 + 80;
#X obj 951 576 sig~;
#X obj 951 598 lop~ 5;
#X obj 1049 627 -~ 1;
#X obj 999 724 *~;
#X obj 1110 689 *~;
#X obj 1049 649 abs~;
#X obj 1205 571 *~ 1;
#X obj 1401 568 * 15;
#X text 953 528 Dry/Wet;
#X obj 954 551 hsl 100 15 0 1 0 0 empty empty empty -2 -8 0 10 -262144
-1 -1 4950 1;
#X obj 64 54 loadbang;
#X msg 64 131 1;
#X msg 154 131 0.5;
#X text 61 15 INIT;
#X text 62 280 RECEIVE notes_seq from qlist (from txt file);
#X text 557 472 READ WAV;
#X msg 244 131 0;
#X text 256 547 TEMPO;
#X obj 999 895 outlet~;
#X obj 64 158 s \$0-loopOn;
#X obj 154 158 s \$0-drywet;
#X obj 244 158 s \$0-reverb;
#X obj 87 508 r \$0-loop;
#X obj 174 546 r \$0-tempo;
#X obj 177 634 r \$0-off;
#X obj 318 819 r \$0-loopOn;
#X obj 182 882 s \$0-loop;
#X obj 64 386 s \$0-sampleNum;
#X obj 947 503 r \$0-drywet;
#X obj 1202 476 r~ \$0-audio;
#X obj 1400 541 r \$0-reverb;
#X obj 617 722 s~ \$0-audio;
#X obj 646 502 r \$0-sampleNum;
#X obj 368 676 r \$0-on;
#X msg 596 621 open grelot_sounds/tabla/Slice\$1.wav;
#X obj 64 319 r notes_seq_tabla;
#X obj 86 354 print notes_seq_tabla;
#X text 86 475 READ MIDI FILE TEMPO;
#X text 945 468 APPLY REVERB;
#X obj 793 66 inlet;
#X text 789 35 tempo;
#X obj 793 149 s \$0-tempo;
#X msg 156 729 read grelot_sounds/sequenceTabla.txt;
#X obj 913 66 inlet;
#X text 909 35 reverb;
#X obj 913 149 s \$0-reverb;
#X text 524 189 ON;
#X text 459 189 OFF;
#X obj 503 188 bng 15 250 50 0 empty empty empty 17 7 0 10 -262144
-1 -1;
#X obj 437 189 bng 15 250 50 0 empty empty empty 17 7 0 10 -262144
-1 -1;
#X obj 438 162 route 0 1;
#X obj 437 104 valueChanged;
#X obj 457 130 print new param1;
#X obj 437 215 s \$0-off;
#X obj 503 216 s \$0-on;
#X obj 437 61 inlet;
#X text 433 37 on / off;
#X connect 0 0 52 0;
#X connect 1 0 0 0;
#X connect 2 0 3 0;
#X connect 3 0 1 0;
#X connect 3 1 4 0;
#X connect 4 0 55 0;
#X connect 5 0 2 0;
#X connect 5 1 4 1;
#X connect 6 1 8 0;
#X connect 6 1 14 0;
#X connect 7 0 6 0;
#X connect 11 0 6 0;
#X connect 13 0 6 0;
#X connect 14 0 47 0;
#X connect 15 0 14 1;
#X connect 17 0 24 1;
#X connect 18 0 19 2;
#X connect 19 0 17 0;
#X connect 19 1 17 0;
#X connect 19 2 17 0;
#X connect 19 3 17 0;
#X connect 20 0 18 0;
#X connect 21 0 22 0;
#X connect 22 0 23 0;
#X connect 22 0 24 0;
#X connect 23 0 26 0;
#X connect 24 0 39 0;
#X connect 25 0 39 0;
#X connect 26 0 25 0;
#X connect 27 0 19 0;
#X connect 27 0 19 1;
#X connect 27 0 25 1;
#X connect 28 0 20 0;
#X connect 30 0 21 0;
#X connect 31 0 32 0;
#X connect 31 0 33 0;
#X connect 32 0 40 0;
#X connect 33 0 41 0;
#X connect 37 0 42 0;
#X connect 43 0 7 0;
#X connect 44 0 13 0;
#X connect 45 0 11 0;
#X connect 46 0 15 0;
#X connect 49 0 30 0;
#X connect 50 0 27 0;
#X connect 51 0 28 0;
#X connect 53 0 5 0;
#X connect 54 0 63 0;
#X connect 55 0 0 0;
#X connect 56 0 48 0;
#X connect 60 0 62 0;
#X connect 63 0 6 0;
#X connect 63 0 7 0;
#X connect 64 0 66 0;
#X connect 69 0 75 0;
#X connect 70 0 74 0;
#X connect 71 0 70 0;
#X connect 71 1 69 0;
#X connect 72 0 73 0;
#X connect 72 0 71 0;
#X connect 76 0 72 0;
