#N canvas 766 279 828 582 10;
#X obj 24 163 makenote;
#X obj 24 189 mtof;
#X obj 24 212 osc~;
#X text 24 11 OSC;
#X obj 24 77 inlet;
#X obj 24 373 outlet~;
#X obj 233 77 inlet;
#X text 21 57 midi notes;
#X obj 343 77 inlet;
#X obj 23 291 *~;
#X text 231 53 on;
#X msg 233 102 1;
#X text 341 53 off;
#X msg 343 99 0;
#X connect 0 0 1 0;
#X connect 0 1 1 0;
#X connect 1 0 2 0;
#X connect 2 0 9 0;
#X connect 4 0 0 0;
#X connect 6 0 11 0;
#X connect 8 0 13 0;
#X connect 9 0 5 0;
#X connect 11 0 9 1;
#X connect 13 0 9 1;
