#N canvas 223 23 1457 866 10;
#X obj 1019 1142 outlet~;
#X obj 184 944 s \$0-pressNothing;
#X obj 145 786 +;
#X floatatom 184 836 5 0 0 0 - - -, f 5;
#X obj 145 743 f;
#X text 128 622 If nothing pressed \, play default loop;
#X obj 130 650 r \$0-press0;
#X obj 130 677 t b f;
#X obj 130 713 bng 15 250 50 0 empty empty empty 17 7 0 10 -262144
-1 -1;
#X obj 273 739 f;
#X obj 236 677 t b f;
#X obj 236 650 r \$0-press1;
#X obj 373 739 f;
#X obj 336 677 t b f;
#X obj 336 650 r \$0-press2;
#X obj 145 811 +;
#X obj 473 739 f;
#X obj 436 677 t b f;
#X obj 436 650 r \$0-press3;
#X obj 145 835 +;
#X obj 184 860 moses 1;
#X obj 195 893 bng 15 250 50 0 empty empty empty 17 7 0 10 -262144
-1 -1;
#X obj 256 892 bng 15 250 50 0 empty empty empty 17 7 0 10 -262144
-1 -1;
#X obj 939 690 /;
#X obj 939 792 *~ 0;
#X obj 939 819 +~ 1;
#X msg 939 663 44100;
#X obj 939 637 t b f;
#X obj 939 764 phasor~ 0;
#X obj 939 721 f;
#X obj 1079 680 bng 15 250 50 0 empty empty empty 17 7 0 10 -262144
-1 -1;
#X floatatom 977 729 5 0 0 0 - - -, f 5;
#X obj 1019 1054 +~;
#X text 936 581 PLAYER;
#X obj 565 911 r \$0-pressNothing;
#X obj 773 929 r \$0-press0;
#X obj 965 929 r \$0-press1;
#X obj 1156 929 r \$0-press2;
#X obj 744 957 *~;
#X obj 936 957 *~;
#X obj 1127 957 *~;
#X obj 1317 957 *~;
#X obj 1346 929 r \$0-press3;
#X obj 939 610 r \$0-totsamps;
#X obj 982 796 r \$0-totsamps;
#X obj 1041 716 r \$0-off;
#X obj 1079 651 r \$0-on;
#X obj 257 372 symbol;
#X obj 257 429 soundfiler;
#X obj 697 376 symbol;
#X obj 697 433 soundfiler;
#X obj 1138 373 symbol;
#X obj 1138 430 soundfiler;
#X obj 1581 378 symbol;
#X obj 1580 435 soundfiler;
#X obj 2029 382 symbol;
#X obj 2028 439 soundfiler;
#X obj 257 457 s \$0-totsamps;
#X text 47 294 LOAD SOUNDS;
#X obj 534 957 *~;
#X msg 1041 739 0;
#N canvas 0 22 450 278 (subpatch) 0;
#X array ocarina-array1 1.0584e+06 float 4;
#X coords 0 1 1.0584e+06 -1 200 140 1;
#X restore 48 332 graph;
#X msg 257 401 read -resize \$1 ocarina-array1;
#X obj 257 342 r ocarina-readfile1;
#X obj 697 346 r ocarina-readfile2;
#X msg 697 405 read -resize \$1 ocarina-array2;
#X obj 1138 343 r ocarina-readfile3;
#X msg 1138 402 read -resize \$1 ocarina-array3;
#X obj 1581 351 r ocarina-readfile4;
#X msg 1580 407 read -resize \$1 ocarina-array4;
#X obj 2029 352 r ocarina-readfile5;
#X msg 2028 411 read -resize \$1 ocarina-array5;
#X obj 558 883 tabread4~ ocarina-array1;
#X obj 744 883 tabread4~ ocarina-array2;
#X obj 935 883 tabread4~ ocarina-array3;
#X obj 1125 883 tabread4~ ocarina-array4;
#X obj 1315 882 tabread4~ ocarina-array5;
#N canvas 0 22 450 278 (subpatch) 0;
#X array ocarina-array2 1.0584e+06 float 2;
#X coords 0 1 1.0584e+06 -1 200 140 1;
#X restore 490 343 graph;
#N canvas 0 22 450 278 (subpatch) 0;
#X array ocarina-array3 1.0584e+06 float 2;
#X coords 0 1 1.0584e+06 -1 200 140 1 0 0;
#X restore 929 342 graph;
#N canvas 0 22 450 278 (subpatch) 0;
#X array ocarina-array4 1.0584e+06 float 2;
#X coords 0 1 1.0584e+06 -1 200 140 1 0 0;
#X restore 1368 345 graph;
#N canvas 0 22 450 278 (subpatch) 0;
#X array ocarina-array5 1.0584e+06 float 2;
#X coords 0 1 1.0584e+06 -1 200 140 1 0 0;
#X restore 1815 350 graph;
#X msg 184 914 1;
#X msg 244 914 0;
#X obj 45 651 r \$0-on;
#X obj 568 933 r \$0-innerState;
#X text 130 31 on/off;
#X obj 293 67 inlet;
#X obj 385 67 inlet;
#X obj 478 67 inlet;
#X obj 577 67 inlet;
#X text 288 31 cratere 1;
#X text 379 31 cratere 2;
#X text 471 31 cratere 3;
#X text 570 31 cratere 4;
#X obj 692 67 inlet;
#X text 217 186 ON;
#X text 152 186 OFF;
#X obj 196 185 bng 15 250 50 0 empty empty empty 17 7 0 10 -262144
-1 -1;
#X obj 130 186 bng 15 250 50 0 empty empty empty 17 7 0 10 -262144
-1 -1;
#X obj 131 159 route 0 1;
#X obj 130 101 valueChanged;
#X obj 130 212 s \$0-off;
#X obj 196 213 s \$0-on;
#X obj 150 127 print new state;
#X obj 48 237 s \$0-innerState;
#X obj 130 67 inlet;
#X text 689 31 wav files to read;
#X obj 293 114 s \$0-press0;
#X obj 385 114 s \$0-press1;
#X obj 478 114 s \$0-press2;
#X obj 577 114 s \$0-press3;
#X obj 721 104 print filesToLoad;
#X obj 694 132 unpack s s s s s;
#X obj 694 241 s ocarina-readfile1 \$1;
#X obj 721 221 s ocarina-readfile2 \$2;
#X obj 748 201 s ocarina-readfile3 \$3;
#X obj 775 180 s ocarina-readfile4 \$4;
#X obj 803 160 s ocarina-readfile5 \$5;
#X connect 2 0 15 0;
#X connect 3 0 20 0;
#X connect 4 0 2 0;
#X connect 6 0 7 0;
#X connect 7 0 8 0;
#X connect 7 1 4 1;
#X connect 8 0 4 0;
#X connect 9 0 2 1;
#X connect 10 0 8 0;
#X connect 10 1 9 0;
#X connect 11 0 10 0;
#X connect 12 0 2 1;
#X connect 12 0 15 1;
#X connect 13 0 8 0;
#X connect 13 1 12 0;
#X connect 14 0 13 0;
#X connect 15 0 19 0;
#X connect 16 0 19 1;
#X connect 17 0 8 0;
#X connect 17 1 16 0;
#X connect 18 0 17 0;
#X connect 19 0 3 0;
#X connect 20 0 21 0;
#X connect 20 0 81 0;
#X connect 20 1 22 0;
#X connect 20 1 82 0;
#X connect 23 0 29 0;
#X connect 23 0 29 1;
#X connect 24 0 25 0;
#X connect 25 0 72 0;
#X connect 25 0 73 0;
#X connect 25 0 74 0;
#X connect 25 0 75 0;
#X connect 25 0 76 0;
#X connect 26 0 23 0;
#X connect 27 0 26 0;
#X connect 27 1 23 1;
#X connect 28 0 24 0;
#X connect 29 0 28 0;
#X connect 29 0 31 0;
#X connect 30 0 29 0;
#X connect 32 0 0 0;
#X connect 35 0 38 1;
#X connect 36 0 39 1;
#X connect 37 0 40 1;
#X connect 38 0 32 0;
#X connect 39 0 32 0;
#X connect 40 0 32 0;
#X connect 41 0 32 0;
#X connect 42 0 41 1;
#X connect 43 0 27 0;
#X connect 44 0 24 1;
#X connect 45 0 60 0;
#X connect 46 0 30 0;
#X connect 47 0 62 0;
#X connect 48 0 57 0;
#X connect 49 0 65 0;
#X connect 51 0 67 0;
#X connect 53 0 69 0;
#X connect 55 0 71 0;
#X connect 59 0 32 0;
#X connect 60 0 28 0;
#X connect 62 0 48 0;
#X connect 63 0 47 0;
#X connect 64 0 49 0;
#X connect 65 0 50 0;
#X connect 66 0 51 0;
#X connect 67 0 52 0;
#X connect 68 0 53 0;
#X connect 69 0 54 0;
#X connect 70 0 55 0;
#X connect 71 0 56 0;
#X connect 72 0 59 0;
#X connect 73 0 38 0;
#X connect 74 0 39 0;
#X connect 75 0 40 0;
#X connect 76 0 41 0;
#X connect 81 0 1 0;
#X connect 82 0 1 0;
#X connect 83 0 8 0;
#X connect 84 0 59 1;
#X connect 86 0 107 0;
#X connect 87 0 108 0;
#X connect 88 0 109 0;
#X connect 89 0 110 0;
#X connect 94 0 112 0;
#X connect 97 0 102 0;
#X connect 98 0 101 0;
#X connect 99 0 98 0;
#X connect 99 1 97 0;
#X connect 100 0 99 0;
#X connect 100 0 103 0;
#X connect 100 0 104 0;
#X connect 105 0 100 0;
#X connect 112 0 113 0;
#X connect 112 1 114 0;
#X connect 112 2 115 0;
#X connect 112 3 116 0;
#X connect 112 4 117 0;
