#N canvas 82 36 882 733 10;
#X obj 607 400 /;
#X obj 607 502 *~ 0;
#X obj 607 476 phasor~ 0;
#X obj 607 529 +~ 1;
#X msg 607 373 44100;
#X obj 607 347 t b f;
#X obj 263 371 symbol;
#X obj 262 428 soundfiler;
#X obj 607 433 f;
#X obj 747 392 bng 15 250 50 0 empty empty empty 17 7 0 10 -262144
-1 -1;
#X text 33 283 LOAD SOUNDFILE;
#X floatatom 645 441 5 0 0 0 - - -, f 5;
#X obj 262 456 s \$0-totsamps;
#X obj 607 320 r \$0-totsamps;
#X obj 748 363 r \$0-on;
#X obj 709 430 r \$0-off;
#X obj 650 506 r \$0-totsamps;
#N canvas 0 22 450 278 (subpatch) 0;
#X array corail-array1 264600 float 4;
#X coords 0 1 264599 -1 200 140 1 0 0;
#X restore 35 338 graph;
#X obj 263 341 r corail-readfile1;
#X msg 262 400 read -resize \$1 corail-array1;
#X obj 607 568 tabread4~ corail-array1;
#X text 602 289 READ ARRAY;
#X msg 709 452 0;
#X text 126 24 on/off;
#X obj 348 64 inlet;
#X text 213 179 ON;
#X text 148 179 OFF;
#X obj 192 178 bng 15 250 50 0 empty empty empty 17 7 0 10 -262144
-1 -1;
#X obj 126 179 bng 15 250 50 0 empty empty empty 17 7 0 10 -262144
-1 -1;
#X obj 127 152 route 0 1;
#X obj 126 94 valueChanged;
#X obj 126 205 s \$0-off;
#X obj 192 206 s \$0-on;
#X obj 146 120 print new state;
#X obj 44 230 s \$0-innerState;
#X obj 126 60 inlet;
#X obj 377 101 print filesToLoad;
#X text 345 28 wav files to load;
#X obj 348 124 s corail-readfile1 \$1;
#X obj 607 615 outlet~;
#X connect 0 0 8 1;
#X connect 0 0 8 0;
#X connect 1 0 3 0;
#X connect 2 0 1 0;
#X connect 3 0 20 0;
#X connect 4 0 0 0;
#X connect 5 0 4 0;
#X connect 5 1 0 1;
#X connect 6 0 19 0;
#X connect 7 0 12 0;
#X connect 8 0 2 0;
#X connect 8 0 11 0;
#X connect 9 0 8 0;
#X connect 13 0 5 0;
#X connect 14 0 9 0;
#X connect 15 0 22 0;
#X connect 16 0 1 1;
#X connect 18 0 6 0;
#X connect 19 0 7 0;
#X connect 20 0 39 0;
#X connect 22 0 2 0;
#X connect 24 0 38 0;
#X connect 27 0 32 0;
#X connect 28 0 31 0;
#X connect 29 0 28 0;
#X connect 29 1 27 0;
#X connect 30 0 29 0;
#X connect 30 0 33 0;
#X connect 30 0 34 0;
#X connect 35 0 30 0;
