#N canvas 275 23 1514 889 10;
#X declare -path abs/grelot_sounds;
#X declare -path abs/ocarina_sounds;
#X declare -path abs/corail_sounds;
#X declare -path abs/bolstick_sounds;
#X declare -path abs/instructions_sounds;
#X declare -path abs;
#X declare -path abs/rj;
#X obj 146 133 s maxVolume;
#X text 121 69 CONFIG SOUND DEVICES VOLUME;
#N canvas 0 50 257 177 SDmaxVol 0;
#X obj 29 100 /;
#X msg 29 80 1;
#X floatatom 80 123 5 0 0 0 - - -, f 5;
#X text 27 13 CONFIG SOUND DEVICES VOLUME;
#X text 68 41 number of devices;
#X obj 29 123 outlet;
#X obj 29 40 inlet;
#X obj 29 60 t b f;
#X connect 0 0 2 0;
#X connect 0 0 5 0;
#X connect 1 0 0 0;
#X connect 6 0 7 0;
#X connect 7 0 1 0;
#X connect 7 1 0 1;
#X restore 146 113 pd SDmaxVol;
#X floatatom 234 134 5 0 0 0 - - -, f 5;
#X obj 39 44 loadbang;
#X obj 619 843 *~ 0.9;
#X obj 40 218 r objectId;
#X obj 40 276 route 0 1 2 3;
#N canvas 599 112 744 725 receiveGameEngine2 1;
#X obj 29 69 oscparse;
#X obj 29 44 netreceive -u -b 9002;
#X obj 403 364 f;
#X obj 436 364 f;
#X obj 466 364 f;
#X obj 496 364 f;
#X obj 526 364 f;
#X obj 556 364 f;
#X obj 586 364 f;
#X obj 616 364 f;
#X obj 93 521 f;
#X obj 489 245 r packDatas;
#X obj 89 369 s packDatas;
#X obj 29 345 t b b;
#X obj 29 369 s idObj;
#X obj 42 492 r idObj;
#X obj 93 593 outlet;
#X obj 492 597 outlet;
#X obj 186 291 bng 15 250 50 0 empty empty empty 17 7 0 10 -262144
-1 -1;
#X obj 43 97 bng 15 250 50 0 empty empty empty 17 7 0 10 -262144 -1
-1;
#X obj 29 216 unpack s f f f f f f f f f;
#X obj 491 446 pack f f f f f f f f;
#X text 228 217 OSCaddress | objectId | state | preset | param1-2-3-4-5-6
;
#X obj 54 417 bng 15 250 50 0 empty empty empty 17 7 0 10 -262144 -1
-1;
#X obj 156 408 bng 15 250 50 0 empty empty empty 17 7 0 10 -262144
-1 -1;
#X obj 489 269 t b b b b b b b b;
#X obj 100 108 print OSC 9002;
#X connect 0 0 19 0;
#X connect 0 0 20 0;
#X connect 0 0 26 0;
#X connect 1 0 0 0;
#X connect 2 0 21 0;
#X connect 3 0 21 1;
#X connect 4 0 21 2;
#X connect 5 0 21 3;
#X connect 6 0 21 4;
#X connect 7 0 21 5;
#X connect 8 0 21 6;
#X connect 9 0 21 7;
#X connect 10 0 16 0;
#X connect 11 0 25 0;
#X connect 13 0 14 0;
#X connect 13 0 23 0;
#X connect 13 1 12 0;
#X connect 13 1 24 0;
#X connect 15 0 10 0;
#X connect 20 1 10 1;
#X connect 20 1 13 0;
#X connect 20 2 2 1;
#X connect 20 2 18 0;
#X connect 20 3 3 1;
#X connect 20 4 4 1;
#X connect 20 5 5 1;
#X connect 20 6 6 1;
#X connect 20 7 7 1;
#X connect 20 8 8 1;
#X connect 20 9 9 1;
#X connect 21 0 17 0;
#X connect 25 0 2 0;
#X connect 25 1 3 0;
#X connect 25 2 4 0;
#X connect 25 3 5 0;
#X connect 25 4 6 0;
#X connect 25 5 7 0;
#X connect 25 6 8 0;
#X connect 25 7 9 0;
#X restore 389 56 pd receiveGameEngine2;
#X obj 402 88 print objectId;
#X obj 533 110 s datas;
#X obj 128 219 r datas;
#X obj 389 112 s objectId;
#X obj 40 245 list append l;
#X obj 319 341 bng 15 250 50 0 empty empty empty 17 7 0 10 -262144
-1 -1;
#X obj 56 322 bng 15 250 50 0 empty empty empty 17 7 0 10 -262144 -1
-1;
#X obj 546 85 print datas (state preset param1-2-3-4-5-6;
#X obj 190 355 bng 15 250 50 0 empty empty empty 17 7 0 10 -262144
-1 -1;
#X msg 39 110 \; pd dsp 1;
#X obj 618 896 dac~;
#X obj 40 351 SD-grelotv2;
#N canvas 269 108 1087 807 instructionsPlayer 0;
#X obj 543 64 loadbang;
#X msg 613 206 disconnect;
#N canvas 409 199 759 551 Rpi_sendOSC 0;
#X obj 33 252 netsend -u -b;
#X obj 63 189 list prepend send;
#X obj 63 214 list trim;
#X text 138 253 send as UDP;
#X obj 35 70 inlet;
#X obj 64 98 inlet;
#X obj 12 113 bng 15 250 50 0 empty empty empty 17 7 0 10 -262144 -1
-1;
#X text 31 44 SOUNDDEVICE0;
#X obj 64 141 oscformat callback;
#X msg 330 149 symbol test;
#X connect 1 0 2 0;
#X connect 2 0 0 0;
#X connect 4 0 0 0;
#X connect 4 0 6 0;
#X connect 5 0 8 0;
#X connect 8 0 1 0;
#X connect 9 0 8 0;
#X restore 544 270 pd Rpi_sendOSC;
#X msg 554 158 connect localhost 9001;
#X obj 31 55 loadbang;
#X obj 29 148 oscparse;
#X obj 44 187 bng 15 250 50 0 empty empty empty 17 7 0 10 -262144 -1
-1;
#X msg 29 98 listen 9003;
#X obj 29 123 netreceive -u -b 9003;
#X obj 29 216 unpack s s s;
#X obj 96 178 print OSCparse;
#X text 128 217 OSCaddress | fileURL | callbackFunction;
#X text 30 25 RECEIVE OSC INSTRUCTIONS;
#X text 542 34 SEND OSC CALLBACK;
#X text 83 339 PLAYER;
#X obj 87 630 readsf~;
#X obj 194 661 symbol;
#X obj 99 507 bng 15 250 50 0 empty empty empty 17 7 0 10 -262144 -1
-1;
#X obj 168 662 bng 15 250 50 0 empty empty empty 17 7 0 10 -262144
-1 -1;
#X msg 290 531 start;
#X msg 87 545 open \$1;
#X obj 143 506 print fileURL;
#X obj 290 505 pipe 5;
#X obj 226 687 print callback \$2;
#X obj 87 772 outlet~;
#X msg 266 428 1;
#X msg 194 802 0;
#X text 225 801 player instruction off;
#X text 301 428 player instruction on;
#X text 628 368 TEST;
#X msg 749 453 symbol callBack;
#X obj 67 257 s \$0-fileURL;
#X obj 167 257 s \$0-callbackFunction;
#X obj 233 635 r \$0-callbackFunction;
#X obj 222 779 s \$0-OSCcallback;
#X obj 748 482 s \$0-callbackFunction;
#X obj 265 827 outlet;
#X obj 265 409 bng 15 250 50 0 empty empty empty 17 7 0 10 -262144
-1 -1;
#X obj 87 390 r \$0-fileURL;
#X obj 247 661 bng 15 250 50 0 empty empty empty 17 7 0 10 -262144
-1 -1;
#X msg 543 105 connect 192.168.4.1 9001;
#X text 578 85 IP du Raspberry;
#X text 560 137 pour test sur l'ordi;
#X obj 639 243 r \$0-OSCcallback;
#X obj 637 430 s \$0-fileURL;
#X msg 637 396 symbol abs/instructions_sounds/000_generique_aToiDeJouer.WAV
;
#X msg 390 704 clear;
#X obj 390 681 r \$0-fileURL;
#X connect 0 0 40 0;
#X connect 1 0 2 0;
#X connect 4 0 7 0;
#X connect 5 0 6 0;
#X connect 5 0 9 0;
#X connect 5 0 10 0;
#X connect 7 0 8 0;
#X connect 8 0 5 0;
#X connect 9 1 31 0;
#X connect 9 2 32 0;
#X connect 15 0 24 0;
#X connect 15 1 18 0;
#X connect 15 1 16 0;
#X connect 16 0 23 0;
#X connect 16 0 34 0;
#X connect 16 0 26 0;
#X connect 19 0 15 0;
#X connect 20 0 15 0;
#X connect 22 0 19 0;
#X connect 25 0 36 0;
#X connect 26 0 36 0;
#X connect 30 0 35 0;
#X connect 33 0 16 1;
#X connect 33 0 39 0;
#X connect 38 0 17 0;
#X connect 38 0 21 0;
#X connect 38 0 22 0;
#X connect 38 0 20 0;
#X connect 38 0 25 0;
#X connect 38 0 37 0;
#X connect 40 0 2 0;
#X connect 43 0 2 1;
#X connect 45 0 44 0;
#X connect 47 0 46 0;
#X restore 887 49 pd instructionsPlayer;
#X obj 33 672 declare -path abs/grelot_sounds;
#X obj 33 694 declare -path abs/ocarina_sounds;
#X obj 430 301 bng 15 250 50 0 empty empty empty 17 7 0 10 -262144
-1 -1;
#X obj 418 327 SD-corailv2;
#X msg 125 86 4;
#X text 41 19 INIT;
#X text 385 24 RECEIVE OSC DATAS CONTROLLERS;
#X text 883 20 INSTRUCTIONS PLAYER;
#X text 37 190 AUDIO ENGINE;
#X obj 33 740 declare -path abs/corail_sounds;
#X obj 33 716 declare -path abs/bolstick_sounds;
#X obj 715 782 *~;
#X obj 682 323 route 0 1;
#X msg 682 364 0;
#X obj 682 392 s \$0-volumeDevices;
#X msg 722 364 1;
#X obj 511 749 *~;
#X msg 887 363 0;
#X obj 847 392 s \$0-volumePlayerInstructions;
#X text 679 261 SWITCH SOUND BETWEEN DEVICES AND INSTRUCTIONS PLAYER
;
#X obj 791 714 bng 15 250 50 0 empty empty empty 17 7 0 10 -262144
-1 -1;
#X obj 592 678 bng 15 250 50 0 empty empty empty 17 7 0 10 -262144
-1 -1;
#X obj 715 666 r~ \$0-soundInstructions;
#X obj 733 689 r \$0-volumePlayerInstructions;
#X obj 529 654 r \$0-volumeDevices;
#X floatatom 545 679 5 0 0 0 - - -, f 5;
#X floatatom 747 714 5 0 0 0 - - -, f 5;
#X obj 1031 83 s \$0-playerInstructions;
#X obj 682 294 r \$0-playerInstructions;
#X obj 658 366 bng 15 250 50 0 empty empty empty 17 7 0 10 -262144
-1 -1;
#X obj 919 364 bng 15 250 50 0 empty empty empty 17 7 0 10 -262144
-1 -1;
#X obj 33 763 declare -path abs/instructions_sounds;
#X obj 216 40 s \$0-volumeDevices;
#X msg 216 16 1;
#X obj 887 128 s~ \$0-soundInstructions;
#X msg 847 363 1;
#X obj 529 723 line;
#X obj 733 758 line;
#X obj 80 534 *~;
#X obj 120 461 loadbang;
#X obj 101 507 hsl 50 15 0 1 0 0 empty empty empty -2 -8 0 10 -262144
-1 -1 4900 1;
#X obj 260 534 *~;
#X obj 300 461 loadbang;
#X obj 281 507 hsl 50 15 0 1 0 0 empty empty empty -2 -8 0 10 -262144
-1 -1 4900 1;
#X obj 380 534 *~;
#X obj 420 461 loadbang;
#X obj 401 507 hsl 50 15 0 1 0 0 empty empty empty -2 -8 0 10 -262144
-1 -1 4900 1;
#X obj 490 534 *~;
#X obj 530 461 loadbang;
#X obj 511 507 hsl 50 15 0 1 0 0 empty empty empty -2 -8 0 10 -262144
-1 -1 4900 1;
#X msg 530 485 1;
#X msg 529 700 \$1 100;
#X msg 733 735 \$1 100;
#X obj 307 367 SD-bolstickv3;
#X obj 527 534 *~;
#X msg 420 485 1;
#X msg 300 485 1;
#X msg 120 485 1;
#X obj 33 650 declare -path abs;
#X obj 33 786 declare -path abs/rj;
#X obj 176 386 SD-ocarinav3;
#X connect 2 0 3 0;
#X connect 2 0 0 0;
#X connect 4 0 18 0;
#X connect 4 0 26 0;
#X connect 4 0 55 0;
#X connect 5 0 19 0;
#X connect 5 0 19 1;
#X connect 6 0 13 0;
#X connect 7 0 15 0;
#X connect 7 0 20 0;
#X connect 7 1 17 0;
#X connect 7 1 82 0;
#X connect 7 2 14 0;
#X connect 7 2 75 0;
#X connect 7 3 25 0;
#X connect 7 3 24 0;
#X connect 8 0 12 0;
#X connect 8 1 10 0;
#X connect 11 0 13 1;
#X connect 13 0 7 0;
#X connect 20 0 60 0;
#X connect 21 0 56 0;
#X connect 21 1 49 0;
#X connect 25 0 69 0;
#X connect 25 0 76 0;
#X connect 26 0 2 0;
#X connect 33 0 5 0;
#X connect 34 0 51 0;
#X connect 34 0 37 0;
#X connect 34 0 39 0;
#X connect 34 1 52 0;
#X connect 34 1 57 0;
#X connect 34 1 35 0;
#X connect 35 0 36 0;
#X connect 37 0 36 0;
#X connect 38 0 5 0;
#X connect 39 0 40 0;
#X connect 44 0 33 0;
#X connect 45 0 42 0;
#X connect 45 0 48 0;
#X connect 45 0 74 0;
#X connect 46 0 43 0;
#X connect 46 0 47 0;
#X connect 46 0 73 0;
#X connect 50 0 34 0;
#X connect 55 0 54 0;
#X connect 57 0 40 0;
#X connect 58 0 38 1;
#X connect 59 0 33 1;
#X connect 60 0 38 0;
#X connect 61 0 79 0;
#X connect 62 0 60 1;
#X connect 63 0 38 0;
#X connect 64 0 78 0;
#X connect 65 0 63 1;
#X connect 66 0 38 0;
#X connect 67 0 77 0;
#X connect 68 0 66 1;
#X connect 69 0 38 0;
#X connect 70 0 72 0;
#X connect 71 0 69 1;
#X connect 71 0 76 1;
#X connect 72 0 71 0;
#X connect 73 0 58 0;
#X connect 74 0 59 0;
#X connect 75 0 66 0;
#X connect 76 0 38 0;
#X connect 77 0 68 0;
#X connect 78 0 65 0;
#X connect 79 0 62 0;
#X connect 82 0 63 0;
