#N canvas 65 65 1016 820 10;
#X msg 1087 152 open;
#X msg 1145 233 stop;
#X msg 1176 279 loop \$1;
#X obj 1176 259 tgl 15 0 empty empty empty 17 7 0 10 -262144 -1 -1
0 1;
#X msg 1140 209 play 500;
#X obj 1576 188 metro 125;
#X obj 1576 165 tgl 15 0 empty empty empty 17 7 0 10 -262144 -1 -1
0 1;
#X floatatom 1492 509 8 0 0 3 dur_in_smps - -, f 8;
#X floatatom 1418 509 8 0 0 3 dur_in_ms - -, f 8;
#X symbolatom 1343 509 10 0 0 3 table_name - -, f 10;
#X obj 1343 459 unpack s f f f;
#X floatatom 1576 509 6 0 0 3 samplerate - -, f 6;
#X obj 1418 558 s \$0-duration;
#X obj 1668 88 r \$0-duration;
#X obj 1257 476 bng 15 50 50 0 empty empty bang_on_start 0 25 1 10
-262144 -1 -1;
#X msg 1127 184 play;
#X text 1170 184 all from start;
#X text 1211 209 play all starting 500 ms into sample;
#X text 1133 153 open a file;
#X text 1235 280 loop file;
#X msg 1177 308 sr 22050;
#X obj 1481 371 hradio 8 1 0 64 empty empty empty 0 -8 0 10 -262144
-1 -1 16;
#X text 1247 308 set samplerate of file (default 22050 Hz);
#X text 1455 458 sample file info;
#X msg 1179 330 sr 44100;
#X msg 1180 358 fade 0;
#X msg 1180 379 info;
#X text 1231 379 print info to last outlet;
#X text 1233 358 adjust fade time (default 2ms);
#X obj 1576 246 f;
#X obj 1605 245 + 1;
#N canvas 452 29 1098 724 btrpt 1;
#X floatatom 160 448 5 0 1000 0 - - -, f 5;
#X msg 166 500 feedback 1;
#X text 173 480 feedback level. If 1 the chunk gets repeated endlessly.
;
#X msg 216 319 dry 1;
#X msg 256 319 dry 0;
#X text 248 521 dry signal (1) - wet signal (0);
#X msg 329 629 num 4;
#X msg 282 629 num 0;
#X msg 376 629 num 16;
#X text 423 619 number of repetitions (default (0) is endless);
#X obj 38 674 e_repeater repea;
#X text 204 447 length of the chunk repeated in ms triggers new recording.
Max 1000!;
#X obj 46 26 inlet~;
#X obj 38 703 outlet~;
#X obj 164 150 r \$0-duration;
#X obj 191 261 tgl 15 0 empty empty empty 17 7 0 10 -262144 -1 -1 0
1;
#X floatatom 165 319 5 0 0 0 - - -, f 5;
#X obj 165 362 / \$1;
#X obj 177 294 bng 15 250 50 0 empty empty empty 17 7 0 10 -262144
-1 -1;
#X obj 216 286 select;
#X msg 248 500 feedback 0;
#X obj 288 58 vsl 15 128 0 1 0 0 empty empty empty 0 -9 0 10 -262144
-1 -1 0 0;
#X obj 394 221 * 4;
#X obj 394 291 select 0 1 2 3;
#X obj 394 245 int;
#X obj 177 228 select 0;
#X floatatom 394 347 5 0 0 0 - - -, f 5;
#X msg 421 319 8;
#X msg 394 319 1;
#X text 530 321 1 8 32 64;
#X msg 448 319 16;
#X msg 475 319 32;
#X obj 288 32 inlet;
#X msg 135 129 12000;
#X connect 0 0 10 1;
#X connect 1 0 10 1;
#X connect 3 0 10 1;
#X connect 4 0 10 1;
#X connect 6 0 10 1;
#X connect 7 0 10 1;
#X connect 8 0 10 1;
#X connect 10 0 13 0;
#X connect 12 0 10 0;
#X connect 14 0 16 0;
#X connect 15 0 18 0;
#X connect 15 0 19 0;
#X connect 16 0 17 0;
#X connect 17 0 0 0;
#X connect 18 0 16 0;
#X connect 19 0 3 0;
#X connect 19 1 4 0;
#X connect 20 0 10 1;
#X connect 21 0 22 0;
#X connect 21 0 25 0;
#X connect 22 0 24 0;
#X connect 23 0 28 0;
#X connect 23 1 27 0;
#X connect 23 2 30 0;
#X connect 23 3 31 0;
#X connect 23 4 31 0;
#X connect 24 0 23 0;
#X connect 25 0 15 0;
#X connect 25 1 15 0;
#X connect 26 0 17 1;
#X connect 27 0 26 0;
#X connect 28 0 26 0;
#X connect 30 0 26 0;
#X connect 31 0 26 0;
#X connect 32 0 21 0;
#X connect 33 0 16 0;
#X restore 131 585 pd btrpt;
#X obj 390 630 e_freqshift \$0-NAME;
#X floatatom 467 585 5 0 0 0 - - -, f 5;
#X obj 455 554 hsl 128 15 0 555 0 0 empty empty empty -2 -8 0 10 -262144
-1 -1 0 1;
#X obj 129 673 soundoutput;
#X msg 1233 256 sr \$1;
#X obj 1236 228 hsl 128 15 0 96000 0 0 empty empty empty -2 -8 0 10
-262144 -1 -1 0 1;
#X obj 1576 277 +;
#X obj 1641 230 tgl 15 0 empty empty repeat 17 7 0 10 -262144 -1 -1
0 1;
#X obj 1786 137 vsl 15 128 0.64 64 1 0 empty empty random 0 -9 0 10
-262144 -1 -1 0 1;
#X floatatom 1787 277 5 0 0 0 - - -, f 5;
#X obj 1669 149 / 32;
#X obj 1710 216 random 32;
#X obj 1575 314 mod 32;
#X msg 1572 389 playdiv 32 \$1 1;
#X obj 1087 413 s_looper \$0-mysample _test_corail.wav;
#X obj 134 470 s_drumelectro;
#X obj 267 134 loadbang;
#X obj 137 227 select 0 4 8 12 15;
#X obj 137 152 tgl 15 0 empty empty empty 17 7 0 10 -262144 -1 -1 0
1;
#X msg 186 287 bd;
#X obj 134 399 r \$0-drums;
#X obj 137 317 s \$0-drums;
#X msg 309 284 sn;
#X msg 346 284 sn;
#X obj 309 225 select 4 12;
#X msg 469 288 hh;
#X msg 552 295 oh;
#X obj 469 229 select 0 2 4 12;
#X obj 163 432 g_hsl hhtune 0 2;
#N canvas 0 22 450 300 rand 0;
#X obj 94 158 outlet;
#X obj 94 22 inlet;
#X obj 94 47 t b a;
#X obj 94 123 list prepend;
#X obj 94 99 + 500;
#X obj 94 73 random 1500;
#X connect 1 0 2 0;
#X connect 2 0 5 0;
#X connect 2 1 3 1;
#X connect 3 0 0 0;
#X connect 4 0 3 0;
#X connect 5 0 4 0;
#X restore 552 322 pd rand;
#X msg 641 289 cp;
#N canvas 0 22 450 300 rand 0;
#X obj 94 158 outlet;
#X obj 94 22 inlet;
#X obj 94 47 t b a;
#X obj 94 123 list prepend;
#X obj 94 100 + 80;
#X obj 94 73 random 20;
#X floatatom 134 101 5 0 0 0 - - -, f 5;
#X connect 1 0 2 0;
#X connect 2 0 5 0;
#X connect 2 1 3 1;
#X connect 3 0 0 0;
#X connect 4 0 3 0;
#X connect 5 0 4 0;
#X connect 6 0 4 1;
#X restore 641 322 pd rand;
#N canvas 0 22 450 300 rand 0;
#X obj 94 158 outlet;
#X obj 94 22 inlet;
#X obj 94 47 t b a;
#X obj 94 123 list prepend;
#X obj 94 100 + 50;
#X obj 94 73 random 100;
#X connect 1 0 2 0;
#X connect 2 0 5 0;
#X connect 2 1 3 1;
#X connect 3 0 0 0;
#X connect 4 0 3 0;
#X connect 5 0 4 0;
#X restore 469 321 pd rand;
#N canvas 0 22 450 300 rand 0;
#X obj 94 100 + 100;
#X obj 94 158 outlet;
#X obj 94 22 inlet;
#X obj 94 47 t b a;
#X obj 94 123 list prepend;
#X obj 94 73 random 200;
#X connect 0 0 4 0;
#X connect 2 0 3 0;
#X connect 3 0 5 0;
#X connect 3 1 4 1;
#X connect 4 0 1 0;
#X connect 5 0 0 0;
#X restore 346 308 pd rand;
#X obj 134 513 *~ 0.5;
#X msg 267 154 110 90;
#X text 36 34 s_drumelectro;
#X text 70 70 silly electronic drummachine for quick testing.;
#N canvas 0 22 755 571 pass 0;
#X obj 67 88 random 100;
#X obj 67 158 sel 1;
#X obj 67 202 outlet;
#X obj 67 29 inlet;
#X obj 172 29 inlet;
#X obj 67 111 < 100;
#X obj 67 179 list;
#X obj 67 55 t b a;
#X floatatom 130 114 5 0 100 0 - - -, f 5;
#X connect 0 0 5 0;
#X connect 1 0 6 0;
#X connect 3 0 7 0;
#X connect 4 0 5 1;
#X connect 5 0 1 0;
#X connect 6 0 2 0;
#X connect 7 0 0 0;
#X connect 7 1 6 1;
#X connect 8 0 5 1;
#X coords 0 -1 1 1 85 30 1 100 100;
#X restore 309 358 pd pass;
#X obj 309 392 s \$0-drums;
#N canvas 0 22 755 571 pass 0;
#X obj 67 88 random 100;
#X obj 67 158 sel 1;
#X obj 67 202 outlet;
#X obj 67 29 inlet;
#X obj 172 29 inlet;
#X obj 67 111 < 100;
#X obj 67 179 list;
#X obj 67 55 t b a;
#X floatatom 130 114 5 0 100 0 - - -, f 5;
#X connect 0 0 5 0;
#X connect 1 0 6 0;
#X connect 3 0 7 0;
#X connect 4 0 5 1;
#X connect 5 0 1 0;
#X connect 6 0 2 0;
#X connect 7 0 0 0;
#X connect 7 1 6 1;
#X connect 8 0 5 1;
#X coords 0 -1 1 1 85 30 1 100 100;
#X restore 469 361 pd pass;
#X obj 469 395 s \$0-drums;
#N canvas 0 22 755 571 pass 0;
#X obj 67 88 random 100;
#X obj 67 158 sel 1;
#X obj 67 202 outlet;
#X obj 67 29 inlet;
#X obj 172 29 inlet;
#X obj 67 111 < 100;
#X obj 67 179 list;
#X obj 67 55 t b a;
#X floatatom 130 114 5 0 100 0 - - -, f 5;
#X connect 0 0 5 0;
#X connect 1 0 6 0;
#X connect 3 0 7 0;
#X connect 4 0 5 1;
#X connect 5 0 1 0;
#X connect 6 0 2 0;
#X connect 7 0 0 0;
#X connect 7 1 6 1;
#X connect 8 0 5 1;
#X coords 0 -1 1 1 85 30 1 100 100;
#X restore 641 357 pd pass;
#X obj 641 391 s \$0-drums;
#X text 543 64 hh: hihat;
#X text 543 80 oh: open hihat;
#X text 542 47 bd: bass drum;
#X text 542 96 sn: snare;
#X text 310 437 hihat tuning;
#X obj 641 230 select 8 11 14;
#X text 443 145 Most can optionally be extended with the decay time
\, "cp" with midi like velocity.;
#X text 542 112 cp: clap;
#X obj 549 487 u_loadmeter;
#X msg 137 286 bd 500;
#X obj 137 177 c_multimetro 16 300;
#X obj 206 550 hsl 128 15 0 1 0 0 empty empty empty -2 -8 0 10 -262144
-1 -1 0 1;
#X floatatom 1411 600 5 0 0 0 - - -, f 5;
#X connect 0 0 46 0;
#X connect 1 0 46 0;
#X connect 2 0 46 0;
#X connect 3 0 2 0;
#X connect 4 0 46 0;
#X connect 5 0 29 0;
#X connect 5 0 43 0;
#X connect 6 0 5 0;
#X connect 8 0 12 0;
#X connect 8 0 88 0;
#X connect 10 0 9 0;
#X connect 10 1 8 0;
#X connect 10 2 7 0;
#X connect 10 3 11 0;
#X connect 13 0 42 0;
#X connect 15 0 46 0;
#X connect 20 0 46 0;
#X connect 21 0 45 0;
#X connect 24 0 46 0;
#X connect 25 0 46 0;
#X connect 26 0 46 0;
#X connect 29 0 30 0;
#X connect 29 0 38 0;
#X connect 30 0 29 1;
#X connect 31 0 32 0;
#X connect 31 0 35 0;
#X connect 32 0 35 0;
#X connect 33 0 32 1;
#X connect 34 0 33 0;
#X connect 36 0 46 0;
#X connect 37 0 36 0;
#X connect 38 0 44 0;
#X connect 39 0 30 1;
#X connect 40 0 41 0;
#X connect 40 0 43 1;
#X connect 42 0 5 1;
#X connect 43 0 38 1;
#X connect 44 0 21 0;
#X connect 45 0 46 0;
#X connect 46 2 14 0;
#X connect 46 3 10 0;
#X connect 47 0 66 0;
#X connect 48 0 67 0;
#X connect 49 0 85 0;
#X connect 49 1 51 0;
#X connect 49 2 51 0;
#X connect 49 3 51 0;
#X connect 49 4 51 0;
#X connect 50 0 86 0;
#X connect 51 0 53 0;
#X connect 52 0 47 0;
#X connect 54 0 70 0;
#X connect 55 0 65 0;
#X connect 56 0 54 0;
#X connect 56 1 55 0;
#X connect 57 0 64 0;
#X connect 58 0 61 0;
#X connect 59 1 57 0;
#X connect 59 2 58 0;
#X connect 59 3 58 0;
#X connect 59 4 57 0;
#X connect 60 0 47 0;
#X connect 61 0 72 0;
#X connect 62 0 63 0;
#X connect 63 0 74 0;
#X connect 64 0 72 0;
#X connect 65 0 70 0;
#X connect 66 0 31 0;
#X connect 67 0 86 2;
#X connect 70 0 71 0;
#X connect 72 0 73 0;
#X connect 74 0 75 0;
#X connect 81 0 62 0;
#X connect 81 1 62 0;
#X connect 81 2 62 0;
#X connect 85 0 53 0;
#X connect 86 0 49 0;
#X connect 86 0 56 0;
#X connect 86 0 59 0;
#X connect 86 0 81 0;
#X connect 87 0 31 1;
