#N canvas 352 23 1050 700 10;
#X msg 93 128 open;
#X msg 151 209 stop;
#X msg 182 255 loop \$1;
#X obj 182 235 tgl 15 0 empty empty empty 17 7 0 10 -262144 -1 -1 0
1;
#X msg 146 185 play 500;
#X obj 582 164 metro 125;
#X obj 582 141 tgl 15 0 empty empty empty 17 7 0 10 -262144 -1 -1 0
1;
#X floatatom 498 485 8 0 0 3 dur_in_smps - -, f 8;
#X floatatom 424 485 8 0 0 3 dur_in_ms - -, f 8;
#X symbolatom 349 485 10 0 0 3 table_name - -, f 10;
#X obj 349 435 unpack s f f f;
#X floatatom 582 485 6 0 0 3 samplerate - -, f 6;
#X obj 424 534 s \$0-duration;
#X obj 674 64 r \$0-duration;
#X obj 263 452 bng 15 50 50 0 empty empty bang_on_start 0 25 1 10 -262144
-1 -1;
#X msg 133 160 play;
#X text 176 160 all from start;
#X text 217 185 play all starting 500 ms into sample;
#X text 139 129 open a file;
#X text 241 256 loop file;
#X msg 183 284 sr 22050;
#X obj 487 347 hradio 8 1 0 64 empty empty empty 0 -8 0 10 -262144
-1 -1 16;
#X text 253 284 set samplerate of file (default 22050 Hz);
#X text 461 434 sample file info;
#X msg 185 306 sr 44100;
#X msg 186 334 fade 0;
#X msg 186 355 info;
#X text 237 355 print info to last outlet;
#X text 239 334 adjust fade time (default 2ms);
#X obj 582 222 f;
#X obj 611 221 + 1;
#N canvas 211 60 1014 629 btrpt 0;
#X floatatom 165 323 5 0 1000 0 - - -, f 5;
#X msg 171 375 feedback 1;
#X text 178 355 feedback level. If 1 the chunk gets repeated endlessly.
;
#X msg 221 194 dry 1;
#X msg 261 194 dry 0;
#X text 253 396 dry signal (1) - wet signal (0);
#X msg 334 504 num 4;
#X msg 287 504 num 0;
#X msg 381 504 num 16;
#X text 428 494 number of repetitions (default (0) is endless);
#X obj 43 549 e_repeater repea;
#X text 209 322 length of the chunk repeated in ms triggers new recording.
Max 1000!;
#X obj 42 104 inlet~;
#X obj 46 578 outlet~;
#X obj 169 25 r \$0-duration;
#X obj 196 136 tgl 15 0 empty empty empty 17 7 0 10 -262144 -1 -1 0
1;
#X floatatom 170 194 5 0 0 0 - - -, f 5;
#X obj 170 237 / \$1;
#X obj 182 169 bng 15 250 50 0 empty empty empty 17 7 0 10 -262144
-1 -1;
#X obj 221 161 select;
#X msg 253 375 feedback 0;
#X obj 293 -67 vsl 15 128 0 1 0 0 empty empty empty 0 -9 0 10 -262144
-1 -1 0 0;
#X obj 399 96 * 4;
#X obj 399 166 select 0 1 2 3;
#X obj 399 120 int;
#X obj 182 103 select 0;
#X floatatom 399 222 5 0 0 0 - - -, f 5;
#X msg 480 194 64;
#X msg 426 194 8;
#X msg 453 194 32;
#X msg 399 194 1;
#X connect 0 0 10 1;
#X connect 1 0 10 1;
#X connect 3 0 10 1;
#X connect 4 0 10 1;
#X connect 6 0 10 1;
#X connect 7 0 10 1;
#X connect 8 0 10 1;
#X connect 10 0 13 0;
#X connect 12 0 10 0;
#X connect 14 0 16 0;
#X connect 15 0 18 0;
#X connect 15 0 19 0;
#X connect 16 0 17 0;
#X connect 17 0 0 0;
#X connect 18 0 16 0;
#X connect 19 0 3 0;
#X connect 19 1 4 0;
#X connect 20 0 10 1;
#X connect 21 0 22 0;
#X connect 21 0 25 0;
#X connect 22 0 24 0;
#X connect 23 0 30 0;
#X connect 23 1 28 0;
#X connect 23 2 29 0;
#X connect 23 3 27 0;
#X connect 23 4 27 0;
#X connect 24 0 23 0;
#X connect 25 0 15 0;
#X connect 25 1 15 0;
#X connect 26 0 17 1;
#X connect 27 0 26 0;
#X connect 28 0 26 0;
#X connect 29 0 26 0;
#X connect 30 0 26 0;
#X restore 57 545 pd btrpt;
#X obj 95 495 e_freqshift \$0-NAME;
#X floatatom 172 450 5 0 0 0 - - -, f 5;
#X obj 160 419 hsl 128 15 0 555 0 0 empty empty empty -2 -8 0 10 -262144
-1 -1 0 1;
#X msg 277 561 depth \$1;
#X obj 135 562 e_bitcrusher bc1000 4;
#X floatatom 277 503 5 0 0 0 - - -, f 5;
#X obj 350 622 mtof;
#X floatatom 350 601 5 0 127 2 pitch - -, f 5;
#X floatatom 386 602 5 0 0 2 Q - -, f 5;
#X obj 164 622 e_lop2 1000 2;
#X obj 82 661 soundoutput;
#X msg 239 232 sr \$1;
#X obj 242 204 hsl 128 15 0 96000 0 0 empty empty empty -2 -8 0 10
-262144 -1 -1 0 1;
#X obj 582 253 +;
#X obj 647 206 tgl 15 0 empty empty repeat 17 7 0 10 -262144 -1 -1
0 1;
#X obj 792 113 vsl 15 128 0.64 64 1 0 empty empty random 0 -9 0 10
-262144 -1 -1 0 1;
#X floatatom 744 214 5 0 0 0 - - -, f 5;
#X obj 675 125 / 32;
#X obj 716 192 random 32;
#X obj 581 290 mod 32;
#X msg 578 365 playdiv 32 \$1 1;
#X obj 286 541 hsl 128 15 30 8000 0 0 empty empty empty -2 -8 0 10
-262144 -1 -1 0 0;
#X obj 93 389 s_looper \$0-mysample _test_corail.wav;
#X connect 0 0 54 0;
#X connect 1 0 54 0;
#X connect 2 0 54 0;
#X connect 3 0 2 0;
#X connect 4 0 54 0;
#X connect 5 0 29 0;
#X connect 5 0 50 0;
#X connect 6 0 5 0;
#X connect 8 0 12 0;
#X connect 10 0 9 0;
#X connect 10 1 8 0;
#X connect 10 2 7 0;
#X connect 10 3 11 0;
#X connect 13 0 49 0;
#X connect 15 0 54 0;
#X connect 20 0 54 0;
#X connect 21 0 52 0;
#X connect 24 0 54 0;
#X connect 25 0 54 0;
#X connect 26 0 54 0;
#X connect 29 0 30 0;
#X connect 29 0 45 0;
#X connect 30 0 29 1;
#X connect 31 0 42 0;
#X connect 32 0 36 0;
#X connect 33 0 32 1;
#X connect 34 0 33 0;
#X connect 35 0 36 1;
#X connect 36 0 41 0;
#X connect 37 0 35 0;
#X connect 38 0 41 1;
#X connect 39 0 38 0;
#X connect 40 0 41 2;
#X connect 41 0 42 0;
#X connect 43 0 54 0;
#X connect 44 0 43 0;
#X connect 45 0 51 0;
#X connect 46 0 30 1;
#X connect 47 0 48 0;
#X connect 47 0 50 1;
#X connect 49 0 5 1;
#X connect 50 0 45 1;
#X connect 51 0 21 0;
#X connect 52 0 54 0;
#X connect 53 0 35 0;
#X connect 54 0 31 0;
#X connect 54 2 14 0;
#X connect 54 3 10 0;
