#N canvas 502 23 1073 839 10;
#X text 48 22 INIT;
#X obj 50 48 loadbang;
#X obj 58 492 /;
#X obj 58 594 *~ 0;
#X obj 58 568 phasor~ 0;
#X obj 58 621 +~ 1;
#X msg 58 465 44100;
#X obj 58 439 t b f;
#X obj 279 240 symbol;
#X obj 278 297 soundfiler;
#X obj 58 525 f;
#X obj 198 484 bng 15 250 50 0 empty empty empty 17 7 0 10 -262144
-1 -1;
#X text 49 152 LOAD SOUNDFILE;
#X floatatom 96 533 5 0 0 0 - - -, f 5;
#X obj 278 325 s \$0-totsamps;
#X obj 58 412 r \$0-totsamps;
#X obj 199 455 r \$0-on;
#X obj 160 522 r \$0-off;
#X obj 101 598 r \$0-totsamps;
#N canvas 0 22 450 278 (subpatch) 0;
#X array corail-array1 264600 float 4;
#X coords 0 1 264599 -1 200 140 1 0 0;
#X restore 51 207 graph;
#X obj 279 210 r corail-readfile1;
#X msg 278 269 read -resize \$1 corail-array1;
#X obj 58 660 tabread4~ corail-array1;
#X text 53 381 READ ARRAY;
#X msg 160 544 0;
#X obj 58 721 outlet~;
#X msg 50 79 \; corail-readfile1 _test_corail.wav \;;
#X connect 1 0 26 0;
#X connect 2 0 10 1;
#X connect 2 0 10 0;
#X connect 3 0 5 0;
#X connect 4 0 3 0;
#X connect 5 0 22 0;
#X connect 6 0 2 0;
#X connect 7 0 6 0;
#X connect 7 1 2 1;
#X connect 8 0 21 0;
#X connect 9 0 14 0;
#X connect 10 0 4 0;
#X connect 10 0 13 0;
#X connect 11 0 10 0;
#X connect 15 0 7 0;
#X connect 16 0 11 0;
#X connect 17 0 24 0;
#X connect 18 0 3 1;
#X connect 20 0 8 0;
#X connect 21 0 9 0;
#X connect 22 0 25 0;
#X connect 24 0 4 0;
