#N canvas 610 23 1070 928 10;
#X obj 989 902 e_freqshift \$0-NAME;
#X floatatom 1066 857 5 0 0 0 - - -, f 5;
#X obj 1069 836 hsl 128 15 0 555 0 0 empty empty empty -2 -8 0 10 -262144
-1 -1 0 1;
#X text 226 244 s_drumelectro;
#X text 260 280 silly electronic drummachine for quick testing.;
#X text 652 267 hh: hihat;
#X text 652 283 oh: open hihat;
#X text 651 250 bd: bass drum;
#X text 651 299 sn: snare;
#X text 552 348 Most can optionally be extended with the decay time
\, "cp" with midi like velocity.;
#X text 651 315 cp: clap;
#X text 521 150 ON;
#X text 455 150 OFF;
#X obj 500 149 bng 15 250 50 0 empty empty empty 17 7 0 10 -262144
-1 -1;
#X obj 433 150 bng 15 250 50 0 empty empty empty 17 7 0 10 -262144
-1 -1;
#X obj 433 123 route 0 1;
#X obj 433 78 valueChanged;
#X obj 433 171 s \$0-off;
#X obj 500 171 s \$0-on;
#X obj 433 55 inlet;
#X text 429 31 on / off;
#X obj 452 99 print new state;
#X obj 295 131 s \$0-innerState;
#X obj 610 54 inlet;
#X obj 815 54 inlet;
#X text 608 26 seq repeat;
#X text 809 23 pitch;
#X obj 815 166 s \$0-pitch;
#X obj 815 77 valueChanged;
#X obj 834 98 print new pitch;
#X obj 610 77 valueChanged;
#X obj 629 98 print new seq repeat;
#X obj 610 169 s \$0-seqRepeat;
#X obj 104 280 r \$0-innerState;
#X obj 1066 787 r \$0-pitch;
#X obj 1066 814 m_scale 0 1 0 555;
#N canvas 582 91 1098 724 btrpt 0;
#X floatatom 160 448 5 0 1000 0 - - -, f 5;
#X msg 166 500 feedback 1;
#X text 173 480 feedback level. If 1 the chunk gets repeated endlessly.
;
#X msg 216 319 dry 1;
#X msg 256 319 dry 0;
#X text 248 521 dry signal (1) - wet signal (0);
#X obj 38 674 e_repeater repea;
#X text 204 447 length of the chunk repeated in ms triggers new recording.
Max 1000!;
#X obj 46 26 inlet~;
#X obj 38 703 outlet~;
#X obj 191 261 tgl 15 0 empty empty empty 17 7 0 10 -262144 -1 -1 0
1;
#X floatatom 165 319 5 0 0 0 - - -, f 5;
#X obj 165 362 / \$1;
#X obj 177 294 bng 15 250 50 0 empty empty empty 17 7 0 10 -262144
-1 -1;
#X obj 216 286 select;
#X msg 248 500 feedback 0;
#X obj 288 58 vsl 15 128 0 1 0 0 empty empty empty 0 -9 0 10 -262144
-1 -1 0 0;
#X obj 394 221 * 4;
#X obj 394 291 select 0 1 2 3;
#X obj 394 245 int;
#X obj 177 228 select 0;
#X floatatom 394 347 5 0 0 0 - - -, f 5;
#X obj 288 32 inlet;
#X obj 167 84 loadbang;
#X msg 167 114 8000;
#X msg 475 319 20;
#X msg 394 319 2;
#X msg 421 319 8;
#X msg 448 319 16;
#X connect 0 0 6 1;
#X connect 1 0 6 1;
#X connect 3 0 6 1;
#X connect 4 0 6 1;
#X connect 6 0 9 0;
#X connect 8 0 6 0;
#X connect 10 0 13 0;
#X connect 10 0 14 0;
#X connect 11 0 12 0;
#X connect 12 0 0 0;
#X connect 13 0 11 0;
#X connect 14 0 3 0;
#X connect 14 1 4 0;
#X connect 15 0 6 1;
#X connect 16 0 17 0;
#X connect 16 0 20 0;
#X connect 17 0 19 0;
#X connect 18 0 26 0;
#X connect 18 1 27 0;
#X connect 18 2 28 0;
#X connect 18 3 25 0;
#X connect 18 4 25 0;
#X connect 19 0 18 0;
#X connect 20 0 10 0;
#X connect 20 1 10 0;
#X connect 21 0 12 1;
#X connect 22 0 16 0;
#X connect 23 0 24 0;
#X connect 24 0 11 0;
#X connect 25 0 21 0;
#X connect 26 0 21 0;
#X connect 27 0 21 0;
#X connect 28 0 21 0;
#X restore 81 865 pd btrpt;
#X obj 340 910 e_freqshift \$0-NAME;
#X obj 84 750 s_drumelectro;
#X obj 217 414 loadbang;
#X obj 87 507 select 0 4 8 12 15;
#X obj 87 432 tgl 15 0 empty empty empty 17 7 0 10 -262144 -1 -1 0
1;
#X msg 136 567 bd;
#X obj 84 679 r \$0-drums;
#X obj 87 597 s \$0-drums;
#X msg 259 564 sn;
#X msg 296 564 sn;
#X obj 259 505 select 4 12;
#X msg 419 568 hh;
#X msg 502 575 oh;
#X obj 419 509 select 0 2 4 12;
#X obj 113 712 g_hsl hhtune 0 2;
#N canvas 0 22 450 300 rand 0;
#X obj 94 158 outlet;
#X obj 94 22 inlet;
#X obj 94 47 t b a;
#X obj 94 123 list prepend;
#X obj 94 99 + 500;
#X obj 94 73 random 1500;
#X connect 1 0 2 0;
#X connect 2 0 5 0;
#X connect 2 1 3 1;
#X connect 3 0 0 0;
#X connect 4 0 3 0;
#X connect 5 0 4 0;
#X restore 502 602 pd rand;
#X msg 591 569 cp;
#N canvas 0 22 450 300 rand 0;
#X obj 94 158 outlet;
#X obj 94 22 inlet;
#X obj 94 47 t b a;
#X obj 94 123 list prepend;
#X obj 94 100 + 80;
#X obj 94 73 random 20;
#X floatatom 134 101 5 0 0 0 - - -, f 5;
#X connect 1 0 2 0;
#X connect 2 0 5 0;
#X connect 2 1 3 1;
#X connect 3 0 0 0;
#X connect 4 0 3 0;
#X connect 5 0 4 0;
#X connect 6 0 4 1;
#X restore 591 602 pd rand;
#N canvas 0 22 450 300 rand 0;
#X obj 94 158 outlet;
#X obj 94 22 inlet;
#X obj 94 47 t b a;
#X obj 94 123 list prepend;
#X obj 94 100 + 50;
#X obj 94 73 random 100;
#X connect 1 0 2 0;
#X connect 2 0 5 0;
#X connect 2 1 3 1;
#X connect 3 0 0 0;
#X connect 4 0 3 0;
#X connect 5 0 4 0;
#X restore 419 601 pd rand;
#N canvas 0 22 450 300 rand 0;
#X obj 94 100 + 100;
#X obj 94 158 outlet;
#X obj 94 22 inlet;
#X obj 94 47 t b a;
#X obj 94 123 list prepend;
#X obj 94 73 random 200;
#X connect 0 0 4 0;
#X connect 2 0 3 0;
#X connect 3 0 5 0;
#X connect 3 1 4 1;
#X connect 4 0 1 0;
#X connect 5 0 0 0;
#X restore 296 588 pd rand;
#X obj 84 793 *~ 0.5;
#N canvas 0 22 755 571 pass 0;
#X obj 67 88 random 100;
#X obj 67 158 sel 1;
#X obj 67 202 outlet;
#X obj 67 29 inlet;
#X obj 172 29 inlet;
#X obj 67 111 < 100;
#X obj 67 179 list;
#X obj 67 55 t b a;
#X floatatom 130 114 5 0 100 0 - - -, f 5;
#X connect 0 0 5 0;
#X connect 1 0 6 0;
#X connect 3 0 7 0;
#X connect 4 0 5 1;
#X connect 5 0 1 0;
#X connect 6 0 2 0;
#X connect 7 0 0 0;
#X connect 7 1 6 1;
#X connect 8 0 5 1;
#X coords 0 -1 1 1 85 30 1 100 100;
#X restore 259 638 pd pass;
#X obj 259 672 s \$0-drums;
#N canvas 0 22 755 571 pass 0;
#X obj 67 88 random 100;
#X obj 67 158 sel 1;
#X obj 67 202 outlet;
#X obj 67 29 inlet;
#X obj 172 29 inlet;
#X obj 67 111 < 100;
#X obj 67 179 list;
#X obj 67 55 t b a;
#X floatatom 130 114 5 0 100 0 - - -, f 5;
#X connect 0 0 5 0;
#X connect 1 0 6 0;
#X connect 3 0 7 0;
#X connect 4 0 5 1;
#X connect 5 0 1 0;
#X connect 6 0 2 0;
#X connect 7 0 0 0;
#X connect 7 1 6 1;
#X connect 8 0 5 1;
#X coords 0 -1 1 1 85 30 1 100 100;
#X restore 419 641 pd pass;
#X obj 419 675 s \$0-drums;
#N canvas 0 22 755 571 pass 0;
#X obj 67 88 random 100;
#X obj 67 158 sel 1;
#X obj 67 202 outlet;
#X obj 67 29 inlet;
#X obj 172 29 inlet;
#X obj 67 111 < 100;
#X obj 67 179 list;
#X obj 67 55 t b a;
#X floatatom 130 114 5 0 100 0 - - -, f 5;
#X connect 0 0 5 0;
#X connect 1 0 6 0;
#X connect 3 0 7 0;
#X connect 4 0 5 1;
#X connect 5 0 1 0;
#X connect 6 0 2 0;
#X connect 7 0 0 0;
#X connect 7 1 6 1;
#X connect 8 0 5 1;
#X coords 0 -1 1 1 85 30 1 100 100;
#X restore 591 637 pd pass;
#X obj 591 671 s \$0-drums;
#X text 260 717 hihat tuning;
#X obj 591 510 select 8 11 14;
#X msg 87 566 bd 500;
#X obj 87 457 c_multimetro 16 300;
#X obj 296 850 hsl 128 15 0 1 0 0 empty empty empty -2 -8 0 10 -262144
-1 -1 0 1;
#X msg 217 434 110 250;
#X floatatom 498 878 5 0 0 0 - - -, f 5;
#X obj 473 857 hsl 128 15 0 555 0 0 empty empty empty -2 -8 0 10 -262144
-1 -1 0 1;
#X obj 470 808 r \$0-pitch;
#X obj 470 835 m_scale 0 1 0 555;
#X obj 312 752 r \$0-seqRepeat;
#X obj 79 953 outlet~;
#X obj 294 826 f;
#X obj 217 787 r \$0-innerState;
#X msg 216 810 0;
#X connect 1 0 0 1;
#X connect 2 0 1 0;
#X connect 13 0 18 0;
#X connect 14 0 17 0;
#X connect 15 0 14 0;
#X connect 15 1 13 0;
#X connect 16 0 15 0;
#X connect 16 0 21 0;
#X connect 16 0 22 0;
#X connect 19 0 16 0;
#X connect 23 0 30 0;
#X connect 24 0 28 0;
#X connect 28 0 27 0;
#X connect 30 0 32 0;
#X connect 33 0 41 0;
#X connect 34 0 35 0;
#X connect 35 0 2 0;
#X connect 36 0 37 0;
#X connect 36 0 75 0;
#X connect 37 0 75 0;
#X connect 38 0 57 0;
#X connect 39 0 69 0;
#X connect 40 0 66 0;
#X connect 40 1 42 0;
#X connect 40 2 42 0;
#X connect 40 3 42 0;
#X connect 40 4 42 0;
#X connect 41 0 67 0;
#X connect 42 0 44 0;
#X connect 43 0 38 0;
#X connect 45 0 58 0;
#X connect 46 0 56 0;
#X connect 47 0 45 0;
#X connect 47 1 46 0;
#X connect 48 0 55 0;
#X connect 49 0 52 0;
#X connect 50 1 48 0;
#X connect 50 2 49 0;
#X connect 50 3 49 0;
#X connect 50 4 48 0;
#X connect 51 0 38 0;
#X connect 52 0 60 0;
#X connect 53 0 54 0;
#X connect 54 0 62 0;
#X connect 55 0 60 0;
#X connect 56 0 58 0;
#X connect 57 0 36 0;
#X connect 58 0 59 0;
#X connect 60 0 61 0;
#X connect 62 0 63 0;
#X connect 65 0 53 0;
#X connect 65 1 53 0;
#X connect 65 2 53 0;
#X connect 66 0 44 0;
#X connect 67 0 40 0;
#X connect 67 0 47 0;
#X connect 67 0 50 0;
#X connect 67 0 65 0;
#X connect 68 0 36 1;
#X connect 69 0 67 2;
#X connect 71 0 70 0;
#X connect 71 0 37 1;
#X connect 72 0 73 0;
#X connect 73 0 71 0;
#X connect 74 0 76 1;
#X connect 74 0 76 0;
#X connect 76 0 68 0;
#X connect 77 0 78 0;
#X connect 78 0 76 0;
